<?xml version="1.0" encoding="utf-8"?>
<!-- Generator: Adobe Illustrator 24.2.3, SVG Export Plug-In . SVG Version: 6.00 Build 0)  -->
<svg version="1.1" id="Layer_1" xmlns="http://www.w3.org/2000/svg" xmlns:xlink="http://www.w3.org/1999/xlink" x="0px" y="0px"
	 viewBox="0 0 24 25" style="enable-background:new 0 0 24 25;" xml:space="preserve">
<style type="text/css">
	.st0{fill-rule:evenodd;clip-rule:evenodd;fill:#ECA33A;}
</style>
<path class="st0" d="M19,11v3.5h-6v-10C16.4,4.8,19,7.6,19,11z M12,14.5v-10C8.6,4.8,6,7.6,6,11v3.5H12z M5,14.5V11
	c0-4.1,3.4-7.5,7.5-7.5c4.1,0,7.5,3.4,7.5,7.5v3.5h2h1v1v6v1h-1h-4h-1h-4h-1H8H7H3H2v-1v-6v-1h1H5z M8,21.5h4v-6H8V21.5z M7,15.5H6
	H5H3v6h4V15.5z M13,15.5v6h4v-6H13z M18,15.5v6h4v-6h-2h-1H18z M10,11.5H9v2h1V11.5z M15,11.5h1v2h-1V11.5z"/>
<path class="st0" d="M19,11v3.5h-6v-10C16.4,4.8,19,7.6,19,11z M12,14.5v-10C8.6,4.8,6,7.6,6,11v3.5H12z M5,14.5V11
	c0-4.1,3.4-7.5,7.5-7.5c4.1,0,7.5,3.4,7.5,7.5v3.5h2h1v1v6v1h-1h-4h-1h-4h-1H8H7H3H2v-1v-6v-1h1H5z M8,21.5h4v-6H8V21.5z M7,15.5H6
	H5H3v6h4V15.5z M13,15.5v6h4v-6H13z M18,15.5v6h4v-6h-2h-1H18z M10,11.5H9v2h1V11.5z M15,11.5h1v2h-1V11.5z"/>
</svg>
