<svg width="61" height="61" viewBox="0 0 61 61" fill="none" xmlns="http://www.w3.org/2000/svg">
<circle cx="30.5" cy="30.5" r="30.5" fill="#231F20"/>
<path d="M22.1667 30.5V20.7778C22.1667 20.0411 22.4593 19.3345 22.9803 18.8136C23.5012 18.2927 24.2077 18 24.9444 18H29.1111V21.125M19.3889 43L20.7778 40.9167M41.6111 43L40.2222 40.9167M19.3889 30.5H41.6111C41.9795 30.5 42.3327 30.6463 42.5932 30.9068C42.8537 31.1673 43 31.5205 43 31.8889V36.0556C43 37.529 42.4147 38.9421 41.3728 39.9839C40.3309 41.0258 38.9179 41.6111 37.4444 41.6111H23.5556C22.0821 41.6111 20.6691 41.0258 19.6272 39.9839C18.5853 38.9421 18 37.529 18 36.0556V31.8889C18 31.5205 18.1463 31.1673 18.4068 30.9068C18.6673 30.6463 19.0205 30.5 19.3889 30.5Z" stroke="white" stroke-width="2" stroke-linecap="round" stroke-linejoin="round"/>
</svg>
