<svg width="61" height="61" viewBox="0 0 61 61" fill="none" xmlns="http://www.w3.org/2000/svg">
<circle cx="30.5" cy="30.5" r="30.5" fill="#231F20"/>
<path d="M13 41V31.5714C13 30.8643 13.1604 30.2226 13.4813 29.6464C13.8021 29.0702 14.225 28.5595 14.75 28.1143V23.7143C14.75 22.4048 15.2604 21.2917 16.2812 20.375C17.3021 19.4583 18.5417 19 20 19H27C27.6708 19 28.2979 19.1116 28.8812 19.3347C29.4646 19.5579 30.0042 19.8653 30.5 20.2571C30.9958 19.8643 31.5354 19.5568 32.1187 19.3347C32.7021 19.1126 33.3292 19.001 34 19H41C42.4583 19 43.6979 19.4583 44.7188 20.375C45.7396 21.2917 46.25 22.4048 46.25 23.7143V28.1143C46.775 28.5595 47.1979 29.0702 47.5187 29.6464C47.8396 30.2226 48 30.8643 48 31.5714V41H44.5V37.8571H16.5V41H13ZM32.25 26.8571H42.75V23.7143C42.75 23.269 42.582 22.8956 42.246 22.5939C41.91 22.2921 41.4947 22.1418 41 22.1429H34C33.5042 22.1429 33.0882 22.2937 32.7522 22.5954C32.4163 22.8971 32.2488 23.2701 32.25 23.7143V26.8571ZM18.25 26.8571H28.75V23.7143C28.75 23.269 28.582 22.8956 28.246 22.5939C27.91 22.2921 27.4947 22.1418 27 22.1429H20C19.5042 22.1429 19.0883 22.2937 18.7523 22.5954C18.4163 22.8971 18.2488 23.2701 18.25 23.7143V26.8571ZM16.5 34.7143H44.5V31.5714C44.5 31.1262 44.332 30.7527 43.996 30.451C43.66 30.1493 43.2447 29.999 42.75 30H18.25C17.7542 30 17.3383 30.1509 17.0023 30.4526C16.6663 30.7543 16.4988 31.1272 16.5 31.5714V34.7143Z" fill="white"/>
</svg>
