<svg width="24" height="25" viewBox="0 0 24 25" fill="none" xmlns="http://www.w3.org/2000/svg">
<path fill-rule="evenodd" clip-rule="evenodd" d="M7.56739 22.5L6.30033 20.7987C5.43562 19.6376 5.67589 17.9953 6.83699 17.1306C7.55514 16.5958 7.70375 15.58 7.16891 14.8619L5.90186 13.1605L6.70388 12.5632L7.97093 14.2646C8.83565 15.4257 8.59538 17.0679 7.43428 17.9326C6.71613 18.4675 6.56752 19.4832 7.10236 20.2014L8.36941 21.9027L7.56739 22.5ZM1 9.91677C1 10.0723 1.12885 10.2011 1.28437 10.2011H22.7156C22.8712 10.2011 23 10.0723 23 9.91677V3.48552C23 3.32999 22.8712 3.20115 22.7156 3.20115H1.28437C1.12885 3.20115 1 3.32999 1 3.48552V9.91677ZM1.28437 11.2011C0.576562 11.2011 0 10.6246 0 9.91677V3.48552C0 2.77771 0.576562 2.20115 1.28437 2.20115H22.7156C23.4234 2.20115 24 2.77771 24 3.48552V9.91677C24 10.6246 23.4234 11.2011 22.7156 11.2011H1.28437ZM11.3003 20.7987L12.5674 22.5L13.3694 21.9027L12.1024 20.2014C11.5675 19.4832 11.7161 18.4675 12.4343 17.9326C13.5954 17.0679 13.8356 15.4257 12.9709 14.2646L11.7039 12.5632L10.9019 13.1605L12.1689 14.8619C12.7037 15.58 12.5551 16.5958 11.837 17.1306C10.6759 17.9953 10.4356 19.6376 11.3003 20.7987ZM17.5674 22.5L16.3003 20.7987C15.4356 19.6376 15.6759 17.9953 16.837 17.1306C17.5551 16.5958 17.7037 15.58 17.1689 14.8619L15.9019 13.1605L16.7039 12.5632L17.9709 14.2646C18.8356 15.4257 18.5954 17.0679 17.4343 17.9326C16.7161 18.4675 16.5675 19.4832 17.1024 20.2014L18.3694 21.9027L17.5674 22.5Z" fill="black"/>
<path fill-rule="evenodd" clip-rule="evenodd" d="M7.56739 22.5L6.30033 20.7987C5.43562 19.6376 5.67589 17.9953 6.83699 17.1306C7.55514 16.5958 7.70375 15.58 7.16891 14.8619L5.90186 13.1605L6.70388 12.5632L7.97093 14.2646C8.83565 15.4257 8.59538 17.0679 7.43428 17.9326C6.71613 18.4675 6.56752 19.4832 7.10236 20.2014L8.36941 21.9027L7.56739 22.5ZM1 9.91677C1 10.0723 1.12885 10.2011 1.28437 10.2011H22.7156C22.8712 10.2011 23 10.0723 23 9.91677V3.48552C23 3.32999 22.8712 3.20115 22.7156 3.20115H1.28437C1.12885 3.20115 1 3.32999 1 3.48552V9.91677ZM1.28437 11.2011C0.576562 11.2011 0 10.6246 0 9.91677V3.48552C0 2.77771 0.576562 2.20115 1.28437 2.20115H22.7156C23.4234 2.20115 24 2.77771 24 3.48552V9.91677C24 10.6246 23.4234 11.2011 22.7156 11.2011H1.28437ZM11.3003 20.7987L12.5674 22.5L13.3694 21.9027L12.1024 20.2014C11.5675 19.4832 11.7161 18.4675 12.4343 17.9326C13.5954 17.0679 13.8356 15.4257 12.9709 14.2646L11.7039 12.5632L10.9019 13.1605L12.1689 14.8619C12.7037 15.58 12.5551 16.5958 11.837 17.1306C10.6759 17.9953 10.4356 19.6376 11.3003 20.7987ZM17.5674 22.5L16.3003 20.7987C15.4356 19.6376 15.6759 17.9953 16.837 17.1306C17.5551 16.5958 17.7037 15.58 17.1689 14.8619L15.9019 13.1605L16.7039 12.5632L17.9709 14.2646C18.8356 15.4257 18.5954 17.0679 17.4343 17.9326C16.7161 18.4675 16.5675 19.4832 17.1024 20.2014L18.3694 21.9027L17.5674 22.5Z" fill="url(#paint0_linear_590_3095)"/>
<path fill-rule="evenodd" clip-rule="evenodd" d="M7.56739 22.5L6.30033 20.7987C5.43562 19.6376 5.67589 17.9953 6.83699 17.1306C7.55514 16.5958 7.70375 15.58 7.16891 14.8619L5.90186 13.1605L6.70388 12.5632L7.97093 14.2646C8.83565 15.4257 8.59538 17.0679 7.43428 17.9326C6.71613 18.4675 6.56752 19.4832 7.10236 20.2014L8.36941 21.9027L7.56739 22.5ZM1 9.91677C1 10.0723 1.12885 10.2011 1.28437 10.2011H22.7156C22.8712 10.2011 23 10.0723 23 9.91677V3.48552C23 3.32999 22.8712 3.20115 22.7156 3.20115H1.28437C1.12885 3.20115 1 3.32999 1 3.48552V9.91677ZM1.28437 11.2011C0.576562 11.2011 0 10.6246 0 9.91677V3.48552C0 2.77771 0.576562 2.20115 1.28437 2.20115H22.7156C23.4234 2.20115 24 2.77771 24 3.48552V9.91677C24 10.6246 23.4234 11.2011 22.7156 11.2011H1.28437ZM11.3003 20.7987L12.5674 22.5L13.3694 21.9027L12.1024 20.2014C11.5675 19.4832 11.7161 18.4675 12.4343 17.9326C13.5954 17.0679 13.8356 15.4257 12.9709 14.2646L11.7039 12.5632L10.9019 13.1605L12.1689 14.8619C12.7037 15.58 12.5551 16.5958 11.837 17.1306C10.6759 17.9953 10.4356 19.6376 11.3003 20.7987ZM17.5674 22.5L16.3003 20.7987C15.4356 19.6376 15.6759 17.9953 16.837 17.1306C17.5551 16.5958 17.7037 15.58 17.1689 14.8619L15.9019 13.1605L16.7039 12.5632L17.9709 14.2646C18.8356 15.4257 18.5954 17.0679 17.4343 17.9326C16.7161 18.4675 16.5675 19.4832 17.1024 20.2014L18.3694 21.9027L17.5674 22.5Z" fill="url(#paint1_linear_590_3095)"/>
<defs>
<linearGradient id="paint0_linear_590_3095" x1="0.532176" y1="12.1053" x2="23.5125" y2="12.1053" gradientUnits="userSpaceOnUse">
<stop offset="0.0798496" stop-color="#AF6F57"/>
<stop offset="0.213542" stop-color="#FDB491"/>
<stop offset="0.364521" stop-color="#C18369"/>
<stop offset="0.527463" stop-color="#A15C40"/>
<stop offset="0.793094" stop-color="#E28F68"/>
<stop offset="0.836637" stop-color="#B66D50"/>
<stop offset="1" stop-color="#A15C40"/>
</linearGradient>
<linearGradient id="paint1_linear_590_3095" x1="0.532176" y1="12.1053" x2="23.5125" y2="12.1053" gradientUnits="userSpaceOnUse">
<stop offset="0.0798496" stop-color="#AF6F57"/>
<stop offset="0.213542" stop-color="#FDB491"/>
<stop offset="0.364521" stop-color="#C18369"/>
<stop offset="0.527463" stop-color="#A15C40"/>
<stop offset="0.793094" stop-color="#E28F68"/>
<stop offset="0.836637" stop-color="#B66D50"/>
<stop offset="1" stop-color="#A15C40"/>
</linearGradient>
</defs>
</svg>
