<svg width="36" height="33" viewBox="0 0 36 33" fill="none" xmlns="http://www.w3.org/2000/svg">
<rect y="0.296143" width="36" height="32.7039" fill="#3E3E3E"/>
<path d="M26.1334 19.6313L21.8935 17.8038L21.8818 17.7986C21.6617 17.708 21.4216 17.6717 21.1832 17.6928C20.9448 17.714 20.7157 17.792 20.5165 17.9198C20.493 17.9347 20.4705 17.9508 20.449 17.9682L18.2584 19.7646C16.8706 19.1162 15.4378 17.7484 14.7636 16.4308L16.6339 14.2916C16.6519 14.27 16.669 14.2483 16.6852 14.2249C16.8151 14.0339 16.894 13.8149 16.9147 13.5874C16.9355 13.36 16.8974 13.1311 16.804 12.9212V12.9108L14.8987 8.82557C14.7751 8.55137 14.5627 8.32296 14.2931 8.17442C14.0235 8.02589 13.7112 7.9652 13.4028 8.00142C12.1833 8.15578 11.0639 8.73188 10.2537 9.6221C9.44343 10.5123 8.9978 11.6558 9.00001 12.839C9.00001 19.7126 14.814 25.3051 21.9601 25.3051C23.1901 25.3072 24.3789 24.8785 25.3044 24.0992C26.2299 23.3198 26.8289 22.2431 26.9893 21.07C27.0271 20.7735 26.9641 20.4732 26.8098 20.2139C26.6556 19.9546 26.4183 19.7502 26.1334 19.6313ZM21.9601 23.9199C18.9058 23.9167 15.9776 22.7482 13.8179 20.6708C11.6581 18.5935 10.4434 15.7768 10.44 12.839C10.4366 11.9936 10.7533 11.1759 11.3308 10.5387C11.9083 9.90148 12.7072 9.48824 13.5783 9.37616C13.578 9.37961 13.578 9.38309 13.5783 9.38655L15.4684 13.4553L13.608 15.5971C13.5892 15.618 13.572 15.6403 13.5567 15.6637C13.4213 15.8636 13.3419 16.0938 13.3261 16.3319C13.3103 16.5701 13.3588 16.8081 13.4667 17.0229C14.2821 18.627 15.9625 20.2312 17.6482 21.0146C17.8731 21.1175 18.122 21.1625 18.3705 21.1452C18.6189 21.1279 18.8585 21.0489 19.0657 20.9159C19.0888 20.901 19.111 20.8848 19.1323 20.8675L21.3202 19.072L25.5502 20.8943H25.5601C25.445 21.7334 25.016 22.5034 24.3534 23.0603C23.6908 23.6172 22.84 23.9228 21.9601 23.9199Z" fill="#ECA33A"/>
</svg>
