<svg width="36" height="33" viewBox="0 0 36 33" fill="none" xmlns="http://www.w3.org/2000/svg">
<rect y="0.296143" width="36" height="32.7039" fill="#3E3E3E"/>
<path d="M25.2312 9.68846C24.3558 8.84223 23.3132 8.17128 22.1641 7.71474C21.015 7.25819 19.7824 7.0252 18.5382 7.02935C13.3251 7.02935 9.07638 11.0957 9.07638 16.0849C9.07638 17.6841 9.51558 19.2375 10.3367 20.6082L9 25.305L14.0126 24.044C15.397 24.7659 16.9533 25.1497 18.5382 25.1497C23.7513 25.1497 28 21.0833 28 16.0941C28 13.6726 27.0166 11.3972 25.2312 9.68846ZM18.5382 23.6145C17.1251 23.6145 15.7407 23.249 14.5281 22.5637L14.2417 22.3992L11.2628 23.1485L12.0553 20.3706L11.8643 20.0873C11.0793 18.8875 10.6624 17.5006 10.6613 16.0849C10.6613 11.9364 14.194 8.55537 18.5286 8.55537C20.6291 8.55537 22.6055 9.34122 24.0854 10.7667C24.8182 11.4648 25.3989 12.2952 25.7939 13.2097C26.1889 14.1241 26.3903 15.1046 26.3864 16.0941C26.4055 20.2427 22.8729 23.6145 18.5382 23.6145ZM22.8538 17.9856C22.6151 17.876 21.4502 17.3277 21.2402 17.2455C21.0206 17.1724 20.8678 17.1358 20.7055 17.3551C20.5432 17.5836 20.0945 18.0953 19.9608 18.2415C19.8271 18.3968 19.6839 18.4151 19.4452 18.2963C19.2065 18.1867 18.4427 17.9399 17.5452 17.1724C16.8387 16.5693 16.3709 15.8291 16.2276 15.6006C16.094 15.3722 16.2085 15.2534 16.3327 15.1346C16.4377 15.0341 16.5714 14.8696 16.6859 14.7417C16.8005 14.6138 16.8482 14.5132 16.9246 14.367C17.001 14.2117 16.9628 14.0838 16.9055 13.9741C16.8482 13.8645 16.3709 12.7496 16.1799 12.2927C15.9889 11.8541 15.7884 11.909 15.6452 11.8998H15.1869C15.0246 11.8998 14.7764 11.9546 14.5568 12.1831C14.3467 12.4115 13.7357 12.9598 13.7357 14.0746C13.7357 15.1894 14.5854 16.2677 14.7 16.4139C14.8146 16.5693 16.3709 18.8537 18.7387 19.8315C19.302 20.069 19.7412 20.2061 20.0849 20.3066C20.6482 20.4802 21.1638 20.4528 21.5744 20.398C22.0327 20.334 22.9779 19.8497 23.1688 19.3197C23.3693 18.7897 23.3693 18.342 23.3025 18.2415C23.2357 18.141 23.0925 18.0953 22.8538 17.9856Z" fill="#ECA33A"/>
</svg>
