<?xml version="1.0" encoding="utf-8"?>
<!-- Generator: Adobe Illustrator 24.2.3, SVG Export Plug-In . SVG Version: 6.00 Build 0)  -->
<svg version="1.1" id="Layer_1" xmlns="http://www.w3.org/2000/svg" xmlns:xlink="http://www.w3.org/1999/xlink" x="0px" y="0px"
	 viewBox="0 0 24 25" style="enable-background:new 0 0 24 25;" xml:space="preserve">
<style type="text/css">
	.st0{fill:none;stroke:#ECA33A;}
</style>
<path class="st0" d="M13.4,6.3V5.5h0.7c0.4,0,0.7-0.3,0.7-0.7V4.2c0-0.4-0.3-0.7-0.7-0.7H9.9c-0.4,0-0.7,0.3-0.7,0.7v0.7
	c0,0.4,0.3,0.7,0.7,0.7h0.7v0.8C6,6.9,2.4,10.8,2.4,15.5h19.3C21.6,10.8,18,6.9,13.4,6.3z M22.3,17.8H1.7c-0.4,0-0.7,0.3-0.7,0.7
	v1.3c0,0.4,0.3,0.7,0.7,0.7h20.6c0.4,0,0.7-0.3,0.7-0.7v-1.3C23,18.1,22.7,17.8,22.3,17.8z"/>
<path class="st0" d="M13.4,6.3V5.5h0.7c0.4,0,0.7-0.3,0.7-0.7V4.2c0-0.4-0.3-0.7-0.7-0.7H9.9c-0.4,0-0.7,0.3-0.7,0.7v0.7
	c0,0.4,0.3,0.7,0.7,0.7h0.7v0.8C6,6.9,2.4,10.8,2.4,15.5h19.3C21.6,10.8,18,6.9,13.4,6.3z M22.3,17.8H1.7c-0.4,0-0.7,0.3-0.7,0.7
	v1.3c0,0.4,0.3,0.7,0.7,0.7h20.6c0.4,0,0.7-0.3,0.7-0.7v-1.3C23,18.1,22.7,17.8,22.3,17.8z"/>
</svg>
