<svg width="61" height="61" viewBox="0 0 61 61" fill="none" xmlns="http://www.w3.org/2000/svg">
<circle cx="30.5" cy="30.5" r="30.5" fill="#231F20"/>
<path d="M35.336 34.162C35.336 35.188 35.0257 36.043 34.405 36.727C33.7843 37.3983 32.9357 37.8353 31.859 38.038C31.7957 38.0633 31.764 38.1013 31.764 38.152L31.802 39.349C31.802 39.4123 31.7767 39.463 31.726 39.501C31.688 39.5517 31.6373 39.577 31.574 39.577H29.256C29.1927 39.577 29.1357 39.5517 29.085 39.501C29.047 39.463 29.028 39.4123 29.028 39.349L29.066 38.114C29.066 38.0633 29.0343 38.0253 28.971 38C27.907 37.7593 27.071 37.2907 26.463 36.594C25.8677 35.8973 25.57 35.0423 25.57 34.029V33.668C25.57 33.6047 25.589 33.554 25.627 33.516C25.6777 33.4653 25.7347 33.44 25.798 33.44H28.306C28.3693 33.44 28.42 33.4653 28.458 33.516C28.5087 33.554 28.534 33.6047 28.534 33.668V33.896C28.534 34.314 28.7367 34.6813 29.142 34.998C29.5473 35.302 30.0857 35.454 30.757 35.454C31.289 35.454 31.6817 35.3337 31.935 35.093C32.1883 34.8523 32.315 34.5737 32.315 34.257C32.315 33.9023 32.163 33.6363 31.859 33.459C31.5677 33.269 31.042 33.041 30.282 32.775C30.1047 32.7243 29.9717 32.68 29.883 32.642C29.0977 32.376 28.4137 32.091 27.831 31.787C27.2483 31.4703 26.748 31.0397 26.33 30.495C25.9247 29.9377 25.722 29.2537 25.722 28.443C25.722 27.4803 26.0133 26.6697 26.596 26.011C27.1913 25.3523 27.983 24.9153 28.971 24.7C29.0217 24.6873 29.047 24.6493 29.047 24.586L29.028 23.18C29.028 23.1167 29.047 23.066 29.085 23.028C29.1357 22.9773 29.1927 22.952 29.256 22.952H31.555C31.6183 22.952 31.669 22.9773 31.707 23.028C31.7577 23.066 31.783 23.1167 31.783 23.18L31.745 24.605C31.745 24.6683 31.7703 24.7063 31.821 24.719C32.8597 24.9723 33.6893 25.4663 34.31 26.201C34.9433 26.923 35.26 27.7907 35.26 28.804V29.07C35.26 29.1333 35.2347 29.1903 35.184 29.241C35.146 29.279 35.0953 29.298 35.032 29.298H32.505C32.4417 29.298 32.3847 29.279 32.334 29.241C32.296 29.1903 32.277 29.1333 32.277 29.07V28.937C32.277 28.4937 32.087 28.101 31.707 27.759C31.3397 27.417 30.8393 27.246 30.206 27.246C29.7373 27.246 29.3637 27.3473 29.085 27.55C28.819 27.7527 28.686 28.0377 28.686 28.405C28.686 28.6837 28.7683 28.918 28.933 29.108C29.1103 29.2853 29.3763 29.45 29.731 29.602C30.0857 29.754 30.6367 29.963 31.384 30.229C32.2327 30.533 32.8913 30.799 33.36 31.027C33.8413 31.255 34.291 31.6287 34.709 32.148C35.127 32.6547 35.336 33.326 35.336 34.162Z" fill="white"/>
</svg>
