<svg width="13" height="24" viewBox="0 0 13 24" fill="none" xmlns="http://www.w3.org/2000/svg">
<path d="M3.646 13.3092C3.51482 13.3092 3.41551 13.3092 3.31619 13.3092C2.50243 13.3092 1.68868 13.3128 0.874915 13.3077C0.380582 13.304 0.236803 13.1706 0.233098 12.6913C0.225686 11.5757 0.225686 10.4595 0.233098 9.34392C0.236803 8.86237 0.385029 8.72678 0.871951 8.72531C1.68571 8.72238 2.49947 8.72458 3.31323 8.72458C3.41328 8.72458 3.51259 8.72458 3.64526 8.72458C3.64526 8.59265 3.64377 8.48637 3.64526 8.37936C3.66453 7.33784 3.62599 6.29119 3.71566 5.25554C3.94097 2.64478 5.96277 0.758904 8.61156 0.658491C9.71955 0.616713 10.8305 0.641633 11.94 0.643832C12.3098 0.644564 12.4691 0.799949 12.4714 1.16276C12.4773 2.25119 12.4773 3.33961 12.4714 4.42804C12.4691 4.80038 12.3172 4.94843 11.9185 4.95869C11.1699 4.97702 10.4207 4.97775 9.67212 4.98875C8.80055 5.00121 8.45741 5.32444 8.4411 6.18345C8.42628 6.99629 8.43814 7.80913 8.43814 8.65275C8.55153 8.65862 8.64788 8.66741 8.74497 8.66741C9.70695 8.66814 10.6682 8.66668 11.6302 8.66888C12.2238 8.67034 12.3624 8.8096 12.3624 9.40036C12.3632 10.4793 12.3639 11.5589 12.3617 12.6378C12.3609 13.1457 12.2357 13.274 11.725 13.2762C10.7453 13.2806 9.76476 13.2777 8.78499 13.2777C8.68419 13.2777 8.58266 13.2777 8.43888 13.2777C8.43888 13.4096 8.43888 13.5254 8.43888 13.6405C8.43888 16.5121 8.43888 19.3838 8.43888 22.2555C8.43888 22.9914 8.33809 23.0896 7.58955 23.0896C6.55419 23.0896 5.51809 23.0896 4.48273 23.0896C3.7416 23.0896 3.64526 22.9958 3.64526 22.2761C3.64526 19.4044 3.64526 16.5327 3.64526 13.661C3.646 13.554 3.646 13.4462 3.646 13.3092Z" fill="#272727"/>
</svg>
