<svg width="30" height="32" viewBox="0 0 30 32" fill="none" xmlns="http://www.w3.org/2000/svg">
<rect width="30" height="32" fill="#231F20"/>
<path d="M15.0329 22.4905L15.0329 22.4905L15.03 22.4921C15.0202 22.4975 15.0099 22.5 15 22.5C14.9901 22.5 14.9798 22.4975 14.97 22.4921L14.9671 22.4905C14.8263 22.4144 12.9316 21.3601 11.0795 19.7039C9.20296 18.0259 7.50014 15.8451 7.5 13.5222C7.50125 12.4525 7.91806 11.429 8.65578 10.6758C9.39316 9.92286 10.3907 9.50127 11.4289 9.5C12.7534 9.50008 13.8915 10.0789 14.5972 11.0386L15 11.5864L15.4028 11.0386C16.1085 10.0789 17.2466 9.50008 18.5711 9.5C19.6093 9.50127 20.6068 9.92286 21.3442 10.6758C22.082 11.4291 22.4988 12.4527 22.5 13.5225C22.4997 15.8453 20.797 18.0259 18.9205 19.7039C17.0684 21.3601 15.1737 22.4144 15.0329 22.4905Z" stroke="#ECA33A"/>
</svg>
