<svg width="13" height="13" viewBox="0 0 13 13" fill="none" xmlns="http://www.w3.org/2000/svg">
<path d="M12.6499 5.18439L7.23328 0.277768C7.23063 0.27555 7.22814 0.273161 7.22583 0.270618C7.0264 0.0964893 6.76652 0 6.49695 0C6.22739 0 5.9675 0.0964893 5.76807 0.270618L5.76063 0.277768L0.350052 5.18439C0.239686 5.28182 0.151588 5.40019 0.0913328 5.532C0.0310776 5.66382 -2.2779e-05 5.8062 1.25178e-08 5.95015V11.9599C1.25178e-08 12.2358 0.114137 12.5003 0.317301 12.6954C0.520465 12.8904 0.796016 13 1.08333 13H4.33333C4.62065 13 4.8962 12.8904 5.09937 12.6954C5.30253 12.5003 5.41667 12.2358 5.41667 11.9599V8.83965H7.58333V11.9599C7.58333 12.2358 7.69747 12.5003 7.90063 12.6954C8.1038 12.8904 8.37935 13 8.66667 13H11.9167C12.204 13 12.4795 12.8904 12.6827 12.6954C12.8859 12.5003 13 12.2358 13 11.9599V5.95015C13 5.8062 12.9689 5.66382 12.9087 5.532C12.8484 5.40019 12.7603 5.28182 12.6499 5.18439ZM11.9167 11.9599H8.66667V8.83965C8.66667 8.5638 8.55253 8.29925 8.34937 8.10419C8.1462 7.90914 7.87065 7.79956 7.58333 7.79956H5.41667C5.12935 7.79956 4.8538 7.90914 4.65063 8.10419C4.44747 8.29925 4.33333 8.5638 4.33333 8.83965V11.9599H1.08333V5.95015L1.09078 5.94365L6.5 1.03898L11.9099 5.94235L11.9173 5.94885L11.9167 11.9599Z" fill="#0C191F"/>
</svg>
