<svg width="23" height="24" viewBox="0 0 23 24" fill="none" xmlns="http://www.w3.org/2000/svg">
<path d="M14.7498 23.1844C12.4938 23.1844 10.2374 23.1844 7.98143 23.1844C7.84382 23.1724 7.70621 23.153 7.5686 23.1494C6.67503 23.1251 5.78323 23.0902 4.90862 22.8783C3.04562 22.4272 1.66204 21.3688 0.838602 19.621C0.328305 18.5383 0.175261 17.3734 0.163352 16.1916C0.138213 13.7613 0.11616 11.3306 0.127627 8.9003C0.13292 7.73536 0.140418 6.56289 0.422691 5.41918C0.914022 3.42674 2.07266 1.99865 3.98638 1.2198C5.01359 0.801856 6.0977 0.684212 7.19238 0.672271C9.47747 0.647503 11.7626 0.628043 14.0476 0.636447C15.2469 0.640869 16.4531 0.633793 17.6347 0.891638C19.8157 1.36841 21.344 2.62092 22.1118 4.74914C22.4805 5.77123 22.5683 6.83931 22.5714 7.91404C22.5798 10.5137 22.5868 13.1134 22.5661 15.7131C22.5604 16.4517 22.5017 17.1964 22.3884 17.9262C22.1555 19.4202 21.4855 20.6926 20.3084 21.6665C19.1607 22.616 17.8036 22.9968 16.3486 23.0955C15.8158 23.1313 15.2826 23.1552 14.7498 23.1844ZM11.3652 21.1906C11.3656 21.1791 11.3656 21.1676 11.3661 21.1557C11.9593 21.1557 12.5534 21.1734 13.1457 21.1521C14.4252 21.1057 15.7144 21.1221 16.9806 20.9611C18.7113 20.7408 19.8788 19.7369 20.3009 18.0102C20.4698 17.319 20.5262 16.5883 20.5399 15.8736C20.5809 13.7812 20.5946 11.6879 20.5787 9.59556C20.5703 8.50358 20.5351 7.40498 20.4076 6.32186C20.1937 4.50942 19.0536 3.27549 17.2766 2.92167C16.4999 2.76687 15.6932 2.71822 14.8984 2.70672C12.7893 2.67576 10.6798 2.67223 8.57067 2.69655C7.59198 2.70805 6.6049 2.74387 5.63856 2.88496C3.92199 3.13617 2.75409 4.25556 2.40698 5.95477C2.25702 6.68983 2.20586 7.45363 2.18998 8.20594C2.15161 10.0263 2.1375 11.8485 2.15734 13.6693C2.17102 14.9307 2.20321 16.1965 2.32627 17.4503C2.45329 18.7413 3.06635 19.7913 4.22058 20.4586C4.9267 20.8669 5.70869 21.0371 6.51228 21.0654C8.12874 21.1225 9.74695 21.1504 11.3652 21.1906Z" fill="#272727"/>
<path d="M5.61963 11.9063C5.61919 8.71791 8.22111 6.12102 11.4078 6.12984C14.6007 6.13867 17.1664 8.70335 17.1788 11.8984C17.1911 15.0842 14.5954 17.6873 11.4047 17.689C8.21626 17.6908 5.62051 15.0957 5.61963 11.9063ZM11.4007 15.6524C13.4761 15.6524 15.1418 13.9889 15.1458 11.9134C15.1497 9.84013 13.4863 8.16871 11.4122 8.16254C9.32979 8.15636 7.65354 9.82998 7.65619 11.913C7.65839 13.9867 9.32671 15.6524 11.4007 15.6524Z" fill="#272727"/>
<path d="M17.401 4.51941C18.1451 4.53517 18.714 5.15791 18.6944 5.93419C18.6753 6.69066 18.0764 7.27963 17.3393 7.26657C16.6074 7.25396 16.0254 6.61727 16.0424 5.84729C16.0589 5.09667 16.6652 4.50365 17.401 4.51941Z" fill="#272727"/>
</svg>
