<svg width="19" height="19" viewBox="0 0 19 19" fill="none" xmlns="http://www.w3.org/2000/svg">
<path d="M6.7168 18.9995C6.71729 14.8565 6.71828 10.7135 6.71878 6.57105C6.71878 6.49222 6.71878 6.4129 6.71878 6.32268C7.98145 6.32268 9.22727 6.32268 10.4994 6.32268C10.4994 6.89229 10.4994 7.46141 10.4994 8.08556C10.5613 8.00823 10.5891 7.97947 10.6099 7.94626C11.2941 6.83231 12.3158 6.2384 13.5839 6.04952C14.3618 5.93401 15.1391 5.99102 15.9025 6.17792C17.3313 6.52792 18.2058 7.451 18.6272 8.83613C18.828 9.49597 18.9192 10.1747 18.9643 10.8608C18.9712 10.9639 18.9876 11.0665 19 11.1691C19 13.7792 19 16.3889 19 18.999C17.6887 18.999 16.3775 18.999 15.0662 18.999C15.0652 16.7919 15.0692 14.5848 15.0578 12.3778C15.0558 11.9658 15.0132 11.5504 14.9487 11.1428C14.7896 10.135 14.2438 9.57132 13.2919 9.48308C11.997 9.36311 11.0665 9.87918 10.7988 11.24C10.7006 11.7392 10.663 12.2573 10.659 12.7674C10.6431 14.8446 10.6511 16.9218 10.6501 18.999C9.33931 18.9995 8.02805 18.9995 6.7168 18.9995Z" fill="#272727"/>
<path d="M0.297363 18.9995C0.302321 18.9137 0.31174 18.8275 0.31174 18.7417C0.312236 14.6909 0.312236 10.6407 0.312236 6.58989C0.312236 6.50462 0.312236 6.41936 0.312236 6.32318C1.62944 6.32318 2.92533 6.32318 4.25592 6.32318C4.25592 6.40448 4.25592 6.48727 4.25592 6.57056C4.25592 10.6273 4.25592 14.684 4.25642 18.7407C4.25642 18.827 4.26385 18.9132 4.26782 18.999C2.94417 18.9995 1.62052 18.9995 0.297363 18.9995Z" fill="#272727"/>
<path d="M2.21695 4.58213C0.914117 4.51917 -0.0605262 3.44637 0.00292975 2.14453C0.0629155 0.911109 1.14861 -0.0546111 2.41178 0.00240013C3.6452 0.0579241 4.61935 1.14659 4.56135 2.40431C4.50483 3.6293 3.41666 4.64014 2.21695 4.58213Z" fill="#272727"/>
</svg>
