<svg width="12" height="14" viewBox="0 0 12 14" fill="none" xmlns="http://www.w3.org/2000/svg">
<path fill-rule="evenodd" clip-rule="evenodd" d="M2.45398 5.71653C2.45398 4.8935 2.78093 4.10418 3.3629 3.5222C3.94487 2.94023 4.7342 2.61328 5.55723 2.61328C6.38026 2.61328 7.16959 2.94023 7.75156 3.5222C8.33353 4.10418 8.66048 4.8935 8.66048 5.71653C8.66048 6.53957 8.33353 7.32889 7.75156 7.91086C7.16959 8.49284 6.38026 8.81979 5.55723 8.81979C4.7342 8.81979 3.94487 8.49284 3.3629 7.91086C2.78093 7.32889 2.45398 6.53957 2.45398 5.71653ZM5.55723 3.59326C4.9941 3.59326 4.45404 3.81696 4.05585 4.21515C3.65766 4.61334 3.43395 5.1534 3.43395 5.71653C3.43395 6.27966 3.65766 6.81973 4.05585 7.21792C4.45404 7.61611 4.9941 7.83981 5.55723 7.83981C6.12036 7.83981 6.66042 7.61611 7.05862 7.21792C7.45681 6.81973 7.68051 6.27966 7.68051 5.71653C7.68051 5.1534 7.45681 4.61334 7.05862 4.21515C6.66042 3.81696 6.12036 3.59326 5.55723 3.59326Z" fill="#0C191F"/>
<path fill-rule="evenodd" clip-rule="evenodd" d="M0.0197535 4.96978C0.131422 3.61532 0.748349 2.35239 1.74804 1.43172C2.74774 0.511061 4.0571 -4.13913e-06 5.41615 0H5.69838C7.05743 -4.13913e-06 8.36678 0.511061 9.36648 1.43172C10.3662 2.35239 10.9831 3.61532 11.0948 4.96978C11.219 6.47847 10.7529 7.97651 9.79467 9.14839L6.66333 12.9775C6.52932 13.1413 6.36057 13.2734 6.16928 13.3641C5.978 13.4547 5.76895 13.5018 5.55726 13.5018C5.34557 13.5018 5.13653 13.4547 4.94524 13.3641C4.75395 13.2734 4.58521 13.1413 4.4512 12.9775L1.31985 9.14839C0.361514 7.97654 -0.104582 6.47848 0.0197535 4.96978ZM5.41615 0.979974C4.30321 0.980143 3.23102 1.39877 2.41241 2.15276C1.59379 2.90674 1.0886 3.94096 0.997115 5.05013C0.893629 6.30572 1.28149 7.55246 2.07901 8.52774L5.21035 12.3575C5.25244 12.409 5.30547 12.4505 5.36558 12.479C5.42569 12.5075 5.49139 12.5223 5.55792 12.5223C5.62444 12.5223 5.69014 12.5075 5.75025 12.479C5.81036 12.4505 5.86339 12.409 5.90548 12.3575L9.03682 8.52774C9.83387 7.55226 10.2213 6.30554 10.1174 5.05013C10.0259 3.94085 9.52063 2.90654 8.70188 2.15253C7.88312 1.39853 6.81077 0.979979 5.69772 0.979974H5.41549H5.41615Z" fill="#0C191F"/>
</svg>
