<svg width="157" height="60" viewBox="0 0 157 60" fill="none" xmlns="http://www.w3.org/2000/svg">
<path d="M30.3243 3.25037C27.7411 6.11385 24.1495 9.58964 23.9272 13.6503C23.6195 19.3072 27.9452 24.3031 31.0767 28.5679C34.6713 33.4632 38.406 38.2672 41.8727 43.2539C43.4446 45.5112 45.3119 47.9147 45.5373 50.7507C45.6196 51.8017 45.4642 52.8709 45.1322 53.8671C44.922 54.4976 44.6174 55.0368 44.3371 55.6369C44.2244 55.8289 44.1087 56.0208 43.9959 56.2096C42.9084 57.6536 42.4393 58.3238 41.303 59.4996C43.8345 56.8768 47.0757 53.5594 48.2363 50.0318C50.0763 44.4389 44.8733 39.1963 41.8179 35.0564C38.0984 30.0179 34.2266 25.0647 30.699 19.886C29.1515 17.6135 27.7746 15.1217 27.2415 12.3983C26.9826 11.0701 26.9216 9.68103 27.2232 8.34981C27.3816 7.64917 27.6649 7.08866 27.936 6.43371C28.7829 5.20302 29.5445 4.1155 30.3243 3.25037Z" fill="white"/>
<path d="M35.0703 0C33.3461 1.7516 30.8421 4.22212 30.3943 6.71701C29.6906 10.6406 32.4261 14.945 34.3727 18.1161C38.6557 25.0982 47.6239 32.5828 42.561 41.5541C43.5968 40.2746 44.6325 38.9983 45.6652 37.7188C45.2783 38.0295 44.9706 38.0478 44.6934 37.6092C44.9554 38.0234 41.2877 40.9692 41.5893 41.4444C42.3752 42.6842 45.5464 38.0509 46.0063 37.1157C48.1418 32.7747 47.0147 27.8032 44.4162 23.9863C41.7812 20.1175 38.7471 16.6235 36.4411 12.5171C34.5524 9.15707 31.8138 4.16119 34.5646 0.536142C33.5471 1.7912 32.5266 3.04322 31.5092 4.29828C31.6615 4.14292 31.8138 3.9906 31.9661 3.83524C33.1176 2.66853 33.9249 1.16367 35.0703 0Z" fill="white"/>
<path d="M42.6922 40.7407C42.3936 41.2738 42.0951 41.8069 41.7661 42.3217C40.8949 43.5646 40.9375 43.5402 41.8941 42.2486C42.8201 41.1519 42.9237 40.957 42.2048 41.6668C41.1995 42.2973 40.3587 43.0498 39.2651 43.5615C36.4199 44.8958 33.2366 45.3436 30.1263 45.5111C25.7489 45.7457 19.7325 45.1456 16.9817 41.2738C15.4738 39.1505 15.2575 36.5186 16.1592 34.1029C16.2719 33.7678 16.4151 33.4449 16.5796 33.1342C14.6422 35.2696 14.1121 35.8636 14.9956 34.9162C15.5713 34.3375 16.1014 33.7099 16.7015 33.1525C17.661 32.2599 18.712 31.4252 19.9884 31.0505C25.8098 29.3385 29.3983 36.6953 26.4891 41.1611C27.5035 39.903 28.5179 38.6479 29.5354 37.3898C26.2545 41.1702 22.2761 36.9085 21.2587 33.5454C20.5245 31.1145 21.2282 27.4133 18.9405 25.7561C18.8399 25.683 15.8759 29.6218 15.8363 29.5914C18.121 31.2455 17.4204 34.9558 18.1545 37.3807C19.1019 40.5092 22.6813 44.7861 26.084 41.6333C27.668 40.165 29.8004 37.7401 30.4401 35.626C31.5581 31.9248 29.3404 27.6083 25.3589 27.0599C21.8192 26.5725 19.1598 29.762 17.1127 32.202C15.2514 34.4197 13.0673 36.6557 12.5982 39.6319C11.206 48.463 22.4498 49.8003 28.6702 49.2215C32.8284 48.8346 37.0657 47.7258 40.0206 44.6034C42.1956 42.3065 44.258 39.6654 45.7994 36.8994C45.0134 38.3159 43.4842 39.3211 42.6922 40.7407Z" fill="white"/>
<path d="M4.34571 36.3693C2.32299 39.1901 0.123588 42.2364 0.00478347 45.8432C-0.117067 49.4926 2.09757 52.3713 5.67083 53.1268C12.1015 54.4884 17.7614 49.1057 21.7368 44.8135C22.8792 43.5798 24.2256 41.5753 25.1243 40.6066C21.1915 44.8531 15.5407 50.1171 9.19536 48.7737C5.93281 48.0822 3.66335 45.5599 3.52931 42.1907C3.377 38.3798 5.63428 35.1355 7.75448 32.1807C6.98073 33.2682 5.33574 34.9924 4.34571 36.3693Z" fill="white"/>
<path d="M5.56445 41.4535C6.93223 41.7764 8.06543 42.6324 8.75389 43.857C8.69906 43.7595 10.1887 42.1237 10.3258 41.9561C10.6913 41.5053 11.0569 41.0514 11.4194 40.5945C11.4712 40.5274 11.8885 40.0705 11.8611 40.0218C11.1726 38.7972 10.0394 37.9442 8.67164 37.6183C8.63204 37.6091 8.14768 38.2367 8.20252 38.1696C7.83087 38.6174 7.46532 39.0683 7.09977 39.5222C6.73422 39.973 6.36867 40.4269 6.00616 40.8839C5.95742 40.9448 5.59796 41.4626 5.56445 41.4535Z" fill="white"/>
<path d="M20.0249 24.6839C21.1185 24.9428 22.0263 25.6251 22.5777 26.606C22.532 26.5268 23.7261 25.22 23.8358 25.0829C24.1282 24.7204 24.4207 24.3579 24.7101 23.9954C24.7527 23.9406 25.0847 23.575 25.0634 23.5385C24.512 22.5576 23.6043 21.8752 22.5107 21.6163C22.4802 21.6102 22.0903 22.1098 22.136 22.058C21.8405 22.4174 21.545 22.7769 21.2525 23.1394C20.9601 23.5019 20.6677 23.8644 20.3783 24.2269C20.3356 24.2787 20.0493 24.693 20.0249 24.6839Z" fill="white"/>
<path d="M82.6527 43.193C82.8903 40.6615 83.0975 38.127 83.3716 35.5987C83.5361 34.0847 83.5026 33.9415 82.1074 33.3079C81.4982 33.0307 80.8676 32.793 80.2705 32.4915C79.4633 32.0894 79.448 31.8914 80.1456 31.2699C80.3954 31.0475 80.6787 30.8587 80.9681 30.6942C81.5134 30.3895 82.0496 30.0392 82.6344 29.8382C83.9809 29.3782 84.1667 28.2754 84.2611 27.1087C84.2916 26.7249 84.0723 26.8071 83.8133 26.9016C82.8263 27.2641 81.8363 27.6296 80.831 27.9434C79.509 28.3577 78.1747 28.7232 76.8435 29.1071C76.6607 29.1619 76.4779 29.2381 76.2921 29.2655C75.0645 29.43 74.3425 28.7507 74.4552 27.5139C74.504 26.993 74.6441 26.4812 74.7141 25.9603C74.7416 25.7653 74.6776 25.5734 74.4034 25.7288C74.3608 25.7531 74.3242 25.7836 74.2816 25.808C73.6571 26.1644 73.0357 26.5208 72.4112 26.8742C72.2132 27.9068 71.9756 28.9334 71.8263 29.9722C71.3754 33.0672 71.0251 36.1714 71.2109 39.312C71.217 39.4248 71.1196 39.5436 71.0708 39.6563C70.9612 39.5679 70.7845 39.4979 70.754 39.3882C70.6078 38.8368 70.4128 38.2763 70.3915 37.7128C70.2971 35.4006 70.5804 33.1129 70.8819 30.8252C71.0129 29.826 71.1196 28.8268 71.2262 27.8246C71.2658 27.4529 71.1713 27.3189 70.7571 27.5139C68.4602 28.6014 66.1237 29.5853 63.6836 30.3073C62.6753 30.6058 61.6792 30.8952 60.5917 30.4901C59.6291 30.1337 59.1234 29.6615 59.0594 28.6684C59.0381 28.3333 59.0685 27.9921 59.0655 27.654C59.0625 27.3402 58.8858 27.2032 58.6055 27.3402C57.7861 27.7393 56.9971 28.2115 56.1563 28.5648C55.5928 28.8024 54.9744 28.973 54.3682 29.0218C53.7102 29.0736 53.4116 28.5862 53.6431 27.9586C53.7741 27.6022 53.9234 27.2092 54.1762 26.9442C55.1724 25.9024 56.1807 24.8789 57.649 24.4737C58.3344 24.2848 58.8949 24.3854 59.3092 24.9489C59.4554 25.1469 59.4493 25.4546 59.5133 25.7135C59.3275 25.5765 59.1325 25.4516 58.9589 25.3023C58.7395 25.1134 58.5659 24.9459 58.2065 25.0616C56.6894 25.5521 55.4648 26.4416 54.5144 27.7058C54.4169 27.8368 54.4535 28.0652 54.4291 28.248C54.5997 28.2693 54.8038 28.3607 54.9409 28.3029C56.0375 27.8215 57.1159 27.2945 58.2156 26.8132C58.6482 26.6213 59.1051 26.4507 59.5681 26.3715C60.089 26.2832 60.2779 26.5391 60.1682 27.0447C60.0799 27.4621 59.9306 27.8794 59.9093 28.2998C59.8575 29.2807 60.2261 29.7468 61.204 29.8321C61.7645 29.8808 62.3555 29.7955 62.9099 29.6767C65.5479 29.104 67.988 27.9799 70.4707 26.9625C71.1439 26.6883 71.4455 26.2893 71.5856 25.4942C72.1401 22.3444 72.8681 19.225 73.4804 16.0843C74.0683 13.0776 74.8482 10.1228 75.8626 7.2349C76.0667 6.65307 76.3683 6.10169 76.6668 5.55641C76.7369 5.42542 76.9745 5.38582 77.1359 5.30357C77.209 5.46807 77.3522 5.63866 77.3431 5.80011C77.3187 6.22354 77.34 6.7079 77.142 7.05517C75.9814 9.09008 75.5732 11.3687 75.0462 13.5894C74.1932 17.1657 73.4956 20.7786 72.7402 24.3793C72.6914 24.6138 72.6914 24.8606 72.6792 25.1012C72.6366 25.875 72.7188 25.9268 73.4621 25.5673C74.0257 25.2962 74.5618 24.9642 75.1437 24.7448C75.4178 24.6412 75.7712 24.7479 76.088 24.757C76.0484 25.0251 76.0423 25.3023 75.9662 25.5582C75.7651 26.2466 75.4879 26.9138 75.3325 27.6114C75.165 28.3729 75.4849 28.641 76.2586 28.5374C78.2204 28.2724 80.0512 27.5657 81.885 26.865C82.5552 26.6091 83.2224 26.335 83.9017 26.1035C84.249 25.9846 84.4987 25.8293 84.5658 25.4394C84.8521 23.7426 85.1537 22.0458 85.44 20.3491C86.1407 16.2031 86.7256 12.0328 88.072 8.02693C88.3279 7.26232 88.6965 6.52817 89.0712 5.8123C89.2174 5.53204 89.4885 5.28834 89.7596 5.11166C90.1922 4.82835 90.6187 4.96544 90.8624 5.39191C91.0878 5.78183 90.9934 6.09865 90.509 6.37281C89.9698 6.67744 89.6804 7.16484 89.5037 7.70707C89.0042 9.25153 88.4193 10.7838 88.0994 12.3679C87.344 16.1148 86.7256 19.8921 86.0523 23.6543C86.0341 23.7487 86.0371 23.8462 86.031 23.9437C85.9975 24.3519 85.961 24.7631 85.9274 25.1713C86.3326 25.0677 86.7347 24.9459 87.1429 24.8636C87.4993 24.7905 87.8679 24.7661 88.2304 24.7174C88.1908 25.2901 87.612 25.1804 87.3165 25.4363C87.2191 25.5216 87.0424 25.5094 86.9053 25.5582C85.967 25.8811 85.2634 26.3807 85.4126 27.5352C85.437 27.7149 85.3639 27.916 85.3091 28.0957C85.2055 28.4308 85.4431 28.4064 85.6015 28.3425C86.4849 27.9739 87.3592 27.5717 88.2396 27.194C91.3315 25.8658 94.6093 25.1743 97.8718 24.4341C98.0424 24.3945 98.2526 24.4493 98.4202 24.5194C98.5329 24.5681 98.6273 24.7113 98.6791 24.8332C98.7004 24.8819 98.606 25.0281 98.5329 25.0647C98.1887 25.2231 97.8444 25.4363 97.4819 25.4881C94.4265 25.9054 91.5143 26.8254 88.6599 27.9525C87.7247 28.3211 86.7987 28.7111 85.8635 29.0766C85.2694 29.3081 84.9679 29.7285 84.8948 30.353C84.8186 31.0171 84.715 31.6812 84.6115 32.3422C84.4713 33.2439 84.6023 33.975 85.3943 34.636C87.1764 36.1257 88.0324 38.1392 88.2304 40.427C88.27 40.89 88.1512 41.3713 88.0598 41.8374C87.6212 44.0825 86.8017 46.16 85.2603 47.8934C84.8491 48.3534 84.4134 48.9291 83.6854 48.6945C82.9482 48.4569 82.9604 47.6619 82.9116 47.1105C82.7928 45.8189 82.8751 44.5059 82.8751 43.2021C82.7867 43.2021 82.7197 43.196 82.6527 43.193ZM83.6336 44.6978C83.728 45.5051 83.789 46.3641 83.9382 47.2049C84.0509 47.8385 84.1637 47.8568 84.5749 47.4638C84.8186 47.2323 85.0654 46.9978 85.2634 46.7297C86.4849 45.0847 87.2495 43.2417 87.4445 41.2068C87.6882 38.6967 86.8078 36.6039 84.8826 34.962C84.581 34.7061 84.3342 34.8005 84.3099 35.1905C84.2611 36.0069 84.2733 36.8263 84.2093 37.6396C84.0357 39.9761 83.8316 42.3096 83.6336 44.6978ZM83.7219 31.3308C83.7219 31.142 83.725 30.9501 83.7219 30.7612C83.7158 30.1458 83.6245 30.0666 83.0822 30.3499C82.4121 30.7003 81.7632 31.0902 81.1204 31.4892C80.8737 31.6416 80.8463 31.8304 81.1844 31.9584C81.4494 32.0589 81.6992 32.2021 81.9551 32.327C83.6427 33.1495 83.6427 33.1495 83.7219 31.3308Z" fill="white"/>
<path d="M125.453 31.4832C125.541 29.8169 126.126 28.3151 127.019 26.9199C127.089 26.8072 127.104 26.661 127.144 26.53C127.013 26.4904 126.872 26.396 126.754 26.4203C125.587 26.6671 124.426 26.9534 123.257 27.188C122.83 27.2733 122.611 27.3921 122.547 27.8947C122.251 30.1337 121.155 31.9493 119.458 33.4206C118.937 33.8715 118.386 34.2279 117.661 34.2309C116.908 34.234 116.479 33.9872 116.204 33.2957C115.842 32.3788 115.732 31.4253 116.043 30.4779C116.354 29.5245 116.738 28.5984 117.094 27.6602C117.127 27.5749 117.17 27.4926 117.21 27.4104C117.079 27.4043 116.929 27.3555 116.82 27.4012C114.919 28.1902 113.024 28.9975 110.992 29.4026C110.526 29.497 110.045 29.5702 109.57 29.5702C108.848 29.5671 108.421 29.1559 108.351 28.4248C108.305 27.9465 108.348 27.4591 108.324 26.9778C108.293 26.4295 108.071 26.268 107.58 26.4934C106.749 26.8712 105.945 27.3037 105.122 27.6967C104.647 27.9221 104.169 28.1597 103.666 28.306C102.935 28.5192 102.408 28.0044 102.591 27.2824C102.789 26.4965 103.017 25.7166 103.273 24.949C103.316 24.818 103.565 24.687 103.721 24.687C103.818 24.687 104.013 24.9459 103.995 25.0617C103.898 25.6709 103.736 26.2741 103.614 26.8803C103.572 27.0875 103.581 27.3068 103.569 27.52C103.794 27.4865 104.035 27.4835 104.245 27.4073C104.513 27.3098 104.757 27.1453 105.015 27.0174C105.835 26.6153 106.642 26.1919 107.477 25.8233C108.519 25.3633 109.414 25.9603 109.423 27.0814C109.436 28.9761 109.463 28.9609 111.343 28.5436C113.417 28.0836 115.312 27.1636 117.277 26.4142C117.694 26.2558 117.868 26.1401 117.584 25.61C116.954 24.4281 117.374 23.1943 118.51 22.512C119.638 21.8357 120.914 22.0459 121.733 23.042C122.166 23.569 122.51 24.1295 122.565 24.8424C122.595 25.2201 122.733 25.5887 122.787 25.9664C122.827 26.2467 122.949 26.4416 123.235 26.396C124.365 26.2162 125.499 26.0274 126.62 25.7928C126.744 25.7654 126.879 25.4394 126.885 25.2506C126.909 24.5895 126.723 23.9163 127.204 23.3101C127.814 22.5394 128.6 22.0459 129.55 22.1403C130.61 22.2469 131.445 22.8775 131.798 23.9224C132.011 24.5469 132.069 25.2292 132.142 25.8903C132.182 26.2528 132.331 26.4386 132.676 26.402C133.34 26.335 134.007 26.2589 134.665 26.134C135.697 25.939 136.724 25.7045 137.751 25.4821C137.796 25.4729 137.845 25.4516 137.885 25.4242C138.25 25.1592 138.585 24.7632 138.99 24.6687C139.329 24.5895 139.725 25.1074 140.163 24.7236C140.209 24.684 140.395 24.8058 140.517 24.8545C140.453 24.9703 140.395 25.0922 140.322 25.2018C140.3 25.2323 140.233 25.2353 140.185 25.2384C138.908 25.3419 139.048 26.4416 138.795 27.252C138.78 27.3037 139.079 27.5505 139.149 27.52C139.849 27.2063 140.526 26.8377 141.22 26.5148C141.827 26.2315 142.436 25.9451 143.069 25.7258C143.895 25.4425 144.489 25.8324 144.574 26.6884C144.623 27.1667 144.596 27.6541 144.593 28.1354C144.589 28.5497 144.787 28.8086 145.202 28.7385C146.094 28.5893 147.017 28.5009 147.855 28.1902C150.368 27.258 152.845 26.2284 155.334 25.2384C155.69 25.0982 156.037 24.9277 156.403 24.8302C156.583 24.7814 156.799 24.8667 157 24.8911C156.869 25.0708 156.778 25.348 156.601 25.4211C153.153 26.8346 149.86 28.6441 146.158 29.4057C144.117 29.826 143.548 29.4118 143.478 27.3037C143.475 27.2063 143.484 27.1118 143.478 27.0143C143.438 26.4081 143.328 26.3137 142.783 26.5513C141.601 27.0692 140.44 27.6327 139.262 28.1597C139.009 28.2725 138.71 28.3852 138.451 28.3547C137.982 28.2999 137.76 27.8186 137.9 27.2916C137.973 27.0143 138.107 26.7493 138.137 26.4691C138.15 26.3533 137.979 26.1309 137.86 26.1066C137.632 26.0609 137.376 26.0913 137.144 26.1462C135.795 26.4508 134.448 26.7767 133.099 27.0844C132.514 27.2184 132.213 27.4165 132.054 28.1506C131.564 30.4597 130.485 32.4793 128.402 33.7923C126.882 34.7488 125.63 34.1274 125.465 32.3514C125.428 32.065 125.453 31.7726 125.453 31.4832ZM116.753 31.6386C116.753 31.9737 116.704 32.3179 116.762 32.6469C116.905 33.4724 117.42 33.7131 118.212 33.3628C119.93 32.6042 121.749 29.6951 121.685 27.7607C121.679 27.5809 121.505 27.2855 121.359 27.2489C120.533 27.0326 119.695 26.862 118.855 26.7219C118.718 26.6975 118.483 26.8559 118.398 26.993C117.533 28.4248 116.686 29.8748 116.753 31.6386ZM126.248 31.5106C126.272 31.9432 126.248 32.3849 126.333 32.8022C126.452 33.381 126.921 33.6369 127.494 33.3841C128.048 33.1373 128.654 32.8662 129.057 32.4367C130.22 31.1877 130.89 29.6585 131.232 27.9922C131.317 27.5749 131.25 27.2398 130.732 27.1514C129.937 27.0174 129.151 26.8438 128.353 26.731C128.219 26.7128 128 26.8773 127.908 27.0143C126.994 28.376 126.202 29.7895 126.248 31.5106ZM121.663 24.291C121.383 23.9681 121.112 23.5721 120.759 23.2735C119.866 22.512 118.486 22.9232 118.084 24.0381C117.953 24.4007 118.194 25.4668 118.413 25.4303C118.699 25.3846 118.955 25.1318 119.22 24.9612C119.339 24.885 119.443 24.7357 119.567 24.7205C119.79 24.69 120.201 24.4738 120.049 25.0465C120.04 25.0769 120.174 25.1957 120.204 25.1835C120.643 25.0069 121.078 24.821 121.508 24.62C121.569 24.5865 121.584 24.4616 121.663 24.291ZM129.245 22.8958C128.036 22.8806 127.247 23.8767 127.628 24.9429C127.853 25.5735 127.993 25.6374 128.49 25.1835C128.907 24.8028 129.236 24.6108 129.843 24.8911C130.141 25.0282 130.641 24.7327 131.043 24.6169C131.079 24.6048 131.11 24.4707 131.098 24.4007C130.954 23.6513 130.031 22.9049 129.245 22.8958ZM130.744 26.4173C131.399 26.4691 131.576 26.3716 131.341 25.5826C131.174 25.016 131.021 25.0434 130.61 25.2536C130.36 25.3815 130.062 25.4181 129.8 25.5339C129.507 25.6618 129.233 25.8354 128.953 25.9878C129.261 26.1157 129.559 26.2711 129.876 26.3594C130.105 26.4234 130.357 26.396 130.744 26.4173ZM120.719 26.402C121.103 26.402 121.353 26.4447 121.578 26.3868C121.718 26.3503 121.898 26.1766 121.919 26.0456C121.95 25.8263 121.892 25.5765 121.806 25.3663C121.791 25.3237 121.477 25.3694 121.319 25.4242C121.097 25.5034 120.877 25.61 120.679 25.741C120.454 25.8903 120.253 26.0822 120.04 26.2558C120.311 26.3137 120.585 26.3746 120.719 26.402Z" fill="white"/>
<path d="M77.6235 20.5226C77.5809 21.1228 77.3707 21.4304 76.9411 21.4853C76.5847 21.531 76.472 21.2537 76.4568 20.9369C76.4355 20.5165 76.5664 20.1175 76.999 20.084C77.2153 20.0657 77.462 20.3977 77.6235 20.5226Z" fill="white"/>
</svg>
