<svg width="450" height="206" viewBox="0 0 450 206" fill="none" xmlns="http://www.w3.org/2000/svg">
<path d="M54.95 202C54.818 202 54.7373 201.941 54.708 201.824L50.572 186.842L50.55 186.776C50.55 186.659 50.6233 186.6 50.77 186.6H52.552C52.684 186.6 52.7647 186.666 52.794 186.798L55.676 197.754C55.6907 197.783 55.7053 197.798 55.72 197.798C55.7493 197.798 55.7713 197.783 55.786 197.754L58.514 186.798C58.5433 186.666 58.624 186.6 58.756 186.6H60.494C60.626 186.6 60.7067 186.666 60.736 186.798L63.618 197.776C63.6327 197.805 63.6473 197.82 63.662 197.82C63.6767 197.82 63.6913 197.805 63.706 197.776L66.61 186.798C66.6393 186.666 66.72 186.6 66.852 186.6H68.524C68.5973 186.6 68.6487 186.622 68.678 186.666C68.722 186.71 68.7367 186.769 68.722 186.842L64.74 201.802C64.7107 201.934 64.63 202 64.498 202H62.804C62.672 202 62.5913 201.934 62.562 201.802L59.68 190.45C59.6653 190.406 59.6507 190.384 59.636 190.384C59.6213 190.384 59.6067 190.406 59.592 190.45L56.798 201.802C56.7833 201.934 56.7027 202 56.556 202H54.95ZM79.6765 186.82C79.6765 186.673 79.7498 186.6 79.8965 186.6H81.5685C81.7151 186.6 81.7885 186.673 81.7885 186.82V201.78C81.7885 201.927 81.7151 202 81.5685 202H79.8965C79.7498 202 79.6765 201.927 79.6765 201.78V195.246C79.6765 195.187 79.6471 195.158 79.5885 195.158H73.3185C73.2598 195.158 73.2305 195.187 73.2305 195.246V201.78C73.2305 201.927 73.1571 202 73.0105 202H71.3385C71.1918 202 71.1185 201.927 71.1185 201.78V186.82C71.1185 186.673 71.1918 186.6 71.3385 186.6H73.0105C73.1571 186.6 73.2305 186.673 73.2305 186.82V193.244C73.2305 193.303 73.2598 193.332 73.3185 193.332H79.5885C79.6471 193.332 79.6765 193.303 79.6765 193.244V186.82ZM95.5281 188.206C95.5281 188.353 95.4548 188.426 95.3081 188.426H87.4981C87.4395 188.426 87.4101 188.455 87.4101 188.514V193.244C87.4101 193.303 87.4395 193.332 87.4981 193.332H92.8661C93.0128 193.332 93.0861 193.405 93.0861 193.552V194.938C93.0861 195.085 93.0128 195.158 92.8661 195.158H87.4981C87.4395 195.158 87.4101 195.187 87.4101 195.246V200.086C87.4101 200.145 87.4395 200.174 87.4981 200.174H95.3081C95.4548 200.174 95.5281 200.247 95.5281 200.394V201.78C95.5281 201.927 95.4548 202 95.3081 202H85.5181C85.3715 202 85.2981 201.927 85.2981 201.78V186.82C85.2981 186.673 85.3715 186.6 85.5181 186.6H95.3081C95.4548 186.6 95.5281 186.673 95.5281 186.82V188.206ZM107.225 202C107.107 202 107.027 201.949 106.983 201.846L103.903 195.268C103.888 195.224 103.859 195.202 103.815 195.202H100.647C100.588 195.202 100.559 195.231 100.559 195.29V201.78C100.559 201.927 100.485 202 100.339 202H98.6666C98.5199 202 98.4466 201.927 98.4466 201.78V186.82C98.4466 186.673 98.5199 186.6 98.6666 186.6H104.585C105.465 186.6 106.235 186.783 106.895 187.15C107.569 187.517 108.09 188.03 108.457 188.69C108.823 189.35 109.007 190.113 109.007 190.978C109.007 192.005 108.735 192.877 108.193 193.596C107.665 194.3 106.924 194.777 105.971 195.026C105.912 195.055 105.897 195.092 105.927 195.136L109.117 201.736C109.131 201.765 109.139 201.802 109.139 201.846C109.139 201.949 109.08 202 108.963 202H107.225ZM100.647 188.426C100.588 188.426 100.559 188.455 100.559 188.514V193.442C100.559 193.501 100.588 193.53 100.647 193.53H104.321C105.098 193.53 105.721 193.303 106.191 192.848C106.66 192.379 106.895 191.763 106.895 191C106.895 190.223 106.66 189.599 106.191 189.13C105.721 188.661 105.098 188.426 104.321 188.426H100.647ZM122.169 188.206C122.169 188.353 122.095 188.426 121.949 188.426H114.139C114.08 188.426 114.051 188.455 114.051 188.514V193.244C114.051 193.303 114.08 193.332 114.139 193.332H119.507C119.653 193.332 119.727 193.405 119.727 193.552V194.938C119.727 195.085 119.653 195.158 119.507 195.158H114.139C114.08 195.158 114.051 195.187 114.051 195.246V200.086C114.051 200.145 114.08 200.174 114.139 200.174H121.949C122.095 200.174 122.169 200.247 122.169 200.394V201.78C122.169 201.927 122.095 202 121.949 202H112.159C112.012 202 111.939 201.927 111.939 201.78V186.82C111.939 186.673 112.012 186.6 112.159 186.6H121.949C122.095 186.6 122.169 186.673 122.169 186.82V188.206ZM133.276 201.978C133.129 201.978 133.056 201.905 133.056 201.758V195.576C133.056 195.517 133.048 195.481 133.034 195.466L128.458 186.864C128.443 186.835 128.436 186.798 128.436 186.754C128.436 186.651 128.494 186.6 128.612 186.6H130.416C130.548 186.6 130.636 186.651 130.68 186.754L134.046 193.2C134.06 193.229 134.082 193.244 134.112 193.244C134.141 193.244 134.163 193.229 134.178 193.2L137.544 186.754C137.588 186.651 137.676 186.6 137.808 186.6H139.634C139.707 186.6 139.758 186.629 139.788 186.688C139.832 186.732 139.832 186.791 139.788 186.864L135.19 195.466C135.175 195.481 135.168 195.517 135.168 195.576V201.758C135.168 201.905 135.094 201.978 134.948 201.978H133.276ZM146.732 202.198C145.661 202.198 144.715 201.978 143.894 201.538C143.073 201.098 142.435 200.482 141.98 199.69C141.525 198.883 141.298 197.959 141.298 196.918V191.682C141.298 190.641 141.525 189.724 141.98 188.932C142.435 188.14 143.073 187.524 143.894 187.084C144.715 186.644 145.661 186.424 146.732 186.424C147.817 186.424 148.771 186.644 149.592 187.084C150.413 187.524 151.051 188.14 151.506 188.932C151.961 189.724 152.188 190.641 152.188 191.682V196.918C152.188 197.959 151.961 198.883 151.506 199.69C151.051 200.482 150.413 201.098 149.592 201.538C148.771 201.978 147.817 202.198 146.732 202.198ZM146.732 200.372C147.729 200.372 148.536 200.064 149.152 199.448C149.768 198.832 150.076 198.018 150.076 197.006V191.66C150.076 190.633 149.768 189.812 149.152 189.196C148.536 188.565 147.729 188.25 146.732 188.25C145.735 188.25 144.928 188.565 144.312 189.196C143.711 189.812 143.41 190.633 143.41 191.66V197.006C143.41 198.018 143.711 198.832 144.312 199.448C144.928 200.064 145.735 200.372 146.732 200.372ZM160.66 202.176C159.589 202.176 158.643 201.971 157.822 201.56C157.015 201.135 156.384 200.541 155.93 199.778C155.475 199.001 155.248 198.113 155.248 197.116V186.82C155.248 186.673 155.321 186.6 155.468 186.6H157.14C157.286 186.6 157.36 186.673 157.36 186.82V197.16C157.36 198.113 157.66 198.883 158.262 199.47C158.878 200.057 159.677 200.35 160.66 200.35C161.642 200.35 162.434 200.057 163.036 199.47C163.637 198.883 163.938 198.113 163.938 197.16V186.82C163.938 186.673 164.011 186.6 164.158 186.6H165.83C165.976 186.6 166.05 186.673 166.05 186.82V197.116C166.05 198.113 165.822 199.001 165.368 199.778C164.928 200.541 164.297 201.135 163.476 201.56C162.669 201.971 161.73 202.176 160.66 202.176ZM184.108 188.206C184.108 188.353 184.034 188.426 183.888 188.426H176.1C176.041 188.426 176.012 188.455 176.012 188.514V193.244C176.012 193.303 176.041 193.332 176.1 193.332H181.446C181.592 193.332 181.666 193.405 181.666 193.552V194.938C181.666 195.085 181.592 195.158 181.446 195.158H176.1C176.041 195.158 176.012 195.187 176.012 195.246V201.78C176.012 201.927 175.938 202 175.792 202H174.12C173.973 202 173.9 201.927 173.9 201.78V186.82C173.9 186.673 173.973 186.6 174.12 186.6H183.888C184.034 186.6 184.108 186.673 184.108 186.82V188.206ZM186.559 202C186.412 202 186.339 201.927 186.339 201.78V186.82C186.339 186.673 186.412 186.6 186.559 186.6H188.231C188.378 186.6 188.451 186.673 188.451 186.82V201.78C188.451 201.927 188.378 202 188.231 202H186.559ZM201.118 186.82C201.118 186.673 201.191 186.6 201.338 186.6H203.01C203.157 186.6 203.23 186.673 203.23 186.82V201.78C203.23 201.927 203.157 202 203.01 202H201.404C201.301 202 201.213 201.949 201.14 201.846L194.254 190.604C194.239 190.56 194.217 190.545 194.188 190.56C194.159 190.56 194.144 190.582 194.144 190.626L194.166 201.78C194.166 201.927 194.093 202 193.946 202H192.274C192.127 202 192.054 201.927 192.054 201.78V186.82C192.054 186.673 192.127 186.6 192.274 186.6H193.902C194.005 186.6 194.093 186.651 194.166 186.754L201.03 197.996C201.045 198.04 201.067 198.062 201.096 198.062C201.125 198.047 201.14 198.018 201.14 197.974L201.118 186.82ZM206.84 202C206.694 202 206.62 201.927 206.62 201.78V186.82C206.62 186.673 206.694 186.6 206.84 186.6H212.164C213.69 186.6 214.907 187.003 215.816 187.81C216.726 188.602 217.18 189.665 217.18 191V197.6C217.18 198.935 216.726 200.005 215.816 200.812C214.907 201.604 213.69 202 212.164 202H206.84ZM208.732 200.086C208.732 200.145 208.762 200.174 208.82 200.174H212.252C213.103 200.174 213.778 199.917 214.276 199.404C214.79 198.876 215.054 198.172 215.068 197.292V191.308C215.068 190.428 214.812 189.731 214.298 189.218C213.8 188.69 213.118 188.426 212.252 188.426H208.82C208.762 188.426 208.732 188.455 208.732 188.514V200.086ZM230.652 186.578C231.547 186.578 232.332 186.769 233.006 187.15C233.696 187.517 234.224 188.037 234.59 188.712C234.972 189.387 235.162 190.164 235.162 191.044C235.162 191.924 234.972 192.694 234.59 193.354C234.209 194.014 233.666 194.527 232.962 194.894C232.273 195.261 231.474 195.444 230.564 195.444H226.692C226.634 195.444 226.604 195.473 226.604 195.532V201.78C226.604 201.927 226.531 202 226.384 202H224.712C224.566 202 224.492 201.927 224.492 201.78V186.798C224.492 186.651 224.566 186.578 224.712 186.578H230.652ZM230.366 193.728C231.173 193.728 231.818 193.486 232.302 193.002C232.801 192.518 233.05 191.88 233.05 191.088C233.05 190.281 232.801 189.636 232.302 189.152C231.818 188.653 231.173 188.404 230.366 188.404H226.692C226.634 188.404 226.604 188.433 226.604 188.492V193.64C226.604 193.699 226.634 193.728 226.692 193.728H230.366ZM247.895 188.206C247.895 188.353 247.822 188.426 247.675 188.426H239.865C239.807 188.426 239.777 188.455 239.777 188.514V193.244C239.777 193.303 239.807 193.332 239.865 193.332H245.233C245.38 193.332 245.453 193.405 245.453 193.552V194.938C245.453 195.085 245.38 195.158 245.233 195.158H239.865C239.807 195.158 239.777 195.187 239.777 195.246V200.086C239.777 200.145 239.807 200.174 239.865 200.174H247.675C247.822 200.174 247.895 200.247 247.895 200.394V201.78C247.895 201.927 247.822 202 247.675 202H237.885C237.739 202 237.665 201.927 237.665 201.78V186.82C237.665 186.673 237.739 186.6 237.885 186.6H247.675C247.822 186.6 247.895 186.673 247.895 186.82V188.206ZM260.164 202C260.032 202 259.944 201.941 259.9 201.824L259.108 199.25C259.093 199.206 259.064 199.184 259.02 199.184H252.838C252.794 199.184 252.764 199.206 252.75 199.25L251.958 201.824C251.914 201.941 251.826 202 251.694 202H249.912C249.75 202 249.692 201.919 249.736 201.758L254.554 186.776C254.598 186.659 254.686 186.6 254.818 186.6H257.018C257.15 186.6 257.238 186.659 257.282 186.776L262.144 201.758L262.166 201.846C262.166 201.949 262.1 202 261.968 202H260.164ZM253.3 197.402C253.285 197.431 253.285 197.461 253.3 197.49C253.329 197.505 253.358 197.512 253.388 197.512H258.448C258.477 197.512 258.499 197.505 258.514 197.49C258.543 197.461 258.55 197.431 258.536 197.402L255.984 189.24C255.969 189.211 255.947 189.196 255.918 189.196C255.888 189.196 255.866 189.211 255.852 189.24L253.3 197.402ZM269.299 202.198C268.243 202.198 267.304 201.993 266.483 201.582C265.676 201.157 265.046 200.563 264.591 199.8C264.151 199.023 263.931 198.135 263.931 197.138V191.44C263.931 190.443 264.151 189.57 264.591 188.822C265.046 188.059 265.676 187.473 266.483 187.062C267.304 186.637 268.243 186.424 269.299 186.424C270.355 186.424 271.286 186.629 272.093 187.04C272.9 187.436 273.523 188.001 273.963 188.734C274.418 189.467 274.645 190.318 274.645 191.286V191.308C274.645 191.381 274.623 191.44 274.579 191.484C274.535 191.528 274.484 191.55 274.425 191.55L272.753 191.638C272.606 191.638 272.533 191.572 272.533 191.44V191.374C272.533 190.435 272.24 189.68 271.653 189.108C271.066 188.536 270.282 188.25 269.299 188.25C268.316 188.25 267.524 188.536 266.923 189.108C266.336 189.68 266.043 190.435 266.043 191.374V197.226C266.043 198.165 266.336 198.92 266.923 199.492C267.524 200.064 268.316 200.35 269.299 200.35C270.282 200.35 271.066 200.064 271.653 199.492C272.24 198.92 272.533 198.165 272.533 197.226V197.182C272.533 197.05 272.606 196.984 272.753 196.984L274.425 197.072C274.572 197.072 274.645 197.145 274.645 197.292C274.645 198.26 274.418 199.118 273.963 199.866C273.523 200.599 272.9 201.171 272.093 201.582C271.286 201.993 270.355 202.198 269.299 202.198ZM287.942 188.206C287.942 188.353 287.869 188.426 287.722 188.426H279.912C279.854 188.426 279.824 188.455 279.824 188.514V193.244C279.824 193.303 279.854 193.332 279.912 193.332H285.28C285.427 193.332 285.5 193.405 285.5 193.552V194.938C285.5 195.085 285.427 195.158 285.28 195.158H279.912C279.854 195.158 279.824 195.187 279.824 195.246V200.086C279.824 200.145 279.854 200.174 279.912 200.174H287.722C287.869 200.174 287.942 200.247 287.942 200.394V201.78C287.942 201.927 287.869 202 287.722 202H277.932C277.786 202 277.712 201.927 277.712 201.78V186.82C277.712 186.673 277.786 186.6 277.932 186.6H287.722C287.869 186.6 287.942 186.673 287.942 186.82V188.206ZM290.531 203.892C290.457 203.892 290.399 203.87 290.355 203.826C290.325 203.782 290.318 203.723 290.333 203.65L291.213 198.766C291.242 198.634 291.323 198.568 291.455 198.568H292.907C292.98 198.568 293.031 198.59 293.061 198.634C293.105 198.678 293.119 198.737 293.105 198.81L291.807 203.694C291.777 203.826 291.697 203.892 291.565 203.892H290.531ZM304.85 201.978C304.703 201.978 304.63 201.905 304.63 201.758V195.576C304.63 195.517 304.622 195.481 304.608 195.466L300.032 186.864C300.017 186.835 300.01 186.798 300.01 186.754C300.01 186.651 300.068 186.6 300.186 186.6H301.99C302.122 186.6 302.21 186.651 302.254 186.754L305.62 193.2C305.634 193.229 305.656 193.244 305.686 193.244C305.715 193.244 305.737 193.229 305.752 193.2L309.118 186.754C309.162 186.651 309.25 186.6 309.382 186.6H311.208C311.281 186.6 311.332 186.629 311.362 186.688C311.406 186.732 311.406 186.791 311.362 186.864L306.764 195.466C306.749 195.481 306.742 195.517 306.742 195.576V201.758C306.742 201.905 306.668 201.978 306.522 201.978H304.85ZM323.929 188.206C323.929 188.353 323.855 188.426 323.709 188.426H315.899C315.84 188.426 315.811 188.455 315.811 188.514V193.244C315.811 193.303 315.84 193.332 315.899 193.332H321.267C321.413 193.332 321.487 193.405 321.487 193.552V194.938C321.487 195.085 321.413 195.158 321.267 195.158H315.899C315.84 195.158 315.811 195.187 315.811 195.246V200.086C315.811 200.145 315.84 200.174 315.899 200.174H323.709C323.855 200.174 323.929 200.247 323.929 200.394V201.78C323.929 201.927 323.855 202 323.709 202H313.919C313.772 202 313.699 201.927 313.699 201.78V186.82C313.699 186.673 313.772 186.6 313.919 186.6H323.709C323.855 186.6 323.929 186.673 323.929 186.82V188.206ZM331.599 202.176C330.47 202.176 329.487 202 328.651 201.648C327.83 201.296 327.192 200.797 326.737 200.152C326.297 199.507 326.077 198.751 326.077 197.886V197.248C326.077 197.101 326.15 197.028 326.297 197.028H327.903C328.05 197.028 328.123 197.101 328.123 197.248V197.776C328.123 198.524 328.446 199.14 329.091 199.624C329.736 200.108 330.624 200.35 331.753 200.35C332.765 200.35 333.528 200.137 334.041 199.712C334.554 199.287 334.811 198.729 334.811 198.04C334.811 197.585 334.679 197.197 334.415 196.874C334.151 196.551 333.762 196.258 333.249 195.994C332.75 195.715 332.017 195.385 331.049 195.004C329.978 194.593 329.128 194.219 328.497 193.882C327.881 193.545 327.368 193.105 326.957 192.562C326.546 192.005 326.341 191.308 326.341 190.472C326.341 189.211 326.788 188.221 327.683 187.502C328.592 186.783 329.817 186.424 331.357 186.424C332.442 186.424 333.396 186.607 334.217 186.974C335.038 187.341 335.669 187.854 336.109 188.514C336.564 189.174 336.791 189.937 336.791 190.802V191.242C336.791 191.389 336.718 191.462 336.571 191.462H334.921C334.774 191.462 334.701 191.389 334.701 191.242V190.912C334.701 190.149 334.393 189.519 333.777 189.02C333.176 188.507 332.34 188.25 331.269 188.25C330.36 188.25 329.656 188.441 329.157 188.822C328.658 189.189 328.409 189.724 328.409 190.428C328.409 190.912 328.534 191.308 328.783 191.616C329.032 191.924 329.399 192.203 329.883 192.452C330.382 192.687 331.137 192.995 332.149 193.376C333.19 193.787 334.034 194.168 334.679 194.52C335.324 194.857 335.86 195.312 336.285 195.884C336.71 196.441 336.923 197.138 336.923 197.974C336.923 199.265 336.446 200.291 335.493 201.054C334.554 201.802 333.256 202.176 331.599 202.176ZM352.743 186.82C352.743 186.673 352.816 186.6 352.963 186.6H354.635C354.782 186.6 354.855 186.673 354.855 186.82V201.78C354.855 201.927 354.782 202 354.635 202H352.963C352.816 202 352.743 201.927 352.743 201.78V195.246C352.743 195.187 352.714 195.158 352.655 195.158H346.385C346.326 195.158 346.297 195.187 346.297 195.246V201.78C346.297 201.927 346.224 202 346.077 202H344.405C344.258 202 344.185 201.927 344.185 201.78V186.82C344.185 186.673 344.258 186.6 344.405 186.6H346.077C346.224 186.6 346.297 186.673 346.297 186.82V193.244C346.297 193.303 346.326 193.332 346.385 193.332H352.655C352.714 193.332 352.743 193.303 352.743 193.244V186.82ZM363.381 202.198C362.31 202.198 361.364 201.978 360.543 201.538C359.721 201.098 359.083 200.482 358.629 199.69C358.174 198.883 357.947 197.959 357.947 196.918V191.682C357.947 190.641 358.174 189.724 358.629 188.932C359.083 188.14 359.721 187.524 360.543 187.084C361.364 186.644 362.31 186.424 363.381 186.424C364.466 186.424 365.419 186.644 366.241 187.084C367.062 187.524 367.7 188.14 368.155 188.932C368.609 189.724 368.837 190.641 368.837 191.682V196.918C368.837 197.959 368.609 198.883 368.155 199.69C367.7 200.482 367.062 201.098 366.241 201.538C365.419 201.978 364.466 202.198 363.381 202.198ZM363.381 200.372C364.378 200.372 365.185 200.064 365.801 199.448C366.417 198.832 366.725 198.018 366.725 197.006V191.66C366.725 190.633 366.417 189.812 365.801 189.196C365.185 188.565 364.378 188.25 363.381 188.25C362.383 188.25 361.577 188.565 360.961 189.196C360.359 189.812 360.059 190.633 360.059 191.66V197.006C360.059 198.018 360.359 198.832 360.961 199.448C361.577 200.064 362.383 200.372 363.381 200.372ZM382.016 186.732C382.089 186.644 382.177 186.6 382.28 186.6H383.952C384.099 186.6 384.172 186.673 384.172 186.82V201.78C384.172 201.927 384.099 202 383.952 202H382.28C382.133 202 382.06 201.927 382.06 201.78V190.516C382.06 190.472 382.045 190.443 382.016 190.428C381.987 190.413 381.965 190.428 381.95 190.472L378.804 195.268C378.745 195.356 378.657 195.4 378.54 195.4H377.704C377.601 195.4 377.513 195.356 377.44 195.268L374.272 190.516C374.257 190.472 374.235 190.457 374.206 190.472C374.177 190.487 374.162 190.516 374.162 190.56V201.78C374.162 201.927 374.089 202 373.942 202H372.27C372.123 202 372.05 201.927 372.05 201.78V186.82C372.05 186.673 372.123 186.6 372.27 186.6H373.942C374.059 186.6 374.147 186.644 374.206 186.732L378.056 192.496C378.071 192.511 378.093 192.518 378.122 192.518C378.151 192.518 378.173 192.511 378.188 192.496L382.016 186.732ZM398.007 188.206C398.007 188.353 397.933 188.426 397.787 188.426H389.977C389.918 188.426 389.889 188.455 389.889 188.514V193.244C389.889 193.303 389.918 193.332 389.977 193.332H395.345C395.491 193.332 395.565 193.405 395.565 193.552V194.938C395.565 195.085 395.491 195.158 395.345 195.158H389.977C389.918 195.158 389.889 195.187 389.889 195.246V200.086C389.889 200.145 389.918 200.174 389.977 200.174H397.787C397.933 200.174 398.007 200.247 398.007 200.394V201.78C398.007 201.927 397.933 202 397.787 202H387.997C387.85 202 387.777 201.927 387.777 201.78V186.82C387.777 186.673 387.85 186.6 387.997 186.6H397.787C397.933 186.6 398.007 186.673 398.007 186.82V188.206Z" fill="white"/>
<path d="M86.6413 9.28674C79.2605 17.4682 68.9989 27.3991 68.3636 39.001C67.4845 55.1638 79.8437 69.4378 88.7911 81.6229C99.0614 95.6097 109.732 109.335 119.637 123.583C124.128 130.033 129.463 136.9 130.107 145.003C130.342 148.006 129.898 151.061 128.95 153.907C128.349 155.708 127.479 157.249 126.678 158.964C126.356 159.512 126.025 160.06 125.703 160.6C122.596 164.725 121.256 166.64 118.009 170C125.242 162.506 134.503 153.028 137.819 142.949C143.076 126.969 128.21 111.99 119.48 100.162C108.853 85.7658 97.7906 71.6137 87.7118 56.8174C83.2903 50.3245 79.3563 43.2049 77.8331 35.4238C77.0933 31.629 76.9193 27.6602 77.7809 23.8567C78.2335 21.8548 79.043 20.2534 79.8176 18.3821C82.2372 14.8658 84.4131 11.7586 86.6413 9.28674Z" fill="white"/>
<path d="M100.202 0C95.2752 5.00461 88.1208 12.0633 86.8414 19.1916C84.8308 30.4019 92.6467 42.7002 98.2084 51.7607C110.446 71.7095 136.069 93.0944 121.604 118.727C124.563 115.071 127.522 111.424 130.473 107.769C129.367 108.657 128.488 108.709 127.696 107.455C128.445 108.639 117.966 117.056 118.827 118.413C121.073 121.956 130.133 108.717 131.448 106.045C137.549 93.6427 134.329 79.4383 126.904 68.5326C119.376 57.479 110.707 47.4959 104.118 35.7634C98.7219 26.1632 90.8973 11.8892 98.7567 1.53184C95.8497 5.11775 92.934 8.69496 90.0269 12.2809C90.4621 11.837 90.8973 11.4018 91.3325 10.9579C94.6225 7.62441 96.9289 3.3248 100.202 0Z" fill="white"/>
<path d="M121.978 116.403C121.125 117.926 120.272 119.449 119.332 120.92C116.843 124.471 116.965 124.401 119.698 120.711C122.344 117.578 122.64 117.021 120.586 119.049C117.713 120.85 115.311 123 112.186 124.462C104.057 128.274 94.9619 129.554 86.0755 130.033C73.5683 130.703 56.3786 128.988 48.5192 117.926C44.2109 111.859 43.5929 104.339 46.1692 97.4373C46.4912 96.4799 46.9003 95.5573 47.3703 94.6696C41.8348 100.771 40.3203 102.468 42.8444 99.7612C44.4894 98.1075 46.0038 96.3146 47.7184 94.7218C50.4601 92.1716 53.4629 89.7868 57.1097 88.7163C73.7424 83.8248 83.9953 104.844 75.6833 117.604C78.5816 114.009 81.48 110.423 84.387 106.829C75.0131 117.63 63.6461 105.453 60.7391 95.8446C58.6415 88.899 60.6521 78.3241 54.1156 73.5893C53.8284 73.3804 45.3598 84.6342 45.2466 84.5472C51.7744 89.2733 49.7725 99.8744 51.8701 106.802C54.5769 115.741 64.8037 127.961 74.5257 118.953C79.0516 114.758 85.1442 107.83 86.972 101.789C90.1662 91.2142 83.8299 78.8811 72.4543 77.3145C62.3406 75.9219 54.7423 85.0346 48.8934 92.0062C43.5755 98.3425 37.335 104.731 35.9946 113.234C32.017 138.466 64.1423 142.287 81.9151 140.634C93.7956 139.528 105.902 136.36 114.345 127.439C120.559 120.876 126.452 113.33 130.856 105.427C128.61 109.474 124.241 112.347 121.978 116.403Z" fill="white"/>
<path d="M12.4164 103.913C6.63716 111.972 0.35311 120.676 0.0136671 130.981C-0.334479 141.408 5.99308 149.633 16.2025 151.792C34.5759 155.682 50.7473 140.303 62.1056 128.039C65.3695 124.514 69.2165 118.787 71.7841 116.02C60.5476 128.153 44.4024 143.192 26.2726 139.354C16.951 137.378 10.4668 130.172 10.0838 120.546C9.64862 109.657 16.098 100.388 22.1558 91.9453C19.9451 95.0525 15.2451 99.9788 12.4164 103.913Z" fill="white"/>
<path d="M15.8979 118.439C19.8058 119.362 23.0436 121.808 25.0106 125.307C24.854 125.028 29.11 120.354 29.5017 119.875C30.5462 118.587 31.5906 117.291 32.6263 115.985C32.7743 115.793 33.9667 114.488 33.8884 114.349C31.9213 110.85 28.6836 108.413 24.7756 107.481C24.6625 107.455 23.2786 109.248 23.4353 109.057C22.3734 110.336 21.329 111.624 20.2845 112.921C19.2401 114.209 18.1957 115.506 17.1599 116.812C17.0207 116.986 15.9936 118.466 15.8979 118.439Z" fill="white"/>
<path d="M57.2141 70.5256C60.3388 71.2654 62.9324 73.215 64.5078 76.0176C64.3773 75.7913 67.7891 72.0575 68.1024 71.6658C68.938 70.6301 69.7735 69.5943 70.6004 68.5586C70.7222 68.4019 71.6709 67.3575 71.61 67.253C70.0346 64.4505 67.4409 62.5008 64.3163 61.761C64.2293 61.7436 63.1152 63.171 63.2458 63.0231C62.4015 64.0501 61.5573 65.0771 60.7217 66.1129C59.8862 67.1486 59.0506 68.1843 58.2238 69.2201C58.1019 69.368 57.2838 70.5517 57.2141 70.5256Z" fill="white"/>
<path d="M237.107 136.229C237.786 128.996 238.378 121.755 239.161 114.531C239.631 110.205 239.535 109.796 235.549 107.986C233.808 107.194 232.007 106.515 230.301 105.653C227.994 104.504 227.951 103.939 229.944 102.163C230.658 101.528 231.467 100.988 232.294 100.518C233.852 99.6477 235.384 98.6468 237.055 98.0723C240.902 96.7581 241.433 93.6073 241.703 90.2738C241.79 89.1772 241.163 89.4122 240.423 89.682C237.603 90.7177 234.774 91.7622 231.902 92.6587C228.125 93.8424 224.313 94.8868 220.509 95.9835C219.987 96.1401 219.465 96.3577 218.934 96.436C215.426 96.906 213.363 94.9651 213.685 91.4314C213.825 89.9431 214.225 88.4809 214.425 86.9926C214.504 86.4355 214.321 85.8872 213.538 86.3311C213.416 86.4007 213.311 86.4878 213.189 86.5574C211.405 87.5757 209.63 88.594 207.845 89.6037C207.28 92.5542 206.601 95.4873 206.174 98.4553C204.886 107.298 203.885 116.167 204.416 125.141C204.433 125.463 204.155 125.802 204.016 126.124C203.702 125.872 203.198 125.672 203.111 125.358C202.693 123.783 202.136 122.181 202.075 120.571C201.805 113.965 202.614 107.429 203.476 100.892C203.85 98.0375 204.155 95.1827 204.46 92.3192C204.573 91.2574 204.303 90.8744 203.119 91.4314C196.557 94.5386 189.881 97.3499 182.909 99.4127C180.028 100.266 177.182 101.092 174.075 99.9349C171.325 98.9166 169.88 97.5675 169.697 94.7301C169.636 93.7727 169.723 92.7979 169.715 91.8318C169.706 90.9353 169.201 90.5437 168.4 90.9353C166.059 92.0755 163.805 93.4246 161.403 94.4342C159.792 95.1131 158.026 95.6005 156.294 95.7397C154.414 95.8877 153.561 94.4951 154.222 92.7022C154.596 91.6838 155.023 90.5611 155.745 89.8038C158.591 86.8272 161.472 83.9028 165.667 82.7452C167.626 82.2055 169.227 82.4928 170.411 84.103C170.829 84.6687 170.811 85.5478 170.994 86.2876C170.463 85.8959 169.906 85.5391 169.41 85.1126C168.783 84.5729 168.287 84.0942 167.26 84.425C162.926 85.8263 159.427 88.3677 156.711 91.9798C156.433 92.354 156.537 93.0068 156.468 93.529C156.955 93.5899 157.538 93.8511 157.93 93.6857C161.063 92.3105 164.144 90.8048 167.286 89.4296C168.522 88.8813 169.828 88.3939 171.151 88.1676C172.639 87.9152 173.179 88.6463 172.865 90.0911C172.613 91.2835 172.186 92.4759 172.125 93.677C171.978 96.4796 173.031 97.8112 175.825 98.0549C177.426 98.1942 179.115 97.9505 180.699 97.611C188.236 95.9747 195.208 92.7631 202.301 89.8561C204.225 89.0727 205.086 87.9326 205.487 85.6609C207.071 76.6613 209.151 67.7488 210.9 58.7753C212.58 50.1848 214.808 41.7422 217.707 33.4912C218.29 31.8288 219.151 30.2534 220.004 28.6954C220.205 28.3212 220.883 28.208 221.345 27.973C221.554 28.443 221.963 28.9304 221.937 29.3917C221.867 30.6015 221.928 31.9854 221.362 32.9776C218.046 38.7917 216.88 45.302 215.374 51.647C212.937 61.8651 210.944 72.1876 208.785 82.4754C208.646 83.1455 208.646 83.8505 208.611 84.5381C208.489 86.7489 208.724 86.8968 210.848 85.8698C212.458 85.0952 213.99 84.1465 215.653 83.5198C216.436 83.2239 217.445 83.5285 218.351 83.5546C218.237 84.3205 218.22 85.1126 218.002 85.8437C217.428 87.8107 216.636 89.7168 216.192 91.71C215.713 93.8859 216.627 94.6518 218.838 94.3559C224.443 93.5986 229.674 91.5794 234.914 89.5776C236.829 88.8465 238.735 88.0631 240.676 87.4016C241.668 87.0622 242.381 86.6183 242.573 85.5042C243.391 80.6563 244.253 75.8084 245.071 70.9604C247.073 59.1147 248.744 47.1994 252.591 35.7541C253.322 33.5695 254.375 31.4719 255.446 29.4265C255.863 28.6258 256.638 27.9295 257.413 27.4247C258.649 26.6153 259.867 27.0069 260.563 28.2254C261.207 29.3395 260.938 30.2447 259.554 31.028C258.013 31.8984 257.186 33.291 256.682 34.8402C255.254 39.253 253.583 43.6309 252.669 48.1568C250.511 58.8623 248.744 69.6549 246.82 80.4039C246.768 80.6737 246.777 80.9522 246.759 81.2307C246.664 82.397 246.559 83.572 246.463 84.7383C247.621 84.4424 248.77 84.0942 249.936 83.8592C250.955 83.6504 252.008 83.5807 253.043 83.4415C252.93 85.0778 251.277 84.7644 250.432 85.4955C250.154 85.7392 249.649 85.7044 249.257 85.8437C246.577 86.7663 244.566 88.1937 244.993 91.4924C245.062 92.0059 244.853 92.5803 244.697 93.0938C244.401 94.0512 245.08 93.9816 245.532 93.7988C248.056 92.7457 250.554 91.5968 253.07 90.5175C261.904 86.7228 271.269 84.747 280.591 82.632C281.078 82.5189 281.678 82.6755 282.157 82.8757C282.479 83.015 282.749 83.4241 282.897 83.7722C282.958 83.9115 282.688 84.3292 282.479 84.4337C281.496 84.8863 280.512 85.4955 279.476 85.6435C270.747 86.8359 262.426 89.4644 254.271 92.6848C251.599 93.7379 248.953 94.852 246.281 95.8964C244.583 96.5579 243.722 97.759 243.513 99.5433C243.295 101.441 242.999 103.338 242.703 105.227C242.303 107.803 242.677 109.892 244.94 111.781C250.032 116.037 252.478 121.79 253.043 128.326C253.157 129.649 252.817 131.024 252.556 132.356C251.303 138.771 248.961 144.707 244.557 149.659C243.382 150.973 242.138 152.618 240.058 151.948C237.951 151.269 237.986 148.997 237.847 147.422C237.507 143.732 237.742 139.98 237.742 136.255C237.49 136.255 237.299 136.238 237.107 136.229ZM239.91 140.529C240.179 142.835 240.354 145.29 240.78 147.692C241.102 149.502 241.424 149.554 242.599 148.432C243.295 147.77 244 147.1 244.566 146.334C248.056 141.634 250.241 136.368 250.798 130.554C251.494 123.383 248.979 117.403 243.478 112.712C242.616 111.981 241.911 112.251 241.842 113.365C241.703 115.697 241.737 118.039 241.555 120.362C241.058 127.038 240.475 133.705 239.91 140.529ZM240.162 102.337C240.162 101.797 240.171 101.249 240.162 100.71C240.145 98.9514 239.884 98.7251 238.334 99.5345C236.419 100.535 234.566 101.65 232.729 102.79C232.024 103.225 231.946 103.765 232.912 104.13C233.669 104.417 234.383 104.826 235.114 105.183C239.936 107.533 239.936 107.533 240.162 102.337Z" fill="white"/>
<path d="M359.393 102.772C359.646 98.0114 361.317 93.7204 363.867 89.7342C364.067 89.4121 364.111 88.9944 364.224 88.6201C363.85 88.5069 363.449 88.2371 363.11 88.3068C359.776 89.0118 356.46 89.8299 353.118 90.5001C351.9 90.7438 351.273 91.0832 351.09 92.5193C350.246 98.9165 347.113 104.104 342.265 108.308C340.776 109.596 339.201 110.614 337.13 110.623C334.98 110.632 333.752 109.927 332.969 107.951C331.933 105.331 331.62 102.607 332.508 99.9C333.396 97.1758 334.492 94.5299 335.511 91.8492C335.606 91.6055 335.728 91.3705 335.841 91.1355C335.467 91.1181 335.041 90.9788 334.727 91.1093C329.296 93.3636 323.883 95.6701 318.077 96.8277C316.746 97.0975 315.37 97.3064 314.013 97.3064C311.95 97.2977 310.731 96.1227 310.531 94.0338C310.401 92.6673 310.522 91.2747 310.453 89.8995C310.366 88.3329 309.73 87.8716 308.329 88.5157C305.953 89.5949 303.655 90.8308 301.305 91.9536C299.947 92.5977 298.581 93.2766 297.145 93.6943C295.056 94.3036 293.55 92.8327 294.072 90.7699C294.638 88.5244 295.291 86.2962 296.022 84.1029C296.144 83.7286 296.858 83.3544 297.302 83.3544C297.58 83.3544 298.137 84.0942 298.085 84.4249C297.806 86.1657 297.345 87.889 296.997 89.621C296.875 90.2129 296.901 90.8395 296.866 91.4488C297.51 91.353 298.198 91.3443 298.799 91.1268C299.565 90.8482 300.261 90.3782 301.001 90.0127C303.342 88.8638 305.648 87.654 308.033 86.6008C311.01 85.2866 313.569 86.9925 313.595 90.1955C313.63 95.6091 313.708 95.5656 319.078 94.3732C325.005 93.059 330.419 90.4305 336.033 88.2894C337.225 87.8368 337.721 87.506 336.912 85.9916C335.11 82.6146 336.311 79.0896 339.558 77.14C342.778 75.2078 346.425 75.8083 348.766 78.6544C350.002 80.1601 350.986 81.7616 351.142 83.7983C351.229 84.8775 351.621 85.9307 351.778 87.0099C351.891 87.8107 352.239 88.3677 353.057 88.2371C356.286 87.7236 359.524 87.184 362.727 86.5138C363.084 86.4355 363.467 85.5042 363.484 84.9646C363.554 83.0759 363.023 81.1524 364.398 79.4203C366.139 77.2183 368.384 75.8083 371.1 76.0781C374.129 76.3828 376.514 78.1844 377.523 81.1698C378.132 82.954 378.298 84.9036 378.507 86.7923C378.62 87.8281 379.046 88.359 380.03 88.2545C381.927 88.0631 383.833 87.8455 385.713 87.4886C388.664 86.9316 391.597 86.2614 394.53 85.626C394.661 85.5999 394.8 85.539 394.913 85.4607C395.958 84.7035 396.915 83.572 398.073 83.3022C399.039 83.0759 400.17 84.5555 401.423 83.4588C401.554 83.3457 402.085 83.6938 402.433 83.8331C402.25 84.1638 402.085 84.512 401.876 84.8253C401.815 84.9123 401.624 84.921 401.484 84.9297C397.838 85.2257 398.238 88.3677 397.516 90.6829C397.472 90.8308 398.325 91.5358 398.525 91.4488C400.527 90.5523 402.459 89.4992 404.444 88.5766C406.176 87.7671 407.916 86.949 409.727 86.3223C412.085 85.5129 413.783 86.627 414.026 89.0727C414.166 90.4392 414.087 91.8318 414.079 93.2069C414.07 94.3906 414.636 95.1304 415.819 94.9303C418.369 94.5038 421.007 94.2514 423.4 93.3636C430.581 90.7003 437.657 87.7584 444.768 84.9297C445.786 84.5294 446.778 84.042 447.823 83.7635C448.336 83.6242 448.954 83.8679 449.529 83.9375C449.154 84.451 448.893 85.2431 448.388 85.452C438.536 89.4905 429.127 94.6604 418.552 96.8364C412.721 98.0375 411.093 96.8538 410.893 90.8308C410.884 90.5523 410.91 90.2825 410.893 90.004C410.78 88.272 410.467 88.0021 408.909 88.681C405.532 90.1607 402.215 91.7708 398.847 93.2766C398.125 93.5986 397.272 93.9206 396.532 93.8336C395.192 93.6769 394.556 92.3017 394.957 90.796C395.166 90.004 395.548 89.2468 395.636 88.446C395.67 88.1153 395.183 87.4799 394.843 87.4103C394.191 87.2797 393.46 87.3668 392.798 87.5234C388.942 88.3938 385.095 89.3251 381.24 90.2042C379.569 90.5871 378.707 91.1529 378.254 93.2505C376.853 99.8478 373.772 105.618 367.819 109.37C363.476 112.103 359.898 110.327 359.428 105.253C359.324 104.435 359.393 103.599 359.393 102.772ZM334.536 103.216C334.536 104.174 334.397 105.157 334.562 106.097C334.971 108.456 336.442 109.143 338.705 108.142C343.614 105.975 348.81 97.6632 348.627 92.1364C348.61 91.6229 348.114 90.7786 347.696 90.6742C345.337 90.0562 342.944 89.5688 340.541 89.1684C340.15 89.0988 339.48 89.5514 339.236 89.9431C336.764 94.0338 334.344 98.1767 334.536 103.216ZM361.665 102.851C361.735 104.087 361.665 105.349 361.909 106.541C362.248 108.195 363.589 108.926 365.225 108.203C366.809 107.498 368.541 106.724 369.69 105.497C373.015 101.928 374.93 97.5588 375.904 92.7979C376.148 91.6055 375.957 90.6481 374.477 90.3956C372.205 90.0127 369.96 89.5166 367.679 89.1945C367.296 89.1423 366.67 89.6123 366.409 90.004C363.798 93.8945 361.535 97.933 361.665 102.851ZM348.566 82.2229C347.765 81.3003 346.991 80.1688 345.981 79.3159C343.431 77.14 339.488 78.315 338.339 81.5005C337.965 82.5362 338.653 85.5825 339.279 85.4781C340.097 85.3475 340.829 84.6251 341.586 84.1377C341.925 83.9201 342.221 83.4936 342.578 83.4501C343.213 83.3631 344.388 82.7451 343.953 84.3814C343.927 84.4685 344.31 84.8079 344.397 84.7731C345.65 84.2683 346.895 83.7373 348.122 83.1629C348.296 83.0672 348.34 82.7103 348.566 82.2229ZM370.23 78.2366C366.774 78.1931 364.52 81.0392 365.608 84.0855C366.252 85.8871 366.652 86.0699 368.071 84.7731C369.263 83.6851 370.203 83.1368 371.935 83.9375C372.788 84.3292 374.216 83.4849 375.365 83.1542C375.469 83.1194 375.556 82.7364 375.521 82.5362C375.112 80.3951 372.475 78.2627 370.23 78.2366ZM374.512 88.2981C376.383 88.446 376.888 88.1675 376.218 85.9133C375.739 84.2944 375.304 84.3727 374.129 84.9733C373.415 85.3388 372.562 85.4433 371.814 85.774C370.978 86.1396 370.195 86.6357 369.394 87.0708C370.273 87.4364 371.126 87.8803 372.031 88.1327C372.684 88.3155 373.406 88.2371 374.512 88.2981ZM345.868 88.2545C346.965 88.2545 347.678 88.3764 348.322 88.211C348.723 88.1066 349.236 87.6105 349.297 87.2362C349.384 86.6096 349.219 85.8959 348.975 85.2953C348.932 85.1734 348.035 85.304 347.583 85.4607C346.947 85.687 346.321 85.9916 345.755 86.3659C345.111 86.7923 344.536 87.3407 343.927 87.8368C344.702 88.0021 345.485 88.1762 345.868 88.2545Z" fill="white"/>
<path d="M222.737 71.4565C222.615 73.1711 222.015 74.0501 220.788 74.2068C219.769 74.3374 219.447 73.5453 219.404 72.6402C219.343 71.439 219.717 70.2989 220.953 70.2031C221.571 70.1509 222.276 71.0996 222.737 71.4565Z" fill="white"/>
</svg>
