<svg width="24" height="29" viewBox="0 0 24 29" fill="none" xmlns="http://www.w3.org/2000/svg">
<path d="M14.5817 1.56293C13.3395 2.93986 11.6125 4.61123 11.5055 6.56384C11.3576 9.28401 13.4376 11.6863 14.9435 13.7371C16.672 16.0911 18.4678 18.4011 20.1348 20.799C20.8906 21.8844 21.7886 23.0402 21.897 24.4039C21.9365 24.9093 21.8618 25.4234 21.7022 25.9024C21.6011 26.2057 21.4546 26.4649 21.3198 26.7535C21.2656 26.8458 21.21 26.9381 21.1558 27.0289C20.6328 27.7232 20.4073 28.0455 19.8609 28.6109C21.0781 27.3497 22.6367 25.7545 23.1948 24.0582C24.0796 21.3688 21.5777 18.8479 20.1084 16.8572C18.3199 14.4343 16.4581 12.0525 14.7618 9.56233C14.0177 8.46957 13.3556 7.27135 13.0992 5.96179C12.9747 5.32313 12.9454 4.65517 13.0905 4.01504C13.1666 3.67813 13.3029 3.40861 13.4332 3.09367C13.8404 2.50188 14.2067 1.97894 14.5817 1.56293Z" fill="#272727"/>
<path d="M16.8639 0C16.0348 0.842274 14.8307 2.03025 14.6154 3.22994C14.277 5.11663 15.5924 7.18643 16.5284 8.71131C18.588 12.0687 22.9004 15.6678 20.4659 19.9817C20.9639 19.3664 21.462 18.7527 21.9585 18.1375C21.7725 18.2869 21.6246 18.2957 21.4913 18.0847C21.6172 18.2839 19.8536 19.7004 19.9986 19.9289C20.3765 20.5251 21.9014 18.2971 22.1226 17.8474C23.1494 15.76 22.6075 13.3694 21.358 11.534C20.0909 9.6737 18.6319 7.99355 17.523 6.01896C16.6149 4.40326 15.298 2.00095 16.6207 0.257809C16.1315 0.861317 15.6408 1.46336 15.1515 2.06687C15.2247 1.99216 15.298 1.91892 15.3712 1.84421C15.9249 1.28319 16.3131 0.559563 16.8639 0Z" fill="#272727"/>
<path d="M20.5288 19.5905C20.3852 19.8469 20.2417 20.1032 20.0835 20.3508C19.6646 20.9484 19.6851 20.9367 20.145 20.3156C20.5903 19.7883 20.6401 19.6945 20.2944 20.0358C19.811 20.3391 19.4067 20.7009 18.8809 20.947C17.5127 21.5886 15.982 21.8039 14.4864 21.8844C12.3814 21.9972 9.48842 21.7087 8.16568 19.8469C7.44059 18.8259 7.33659 17.5603 7.77018 16.3987C7.82438 16.2376 7.89322 16.0823 7.97232 15.9329C7.0407 16.9597 6.78582 17.2454 7.21062 16.7898C7.48747 16.5115 7.74235 16.2097 8.03092 15.9417C8.49234 15.5125 8.9977 15.1111 9.61146 14.9309C12.4107 14.1077 14.1363 17.6452 12.7374 19.7927C13.2252 19.1877 13.713 18.5842 14.2022 17.9792C12.6246 19.7971 10.7115 17.7478 10.2223 16.1306C9.86927 14.9617 10.2076 13.1819 9.10756 12.3851C9.05922 12.3499 7.63395 14.2439 7.61491 14.2293C8.71353 15.0247 8.37662 16.8088 8.72964 17.9748C9.1852 19.4792 10.9064 21.5358 12.5426 20.0197C13.3043 19.3137 14.3297 18.1477 14.6373 17.1311C15.1749 15.3513 14.1085 13.2757 12.1939 13.012C10.4918 12.7776 9.21303 14.3113 8.22867 15.4846C7.33366 16.551 6.28338 17.6262 6.0578 19.0573C5.38837 23.3039 10.795 23.9469 13.7862 23.6686C15.7857 23.4826 17.8233 22.9494 19.2441 21.4479C20.29 20.3435 21.2817 19.0735 22.0229 17.7434C21.645 18.4245 20.9097 18.9079 20.5288 19.5905Z" fill="#272727"/>
<path d="M2.08967 17.4885C1.11703 18.8449 0.0594283 20.3098 0.00230018 22.0441C-0.0562928 23.799 1.00863 25.1832 2.72687 25.5465C5.81912 26.2013 8.54076 23.6129 10.4524 21.549C11.0017 20.9557 11.6491 19.9919 12.0812 19.5261C10.1902 21.568 7.4729 24.0993 4.42167 23.4533C2.85285 23.1207 1.76155 21.9079 1.6971 20.2878C1.62386 18.4553 2.7093 16.8952 3.72881 15.4744C3.35675 15.9973 2.56574 16.8264 2.08967 17.4885Z" fill="#272727"/>
<path d="M2.67529 19.9333C3.333 20.0886 3.87791 20.5002 4.20896 21.0891C4.1826 21.0422 4.8989 20.2556 4.96481 20.175C5.14059 19.9582 5.31637 19.74 5.49068 19.5202C5.51559 19.488 5.71627 19.2683 5.70308 19.2448C5.37203 18.656 4.82712 18.2458 4.16941 18.0891C4.15037 18.0847 3.91746 18.3865 3.94383 18.3542C3.76512 18.5696 3.58934 18.7864 3.41356 19.0046C3.23779 19.2214 3.06201 19.4397 2.88769 19.6594C2.86426 19.6887 2.69141 19.9377 2.67529 19.9333Z" fill="#272727"/>
<path d="M9.62891 11.8694C10.1548 11.9939 10.5913 12.322 10.8564 12.7937C10.8345 12.7556 11.4087 12.1272 11.4614 12.0613C11.602 11.887 11.7426 11.7127 11.8818 11.5383C11.9023 11.512 12.062 11.3362 12.0517 11.3186C11.7866 10.8469 11.3501 10.5188 10.8242 10.3943C10.8096 10.3914 10.6221 10.6316 10.644 10.6067C10.5019 10.7796 10.3599 10.9524 10.2192 11.1267C10.0786 11.301 9.93798 11.4754 9.79883 11.6497C9.77832 11.6746 9.64062 11.8738 9.62891 11.8694Z" fill="#272727"/>
</svg>
