<?xml version="1.0" encoding="utf-8"?>
<!-- Generator: Adobe Illustrator 24.2.3, SVG Export Plug-In . SVG Version: 6.00 Build 0)  -->
<svg version="1.1" id="Layer_1" xmlns="http://www.w3.org/2000/svg" xmlns:xlink="http://www.w3.org/1999/xlink" x="0px" y="0px"
	 viewBox="0 0 24 25" style="enable-background:new 0 0 24 25;" xml:space="preserve">
<style type="text/css">
	.st0{fill-rule:evenodd;clip-rule:evenodd;fill:#ECA33A;}
</style>
<path class="st0" d="M12.8,2c0-0.3-0.2-0.5-0.5-0.5c-0.3,0-0.5,0.2-0.5,0.5v8.9c-2.4,0.2-4.3,2.2-4.6,4.6l-0.6,7l-0.1,1h1h2.8h0.5h3
	h0.5h3h1l-0.1-1l-0.9-7.1c-0.3-2.4-2.2-4.2-4.6-4.5V2z M9.9,22.5H7.6l0.6-6.9c0.2-2.1,2-3.7,4.1-3.7c2.1,0,3.8,1.5,4.1,3.6l0.8,7
	h-2.4l-0.1-2.8l-1,0.1l0.1,2.8h-2.9l0.3-5.1l-1-0.1L9.9,22.5z"/>
<path class="st0" d="M12.8,2c0-0.3-0.2-0.5-0.5-0.5c-0.3,0-0.5,0.2-0.5,0.5v8.9c-2.4,0.2-4.3,2.2-4.6,4.6l-0.6,7l-0.1,1h1h2.8h0.5h3
	h0.5h3h1l-0.1-1l-0.9-7.1c-0.3-2.4-2.2-4.2-4.6-4.5V2z M9.9,22.5H7.6l0.6-6.9c0.2-2.1,2-3.7,4.1-3.7c2.1,0,3.8,1.5,4.1,3.6l0.8,7
	h-2.4l-0.1-2.8l-1,0.1l0.1,2.8h-2.9l0.3-5.1l-1-0.1L9.9,22.5z"/>
</svg>
