<svg width="1440" height="887" viewBox="0 0 1440 887" fill="none" xmlns="http://www.w3.org/2000/svg">
<g style="mix-blend-mode:screen" opacity="0.2">
<mask id="mask0_1409_2474" style="mask-type:alpha" maskUnits="userSpaceOnUse" x="0" y="0" width="1440" height="887">
<rect width="1440" height="887" fill="url(#paint0_linear_1409_2474)"/>
</mask>
<g mask="url(#mask0_1409_2474)">
<mask id="mask1_1409_2474" style="mask-type:luminance" maskUnits="userSpaceOnUse" x="-355" y="0" width="2078" height="1485">
<path d="M-355 1484.73L1723 1484.73L1723 0.000244141L-355 0.000244141V1484.73Z" fill="white"/>
</mask>
<g mask="url(#mask1_1409_2474)">
<path d="M791.438 461.707C769.641 489.281 746.687 516.464 722.627 543.192C587.271 693.552 456.794 755.608 323.767 732.915C208.488 713.24 108.929 633.316 21.0947 562.788C-37.5399 515.722 -92.9213 471.258 -143.944 452.624C-313.783 390.58 -382.529 415.877 -423.609 430.984C-447.396 439.729 -463.102 445.519 -483.428 427.744C-503.337 410.333 -469.856 313.663 -378.039 123.524C-338.338 41.2844 -281.916 -2.33356 -236.58 -37.3894C-213.873 -54.9433 -194.224 -70.142 -181.159 -86.759C-145.18 -132.511 -140.3 -148.933 -129.617 -184.9C-120.703 -214.894 -107.248 -260.229 -67.4297 -348.637C-32.439 -426.335 44.205 -530.266 132.599 -619.87C182.893 -670.853 235.151 -715.708 287.891 -753.184C346.929 -795.136 405.277 -826.809 461.322 -847.316C565.136 -885.3 659.295 -884.702 741.222 -845.534C821.926 -806.939 890.346 -749.592 944.595 -675.082C998.48 -601.08 1035.66 -513.922 1055.07 -416.042C1083.35 -273.567 1071.47 -114.866 1020.74 42.9111C993.705 127.024 955.643 211.072 907.614 292.739C873.859 350.085 834.952 406.664 791.438 461.707ZM-332.066 56.6653C-347.447 76.1191 -362.008 98.5788 -374.812 125.085C-416.569 211.567 -445.692 277.488 -463.844 326.624C-490.038 397.503 -487.67 419.26 -481.06 425.038C-462.361 441.394 -449.036 436.502 -424.858 427.601C-383.322 412.324 -313.783 386.742 -142.707 449.241C-91.1255 468.083 -35.5229 512.729 23.3458 559.991C110.842 630.232 210.024 709.856 324.365 729.375C456.078 751.848 585.475 690.168 719.947 540.797C791.88 460.887 853.976 376.813 904.504 290.904C952.403 209.472 990.347 125.658 1017.31 41.8051C1067.85 -115.387 1079.68 -273.463 1051.53 -415.339C1032.21 -512.699 995.253 -599.375 941.667 -672.948C887.769 -746.964 819.805 -803.933 739.648 -842.268C658.644 -881.006 565.41 -881.566 462.545 -843.92C406.813 -823.517 348.738 -792 289.96 -750.243C237.389 -712.884 185.3 -668.173 135.15 -617.333C47.0286 -528.015 -29.342 -424.487 -64.1636 -347.14C-103.878 -258.941 -117.294 -213.748 -126.181 -183.846C-136.995 -147.423 -141.94 -130.793 -178.349 -84.5078C-178.414 -84.4297 -178.479 -84.3516 -178.531 -84.2736C-191.895 -67.3702 -211.596 -52.1326 -234.394 -34.5136C-264.765 -11.0519 -300.172 16.3265 -332.066 56.6653Z" fill="url(#paint1_linear_1409_2474)"/>
<path d="M751.033 406.937C733.401 429.228 714.949 451.258 695.691 472.95C574.765 609.816 457.796 668.516 338.106 652.419C234.123 638.43 143.074 570.18 62.7475 509.97C6.79352 468.031 -46.0634 428.408 -95.3679 413.118C-251.779 362.291 -318.416 386.013 -358.234 400.197C-382.295 408.772 -398.196 414.432 -418.144 397.451C-429.569 388.056 -427.058 356.175 -410.675 302.72C-395.932 254.625 -370.492 190.968 -337.115 118.618C-302.541 42.8721 -252.781 1.77838 -212.793 -31.2474C-193.47 -47.2139 -176.775 -60.9941 -164.894 -75.9846C-127.145 -123.441 -121.588 -138.211 -105.036 -181.972C-93.9106 -211.367 -78.6859 -251.641 -46.1805 -322.325C-12.8944 -394.74 58.7267 -491.618 140.732 -575.133C187.642 -622.902 236.218 -664.894 285.132 -699.923C340.019 -739.234 394.151 -768.864 446.032 -788.005C539.644 -822.528 624.642 -822.645 698.697 -788.383C773.09 -753.743 836.357 -701.862 886.741 -634.21C936.813 -566.974 971.583 -487.637 990.1 -398.397C1016.87 -269.442 1007.32 -125.588 962.5 17.6277C938.609 93.9853 904.698 170.382 861.718 244.697C829.863 299.792 792.778 354.119 751.033 406.937ZM-290.869 49.2351C-306.51 69.0142 -321.318 92.1506 -334.044 120.036C-404.637 273.064 -436.023 378.361 -415.971 394.848C-397.493 410.581 -383.14 405.467 -359.38 396.995C-319.158 382.669 -251.844 358.7 -94.353 409.878C-44.5019 425.337 8.57623 465.129 64.7774 507.251C144.779 567.213 235.45 635.19 338.562 649.062C457.054 665.002 573.048 606.667 693.167 470.712C757.878 397.776 813.611 321.171 858.816 243.018C901.667 168.925 935.473 92.7621 959.299 16.6387C1003.95 -126.031 1013.46 -269.299 986.821 -397.694C968.395 -486.452 933.821 -565.348 884.061 -632.18C834.014 -699.39 771.19 -750.906 697.317 -785.312C624.122 -819.183 539.983 -819.027 447.255 -784.83C378.718 -759.56 270.337 -702.253 143.191 -572.765C61.4332 -489.51 -9.92755 -392.996 -43.0705 -320.92C-75.5238 -250.34 -90.7355 -210.144 -101.835 -180.788C-118.075 -137.859 -124.178 -121.776 -162.2 -73.8896C-174.302 -58.6259 -191.127 -44.7285 -210.594 -28.645C-235.604 -8.03308 -264.414 15.7668 -290.869 49.2351Z" fill="url(#paint2_linear_1409_2474)"/>
<path d="M711.306 351.491C697.695 368.706 683.524 385.766 668.755 402.708C562.156 526.145 458.615 581.422 352.186 571.689C259.458 563.205 176.959 506.496 104.18 456.463C51.0105 419.911 0.782043 385.388 -46.8178 373.586C-189.657 333.807 -254.069 356.032 -292.547 369.318C-317.036 377.763 -333.224 383.359 -352.873 367.145C-380.382 345.869 -342.788 220.858 -296.203 113.712C-266.652 44.0303 -223.333 5.30493 -188.538 -25.8081C-172.753 -39.9267 -159.129 -52.1064 -148.628 -65.2231C-105.465 -118.913 -100.13 -130.793 -70.4877 -196.741C-59.3229 -221.569 -45.4386 -252.474 -24.9178 -296.014C-3.95456 -340.53 32.832 -395.911 78.6752 -451.93C130.257 -514.976 188.787 -573.259 247.942 -620.508C317.937 -676.423 386.266 -715.2 451.029 -735.773C526.476 -759.729 595.508 -758.206 656.211 -731.231C724.306 -700.548 782.42 -654.145 828.953 -593.324C875.212 -532.855 907.6 -461.325 925.232 -380.699C950.464 -265.252 943.229 -136.233 904.308 -7.59052C866.871 116.185 802.043 236.733 711.306 351.491ZM-249.189 40.4518C-265.26 60.7904 -280.562 84.9937 -293.276 114.962C-348.761 242.563 -372.99 347.574 -350.882 364.659C-332.56 379.767 -317.882 374.705 -293.575 366.312C-254.745 352.909 -189.748 330.489 -45.998 370.515C2.10934 382.448 52.572 417.126 105.975 453.848C178.442 503.66 260.565 560.121 352.472 568.527C457.796 578.156 560.478 523.243 666.361 400.626C779.31 271.047 858.348 133.4 901.276 -8.51447C940.041 -136.649 947.25 -265.109 922.135 -380.036C904.608 -460.206 872.415 -531.32 826.441 -591.412C780.234 -651.803 722.523 -697.88 654.923 -728.343C594.961 -754.992 526.671 -756.476 451.992 -732.754C387.606 -712.298 319.615 -673.703 249.92 -618.035C190.947 -570.93 132.573 -512.803 81.1345 -449.926C35.4604 -394.089 -1.18286 -338.968 -22.042 -294.673C-42.5498 -251.172 -56.4341 -220.281 -67.5859 -195.453C-97.3716 -129.193 -102.733 -117.26 -146.143 -63.2452C-156.8 -49.9204 -170.515 -37.6625 -186.403 -23.4528C-205.961 -5.96399 -228.239 13.9452 -249.189 40.4518Z" fill="url(#paint3_linear_1409_2474)"/>
<path d="M670.915 297.046C661.533 308.914 651.839 320.716 641.832 332.453C549.417 442.579 459.188 494.342 365.966 490.686C284.443 487.485 213.72 444.101 145.339 402.135C95.0971 371.309 47.6404 342.187 1.77112 334.067C-127.274 305.127 -186.911 325.114 -226.378 338.335C-252.416 347.067 -268.135 352.323 -287.576 336.839C-313.263 318.153 -299.092 217.982 -255.253 108.82C-230.555 44.4076 -193.3 7.75116 -163.371 -21.7092C-151.92 -32.9781 -141.107 -43.6224 -132.336 -54.4488L-127.886 -59.9141C-76.6295 -122.791 -72.4524 -127.931 -3.64209 -269.689C15.6555 -309.547 50.2038 -361.233 91.0762 -411.5C138.104 -469.315 191.169 -522.888 244.533 -566.441C307.943 -618.178 369.74 -654.444 428.218 -674.21C496.43 -697.269 558.838 -697.217 613.712 -674.067C675.535 -647.34 728.509 -606.415 771.203 -552.439C813.676 -498.736 843.696 -435.001 860.43 -362.989C884.126 -261.049 879.181 -146.864 846.13 -32.7829C813.286 80.6735 754.404 191.449 670.915 297.046ZM-206.625 29.2869C-223.463 50.5755 -239.703 76.4835 -252.507 109.9C-295.149 216.095 -310.075 316.838 -285.78 334.496C-267.55 349.031 -252.403 343.956 -227.315 335.55C-189.956 323.032 -127.43 302.082 2.34366 331.178C48.6944 339.376 96.3854 368.641 146.874 399.624C214.943 441.394 285.315 484.57 366.07 487.745C458.316 491.363 547.778 439.95 639.568 330.566C738.32 214.742 806.858 92.2156 843.306 -33.6027C876.214 -147.202 881.133 -260.867 857.554 -362.326C840.911 -433.908 811.087 -497.266 768.887 -550.617C726.505 -604.203 673.908 -644.828 612.554 -671.361C558.383 -694.224 496.664 -694.25 429.168 -671.426C371.028 -651.764 309.544 -615.68 246.407 -564.163C193.199 -520.74 140.277 -467.311 93.3665 -409.652C52.6111 -359.567 18.219 -308.076 -0.987549 -268.427C-69.9541 -126.356 -74.1571 -121.19 -125.596 -58.0793L-130.046 -52.6141C-138.908 -41.6575 -149.786 -30.9481 -161.302 -19.6272C-175.473 -5.66473 -191.296 9.89825 -206.625 29.2869Z" fill="url(#paint4_linear_1409_2474)"/>
<path d="M630.615 242.797C625.475 249.29 620.244 255.757 614.896 262.211C439.187 479.482 304.69 408.98 186.041 346.78C138.923 322.082 94.4199 298.751 50.3594 294.548C-64.5544 276.148 -121.693 294.834 -159.507 307.196C-186.573 316.044 -202.917 321.393 -222.28 306.545C-235.045 297.827 -241.876 271.672 -240.979 234.833C-240.029 195.73 -230.556 149.237 -214.316 103.927C-194.159 42.937 -163.398 9.11737 -136.267 -20.7204C-129.071 -28.6321 -122.265 -36.1142 -116.058 -43.6875C-106.65 -55.0475 -98.2439 -64.7809 -90.8267 -73.3691C-56.5517 -113.018 -35.8748 -136.948 17.6328 -243.391C51.6867 -311.33 136.164 -424.487 241.149 -512.386C297.975 -559.96 353.24 -593.702 405.42 -612.661C466.397 -634.822 522.181 -636.253 571.226 -616.916C626.789 -594.157 674.662 -558.724 713.544 -511.58C752.256 -464.643 779.921 -408.689 795.783 -345.253C817.905 -256.794 815.224 -157.443 788.041 -57.9363C759.856 45.2012 706.934 146.283 630.615 242.797ZM-162.864 14.1662C-181.043 37.1464 -198.649 65.2144 -211.739 104.825C-246.626 202.159 -244.453 288.08 -220.679 304.333C-202.409 318.335 -186.573 313.169 -160.366 304.593C-122.304 292.153 -64.7756 273.337 50.6978 291.841C95.2137 296.096 139.951 319.545 187.303 344.373C247.395 375.876 309.543 408.447 379.226 406.651C458.498 404.608 534.895 356.8 612.788 260.494C697.343 158.436 755.418 51.0568 785.399 -58.652C812.465 -157.716 815.146 -256.586 793.129 -344.59C777.37 -407.622 749.875 -463.212 711.436 -509.836C672.854 -556.629 625.332 -591.802 570.211 -614.379C507.269 -639.194 399.382 -641.302 242.906 -510.291C138.207 -422.652 54.0159 -309.872 20.0792 -242.168C-33.5845 -135.413 -54.3526 -111.392 -88.7578 -71.5864C-96.1619 -63.0112 -104.568 -53.3038 -113.95 -41.9569C-120.209 -34.3185 -127.028 -26.8232 -134.25 -18.8726C-143.554 -8.65771 -153.287 2.05151 -162.864 14.1662Z" fill="url(#paint5_linear_1409_2474)"/>
<path d="M582.456 199.049C519.671 278.464 457.314 320.573 392.044 327.704C332.68 334.184 278.47 311.789 226.055 290.136C182.372 272.088 141.123 255.042 98.9489 255.003C-1.29977 246.648 -55.6012 264.137 -91.5288 275.719C-120.195 284.958 -137.502 290.527 -156.995 276.239C-184.503 258.555 -197.399 178.996 -173.391 99.0472C-156.982 35.6761 -129.447 2.65021 -102.798 -29.3087L-99.7787 -32.9391C-86.8572 -48.2679 -75.172 -60.4347 -63.8771 -72.185C-33.5839 -103.701 -4.96925 -133.474 38.9091 -217.093C70.7898 -278.083 146.614 -379.58 237.741 -458.332C314.554 -524.709 427.386 -596.174 528.714 -559.765C627.349 -522.25 701.196 -437.59 731.32 -327.504C751.84 -252.526 751.385 -167.996 730.005 -83.0504C706.635 9.82013 659.686 101.272 590.446 188.847C589.626 189.888 588.806 190.916 587.974 191.957C586.139 194.364 584.291 196.719 582.456 199.049ZM-116.721 -8.3324C-137.814 18.3433 -157.932 49.4044 -170.97 99.7239C-196.631 185.19 -179.298 258.919 -155.577 274.17C-137.06 287.742 -120.221 282.316 -92.3095 273.324C-56.1867 261.691 -1.59904 244.111 99.04 252.491C141.604 252.543 183.088 269.668 227.005 287.82C279.134 309.356 333.032 331.62 391.757 325.205C458.225 317.944 521.727 273.858 585.996 190.408C586.815 189.38 587.648 188.339 588.455 187.311C657.487 99.9971 704.28 8.85712 727.559 -83.6621C748.835 -168.179 749.29 -252.279 728.886 -326.841C713.974 -381.337 688.808 -429.197 654.064 -469.081C619.243 -509.081 576.77 -538.789 527.842 -557.397C427.672 -593.39 315.686 -522.354 239.38 -456.42C148.488 -377.889 72.8978 -276.703 41.1211 -215.922C-2.92635 -131.978 -31.6581 -102.088 -62.0814 -70.4413C-73.3503 -58.717 -85.0095 -46.5893 -97.8789 -31.3126L-100.898 -27.6951C-106.155 -21.358 -111.477 -14.9818 -116.721 -8.3324Z" fill="url(#paint6_linear_1409_2474)"/>
<path d="M544.823 143.277C498.902 201.365 452.616 234.95 403.871 245.712C355.347 256.421 309.335 243.994 264.845 231.957C226.835 221.677 187.525 211.059 147.511 215.444C62.8383 216.342 12.0243 232.751 -21.6001 243.617C-52.8823 253.727 -71.7635 259.83 -91.7248 245.92C-118.27 229.875 -147.405 162.757 -132.48 94.1805C-124.581 43.7829 -109.929 8.9743 -83.5269 -22.1647C-69.3822 -38.5996 -55.4068 -51.456 -40.6245 -65.0671C-9.36838 -93.8378 22.9418 -123.598 60.1577 -190.768C90.0865 -245.083 157.361 -335.051 234.318 -404.252C301.007 -464.214 398.835 -529.953 486.188 -502.601C572.709 -473.05 638.657 -402.743 667.154 -309.703C685.996 -248.154 687.714 -178.432 672.086 -108.061C654.805 -30.2195 617.433 47.088 561.024 121.728C555.649 129.236 550.236 136.432 544.823 143.277ZM-86.3506 -15.0729C-109.591 14.3224 -122.838 47.6085 -130.203 94.5968C-144.933 162.275 -116.501 228.262 -90.4626 243.994C-71.3601 257.293 -53.9363 251.658 -22.2898 241.43C11.4648 230.526 62.474 214.039 147.381 213.154C187.707 208.73 227.226 219.413 265.444 229.745C309.673 241.704 355.399 254.066 403.377 243.473C457.288 231.567 508.245 191.293 559.202 120.349C615.429 45.956 652.658 -31.0523 669.874 -108.568C685.411 -178.55 683.719 -247.88 664.994 -309.039C636.718 -401.363 571.304 -471.124 485.512 -500.428C399.226 -527.455 302.139 -462.132 235.892 -402.561C159.131 -333.542 92.0515 -243.82 62.2007 -189.675C24.8026 -122.166 -7.65068 -92.2894 -39.0369 -63.3885C-53.7802 -49.8164 -67.6906 -36.999 -81.7572 -20.6683C-83.3317 -18.8205 -84.8671 -16.9467 -86.3506 -15.0729Z" fill="url(#paint7_linear_1409_2474)"/>
<path d="M507.412 89.0146C433.423 182.601 369.011 177.539 301.216 172.23C267.786 169.614 233.212 166.895 196.087 175.873C128.721 184.475 84.5827 199.296 52.3506 210.109C15.1738 222.588 -5.30795 229.459 -26.4273 215.614C-41.2226 207.207 -58.3601 188.587 -71.0734 167.038C-86.4412 140.987 -93.7152 113.4 -91.5291 89.3528C-91.5422 48.1811 -89.7594 14.5567 -67.2216 -11.4033V-11.4164C-52.8558 -27.669 -36.1607 -41.2281 -18.4767 -55.5809C13.4431 -81.4889 49.605 -110.858 81.4597 -164.483C103.425 -201.686 159.626 -282.676 230.948 -350.211C268.06 -385.345 303.727 -411.526 336.987 -428C376.272 -447.48 412.174 -453.348 443.716 -445.45C518.343 -423.979 576.6 -368.038 603.601 -291.941C620.687 -243.781 624.46 -188.816 614.48 -133.006C603.458 -71.287 576.418 -9.21722 534.14 51.4473C525.084 65.4618 516.183 77.9409 507.412 89.0146ZM-68.0805 -7.12222C-87.8596 17.8879 -89.4731 50.1591 -89.4601 89.444C-94.4569 144.422 -50.3704 199.634 -25.3473 213.844C-5.02165 227.169 15.1217 220.415 51.687 208.144C83.9971 197.305 128.253 182.445 195.71 173.83C233.056 164.8 267.786 167.519 301.385 170.161C339.681 173.167 375.856 176.003 413.488 161.729C455.896 145.658 493.684 110.238 532.41 50.2892C574.544 -10.1671 601.454 -71.9507 612.437 -133.37C622.352 -188.829 618.618 -243.43 601.649 -291.251C574.87 -366.711 517.107 -422.183 443.183 -443.459C412.174 -451.214 376.754 -445.398 337.924 -426.152C304.859 -409.757 269.348 -383.705 232.392 -348.715C161.24 -281.336 105.182 -200.554 83.2684 -163.442C51.2316 -109.505 14.9005 -80.0055 -17.1494 -53.9804C-34.7553 -39.6796 -51.3984 -26.1726 -65.6472 -10.05C-66.493 -9.0741 -67.2997 -8.09814 -68.0805 -7.12222Z" fill="url(#paint8_linear_1409_2474)"/>
<path d="M470.782 37.8883C426.097 94.4148 382.999 102.795 331.339 112.841C304.377 118.085 276.491 123.511 244.65 136.302C198.637 149.107 164.141 161.989 136.424 172.334C88.8635 190.083 62.6692 199.855 38.8562 185.32C11.1525 170.564 -45.426 124.396 -50.566 84.6684C-51.3077 81.9878 -52.0625 79.2943 -52.8172 76.6006C-60.7288 48.4935 -68.9007 19.4235 -50.9564 -0.615845C-36.8247 -16.0748 -17.1498 -30.1804 3.69635 -45.1058C37.4119 -69.257 75.6297 -96.6355 102.735 -138.145C131.922 -183.195 283.479 -406.959 401.165 -388.273C464.288 -375.169 515.259 -333.62 541.062 -274.283C556.456 -238.876 561.935 -199.682 557.354 -157.781C552.357 -112.12 535.493 -65.3663 507.204 -18.7943C494.829 4.17279 482.753 22.7547 470.782 37.8883ZM-51.1255 2.46811C-66.3372 21.7007 -58.5557 49.3393 -51.0215 76.0931C-50.2537 78.8128 -49.486 81.5194 -48.7443 84.239L-48.7182 84.3691C-43.7214 123.459 12.3106 169.068 39.7801 183.72C62.8644 197.812 88.7594 188.144 135.774 170.603C163.529 160.245 198.065 147.35 244.064 134.559C275.971 121.741 303.948 116.302 331.001 111.032C396.012 98.3836 447.359 88.39 505.616 -19.7313C533.776 -66.095 550.562 -112.602 555.532 -157.99C560.074 -199.565 554.648 -238.446 539.384 -273.541C513.827 -332.319 463.339 -373.477 400.852 -386.451C353.955 -393.894 296.088 -363.067 228.878 -294.817C169.723 -234.738 122.058 -164.535 104.309 -137.143C77.022 -95.3342 38.648 -67.8517 4.80238 -43.5963C-15.9526 -28.7229 -35.5626 -14.6824 -49.5641 0.633392C-50.1106 1.21893 -50.631 1.84351 -51.1255 2.46811Z" fill="url(#paint9_linear_1409_2474)"/>
<path d="M435.739 -3.53064C409.311 29.8856 377.326 48.1812 333.109 73.4776C320.539 80.6605 307.553 88.0907 293.187 96.705C281.905 102.105 271.378 107.193 261.449 111.982C175.137 153.674 135.735 172.698 104.14 155.001C79.9241 142.887 6.14291 105.983 -9.45914 79.9709C-29.7847 56.6263 -50.9562 27.5693 -34.6644 10.1325C-20.9362 -4.28537 2.40837 -19.0416 27.1192 -34.6566C61.9668 -56.6869 101.447 -81.645 124.037 -111.873C128.305 -117.638 133.328 -124.625 139.131 -132.719C162.918 -165.862 198.859 -215.934 238.118 -257.275C285.093 -306.749 325.64 -331.59 358.627 -331.135C410.274 -327.192 455.974 -299.644 480.919 -257.432C508.583 -210.638 508.375 -150.859 480.32 -89.1272C466.54 -51.1176 452.226 -24.3768 435.739 -3.53064ZM-34.6123 12.5919C-47.8071 29.274 -27.5335 56.7174 -8.18385 78.9558L-8.09283 79.0731C7.1839 104.682 80.7439 141.468 104.908 153.557C135.787 170.851 174.942 151.943 260.733 110.511C270.649 105.723 281.189 100.635 292.406 95.2606C306.72 86.6853 319.719 79.2422 332.29 72.0593C403.767 31.1739 443.13 8.66211 478.798 -89.7388C506.645 -151.041 506.892 -210.274 479.5 -256.599C454.816 -298.343 409.597 -325.591 358.536 -329.495C326.082 -329.95 285.952 -305.266 239.289 -256.143C200.095 -214.88 164.193 -164.86 140.445 -131.756C134.642 -123.662 129.619 -116.675 125.338 -110.884C102.566 -80.3958 62.9427 -55.3597 27.978 -33.2513C3.35825 -17.6884 -19.8952 -2.99713 -33.4803 11.2776C-33.8836 11.694 -34.261 12.1365 -34.6123 12.5919Z" fill="url(#paint10_linear_1409_2474)"/>
<path d="M398.953 -1.07138C383.585 18.3694 364.587 37.6539 341.672 57.1077C255.945 122.118 204.441 142.327 169.412 124.695C153.016 117.004 118.988 105.566 88.968 95.4687C65.1941 87.466 42.7344 79.9188 31.7648 75.1822C21.7321 72.0332 9.52636 65.3316 -0.831629 57.2768C-12.1656 48.4543 -19.4135 39.5798 -21.2223 32.2668C-22.3414 27.7514 -21.3915 23.9387 -18.3986 20.9198C-4.91757 7.51688 23.736 -8.42346 54.0553 -25.3007C90.087 -45.3531 127.355 -66.0951 145.312 -85.5618C155.046 -96.1931 168.162 -114.801 183.348 -136.337C221.058 -189.818 272.705 -263.066 315.985 -273.906C357.69 -281.349 400.007 -270.197 426.487 -244.835C448.739 -223.521 458.03 -194.008 453.384 -159.512C452.604 -116.623 445.056 -81.6581 429.623 -49.5301C421.79 -33.1733 411.601 -17.0768 398.953 -1.07138ZM-18.1903 22.8196C-20.1552 25.3051 -20.7148 28.363 -19.8299 31.9154C-16.1344 46.8278 11.8946 67.4397 32.2593 73.8419C43.2549 78.5784 65.6755 86.1256 89.4234 94.1154C119.482 104.226 153.549 115.69 170.036 123.42C204.519 140.778 255.581 120.622 340.787 56.0016C382.362 20.6856 411.029 -14.0449 428.374 -50.1678C443.716 -82.1006 451.224 -116.883 452.005 -159.629C456.599 -193.748 447.438 -222.831 425.538 -243.82C399.382 -268.883 357.534 -279.891 316.31 -272.539C273.59 -261.83 222.125 -188.842 184.532 -135.543C169.307 -113.955 156.165 -95.3213 146.379 -84.625C128.266 -64.989 90.9069 -44.1949 54.771 -24.0775C24.5299 -7.25232 -4.03267 8.64899 -17.3705 21.9088C-17.6698 22.195 -17.9431 22.5074 -18.1903 22.8196Z" fill="url(#paint11_linear_1409_2474)"/>
<path d="M396.038 10.3145C394.112 12.7479 392.147 15.1552 390.13 17.5235C357.378 56.0797 326.03 81.4671 296.96 92.9962C274.149 102.04 253.199 102.508 234.695 94.3885C204.402 81.0897 107.654 66.5809 72.9623 70.1463C60.0279 71.4736 43.0725 68.0512 26.4425 60.7382C11.4 54.1278 -0.246298 45.6046 -3.20015 39.0202C-4.51441 36.0924 -4.12399 33.5549 -2.09403 31.6811C12.1677 18.5515 53.6778 -1.53993 93.8085 -20.9677C124.934 -36.0362 154.33 -50.2589 166.666 -59.2896C180.667 -69.5304 198.143 -100.201 216.634 -132.667C235.697 -166.11 255.398 -200.697 273.356 -216.611C292.146 -233.267 321.151 -246.254 349.062 -250.496C381.672 -255.454 409.103 -248.232 426.292 -230.196C446.397 -209.077 455.726 -169.428 451.237 -124.118C446.474 -76.2059 426.969 -28.8142 396.038 10.3145ZM-1.87284 33.1776C-3.00493 34.609 -3.083 36.3657 -2.10706 38.5127C3.63148 51.252 44.3998 71.8639 72.8452 68.9361C107.68 65.3576 204.779 79.9186 235.19 93.2694C253.381 101.259 274.032 100.791 296.531 91.8641C325.406 80.4131 356.597 55.1428 389.219 16.7297C423.416 -23.5051 445.017 -73.5904 450.04 -124.248C454.438 -168.53 445.004 -208.817 425.42 -229.377C408.517 -247.126 381.464 -254.218 349.245 -249.325C321.554 -245.122 292.783 -232.252 274.162 -215.739C256.348 -199.942 236.699 -165.459 217.688 -132.095C199.119 -99.5114 181.591 -68.7497 167.381 -58.3527C154.954 -49.2569 125.507 -35.0082 94.3289 -19.9137C54.2633 -0.524963 12.8444 19.5274 -1.28726 32.527C-1.50847 32.7482 -1.70368 32.9564 -1.87284 33.1776Z" fill="url(#paint12_linear_1409_2474)"/>
<path d="M165.547 2571.48C145.469 2596.88 125.495 2620.93 105.755 2643.49C-2.69183 2767.39 -100.846 2843.12 -185.961 2868.57C-273.054 2894.61 -344.388 2866.82 -398 2785.96C-560.748 2540.46 -641.075 2362.33 -694.231 2244.47C-718.148 2191.41 -737.055 2149.51 -755.09 2120.59C-785.097 2072.47 -789.678 1963.97 -767.036 1837.45C-742.677 1701.28 -692.734 1574.33 -630.027 1489.15C-543.532 1371.66 -478.223 1221.35 -438.664 1115.96C-392.587 993.192 -354.395 858.408 -336.516 755.4C-324.974 688.906 -288.161 640.578 -230.06 615.659C-129.46 572.496 21.7977 604.897 164.675 700.201C232.406 745.381 302.426 792.096 366.904 841.114C438.186 895.311 494.765 946.607 539.892 997.915C593.777 1059.19 633.179 1122.08 660.35 1190.2C690.695 1266.26 705.256 1347.11 704.865 1437.36C704.202 1591.51 576.575 1917.75 394.516 2230.71C320.045 2358.73 241.931 2474.88 165.547 2571.48ZM-296.034 669.791C-314.603 693.278 -327.095 722.257 -332.95 756.012C-350.869 859.227 -389.126 994.259 -435.281 1117.23C-474.917 1222.84 -540.383 1373.46 -627.125 1491.29C-689.52 1576.04 -739.215 1702.44 -763.484 1838.08C-785.969 1963.77 -781.584 2071.29 -752.02 2118.69C-733.854 2147.82 -714.921 2189.81 -690.939 2242.99C-637.834 2360.76 -557.586 2538.72 -394.994 2783.98C-342.371 2863.36 -272.39 2890.67 -187.002 2865.14C-102.537 2839.88 -4.95605 2764.52 103.035 2641.14C197.74 2532.94 297.456 2390.39 391.406 2228.9C573.191 1916.43 700.61 1590.94 701.274 1437.36C701.664 1347.59 687.181 1267.18 657.018 1191.55C629.991 1123.82 590.811 1061.27 537.199 1000.31C436.638 885.942 297.364 793.046 162.698 703.207C20.8218 608.567 -129.122 576.282 -228.616 618.977C-256.098 630.753 -278.714 647.878 -296.034 669.791Z" fill="url(#paint13_linear_1409_2474)"/>
<path d="M130.374 2518.11C114.486 2538.2 98.7018 2557.33 83.0477 2575.44C-15.6785 2689.66 -105.049 2759.66 -182.577 2783.46C-260.952 2807.52 -325.273 2783.24 -373.745 2711.28C-521.763 2495.01 -601.608 2328.25 -654.439 2217.89C-679.24 2166.09 -698.837 2125.18 -717.224 2096.04C-746.919 2048.94 -753.152 1946.78 -733.516 1829.4C-712.475 1703.73 -666.814 1584.99 -608.231 1503.62C-528.972 1394.84 -468.125 1256.96 -431.052 1160.44C-387.486 1047.06 -351.988 927.192 -333.653 831.576C-322.072 771.237 -287.563 727.449 -233.847 704.951C-140.612 665.9 -1.46875 695.751 129.268 782.857C252.705 864.927 380.345 949.795 474.413 1057.06C523.965 1113.56 560.27 1171.55 585.423 1234.38C613.478 1304.46 627.102 1378.9 627.076 1461.94C627.506 1604.51 511.915 1905.9 345.979 2194.87C275.946 2316.8 202.282 2427.16 130.374 2518.11ZM-296.737 756.025C-313.276 776.949 -324.635 802.545 -330.335 832.226C-348.709 928.038 -384.259 1048.12 -427.89 1161.67C-465.041 1258.37 -526.018 1396.54 -605.485 1505.61C-663.769 1586.56 -709.208 1704.8 -730.172 1829.96C-749.69 1946.54 -743.627 2047.81 -714.361 2094.24C-695.871 2123.54 -676.235 2164.53 -651.394 2216.42C-598.602 2326.68 -518.822 2493.29 -370.947 2709.36C-323.399 2779.96 -260.353 2803.78 -183.566 2780.21C-106.662 2756.59 -17.8126 2686.94 80.4843 2573.2C166.875 2473.25 257.663 2341.84 343.026 2193.17C508.701 1904.67 624.109 1603.97 623.68 1461.93C623.706 1379.33 610.16 1305.3 582.274 1235.63C557.277 1173.17 521.167 1115.48 471.863 1059.28C378.081 952.358 250.636 867.621 127.382 785.68C-2.4317 699.186 -140.352 669.453 -232.546 708.074C-258.753 719.082 -280.315 735.244 -296.737 756.025Z" fill="url(#paint14_linear_1409_2474)"/>
<path d="M95.4221 2464.64C83.6588 2479.51 71.9605 2493.79 60.3403 2507.45C-28.6655 2612.02 -109.252 2676.26 -179.182 2698.42C-248.851 2720.49 -306.158 2699.7 -349.49 2636.62C-483.701 2448.18 -559.955 2298.52 -615.636 2189.24C-640.906 2139.65 -660.867 2100.48 -679.358 2071.53C-709.183 2024.72 -716.899 1931.23 -699.983 1821.4C-682.234 1706.2 -640.854 1595.66 -586.435 1518.13C-455.868 1336.75 -362.021 1053.75 -330.804 907.79C-319.184 853.593 -286.965 814.347 -237.621 794.282C-151.751 759.356 -24.7358 786.669 93.8476 865.578C200.642 936.314 321.684 1016.48 408.933 1116.24C454.152 1167.95 487.373 1221.05 510.483 1278.58C536.235 1342.68 548.922 1410.71 549.274 1486.55C550.029 1552.28 525.539 1652.89 478.42 1777.48C433.163 1897.17 368.881 2032.71 297.429 2159.1C231.95 2274.91 162.788 2379.44 95.4221 2464.64ZM-297.531 842.285C-312.027 860.62 -322.216 882.832 -327.707 908.454C-358.989 1054.68 -453.005 1338.21 -583.859 1519.97C-637.991 1597.09 -679.189 1707.14 -696.86 1821.88C-713.659 1930.97 -706.125 2023.66 -676.69 2069.82C-658.109 2098.91 -638.121 2138.14 -612.812 2187.8C-557.183 2296.98 -480.982 2446.52 -346.887 2634.8C-304.414 2696.61 -248.317 2717 -180.132 2695.4C-110.775 2673.44 -30.6824 2609.51 57.933 2505.41C135.995 2413.69 217.857 2293.41 294.657 2157.54C366.031 2031.28 430.235 1895.91 475.441 1776.36C522.416 1652.13 546.853 1551.92 546.086 1486.58C545.747 1411.14 533.125 1343.5 507.53 1279.77C484.549 1222.58 451.51 1169.77 406.526 1118.32C319.563 1018.88 198.703 938.825 92.0779 868.206C-25.6466 789.884 -151.53 762.674 -236.437 797.21C-261.447 807.386 -281.981 822.61 -297.531 842.285Z" fill="url(#paint15_linear_1409_2474)"/>
<path d="M60.7703 2411.08C53.0279 2420.88 45.3245 2430.36 37.647 2439.54C-41.6384 2534.44 -113.455 2592.95 -175.785 2613.45C-236.762 2633.5 -287.042 2616.17 -325.247 2561.96C-446.966 2399.64 -523.116 2259.52 -578.718 2157.22C-602.674 2113.13 -623.364 2075.06 -641.517 2047C-671.042 2001.18 -680.372 1913.86 -666.475 1813.39C-651.979 1708.62 -614.867 1606.29 -564.652 1532.64C-513.382 1460.38 -461.931 1362.46 -415.84 1249.47C-378.846 1158.78 -346.809 1062.02 -327.967 983.992C-316.32 935.924 -286.365 901.193 -241.368 883.561C-162.863 852.799 -47.9885 877.601 58.402 948.26C170.362 1022.07 269.101 1090.1 343.416 1175.39C384.314 1222.33 414.438 1270.53 435.519 1322.76C458.98 1380.89 470.731 1442.5 471.446 1511.12C472.748 1571.42 451.394 1663.26 409.676 1776.69C369.766 1885.22 312.654 2008.33 248.867 2123.36C188.046 2233.07 123.491 2331.74 60.7703 2411.08ZM-298.441 928.559C-310.881 944.291 -319.86 963.107 -325.091 984.682C-343.972 1062.85 -376.048 1159.77 -413.108 1250.58C-459.289 1363.78 -510.858 1461.89 -562.231 1534.31C-612.187 1607.57 -649.116 1709.44 -663.56 1813.78C-677.366 1913.57 -668.206 2000.15 -639.045 2045.39C-620.84 2073.53 -600.124 2111.66 -576.142 2155.8C-520.578 2258.02 -444.494 2398.03 -322.866 2560.21C-285.481 2613.29 -236.306 2630.25 -176.709 2610.64C-114.912 2590.31 -43.5513 2532.11 35.3829 2437.64C105.117 2354.16 178.052 2245 246.29 2121.94C310 2007.04 367.047 1884.07 406.904 1775.69C448.492 1662.6 469.794 1571.12 468.492 1511.18C467.777 1442.92 456.105 1381.66 432.786 1323.88C411.823 1271.96 381.868 1224.02 341.191 1177.35C267.123 1092.33 168.566 1024.42 56.7755 950.732C-48.8344 880.594 -162.668 855.909 -240.288 886.32C-264.166 895.663 -283.724 909.938 -298.441 928.559Z" fill="url(#paint16_linear_1409_2474)"/>
</g>
<mask id="mask2_1409_2474" style="mask-type:luminance" maskUnits="userSpaceOnUse" x="-355" y="0" width="2078" height="1485">
<path d="M-355 1484.73L1723 1484.73L1723 0.000244141L-355 0.000244141V1484.73Z" fill="white"/>
</mask>
<g mask="url(#mask2_1409_2474)">
<path d="M353.278 1148.7C375.074 1121.13 398.029 1093.95 422.089 1067.22C557.445 916.86 687.922 854.803 820.949 877.497C936.228 897.172 1035.79 977.095 1123.62 1047.62C1182.26 1094.69 1237.64 1139.15 1288.66 1157.79C1458.5 1219.83 1527.24 1194.53 1568.33 1179.43C1592.11 1170.68 1607.82 1164.89 1628.14 1182.67C1648.05 1200.08 1614.57 1296.75 1522.76 1486.89C1483.05 1569.13 1426.63 1612.74 1381.3 1647.8C1358.59 1665.35 1338.94 1680.55 1325.88 1697.17C1289.9 1742.92 1285.02 1759.34 1274.33 1795.31C1265.42 1825.3 1251.96 1870.64 1212.15 1959.06C1177.15 2036.76 1100.51 2140.69 1012.12 2230.29C961.823 2281.28 909.565 2326.13 856.825 2363.61C797.787 2405.56 739.439 2437.23 683.394 2457.74C579.58 2495.72 485.421 2495.13 403.494 2455.96C322.79 2417.36 254.37 2360.02 200.121 2285.51C146.236 2211.5 109.059 2124.35 89.6442 2026.47C61.3679 1883.99 73.2484 1725.29 123.971 1567.51C151.011 1483.4 189.073 1399.35 237.102 1317.69C270.857 1260.33 309.751 1203.75 353.278 1148.7ZM1476.78 1553.75C1492.16 1534.29 1506.72 1511.83 1519.53 1485.33C1561.29 1398.84 1590.41 1332.92 1608.56 1283.79C1634.75 1212.91 1632.39 1191.15 1625.78 1185.37C1607.08 1169.02 1593.75 1173.91 1569.57 1182.81C1528.04 1198.09 1458.5 1223.67 1287.42 1161.17C1235.84 1142.33 1180.24 1097.68 1121.37 1050.42C1033.87 980.179 934.692 900.555 820.351 881.036C688.638 858.564 559.241 920.243 424.769 1069.61C352.836 1149.52 290.74 1233.6 240.212 1319.51C192.313 1400.94 154.369 1484.75 127.407 1568.61C76.8658 1725.8 65.0374 1883.87 93.1836 2025.75C112.507 2123.11 149.463 2209.79 203.048 2283.36C256.946 2357.37 324.911 2414.34 405.068 2452.68C486.071 2491.42 579.306 2491.98 682.171 2454.33C737.903 2433.93 795.978 2402.41 854.756 2360.65C907.327 2323.3 959.416 2278.58 1009.57 2227.74C1097.69 2138.43 1174.06 2034.9 1208.88 1957.55C1248.59 1869.35 1262.01 1824.16 1270.9 1794.26C1281.71 1757.83 1286.66 1741.2 1323.06 1694.92C1323.13 1694.84 1323.19 1694.76 1323.25 1694.68C1336.61 1677.78 1356.31 1662.54 1379.11 1644.92C1409.48 1621.46 1444.88 1594.08 1476.78 1553.75Z" fill="url(#paint17_linear_1409_2474)"/>
<path d="M979.156 -961.072C999.234 -986.473 1019.21 -1010.52 1038.95 -1033.08C1147.4 -1156.98 1245.55 -1232.71 1330.66 -1258.16C1417.76 -1284.2 1489.09 -1256.4 1542.7 -1175.54C1705.45 -930.05 1785.78 -751.921 1838.93 -634.054C1862.85 -581.002 1881.76 -539.101 1899.79 -510.174C1929.8 -462.054 1934.38 -353.555 1911.74 -227.034C1887.38 -90.871 1837.44 36.0793 1774.73 121.26C1688.24 238.75 1622.93 389.058 1583.37 494.446C1537.29 617.22 1499.1 752.004 1481.22 855.011C1469.68 921.505 1432.86 969.834 1374.76 994.753C1274.16 1037.92 1122.91 1005.51 980.028 910.21C912.297 865.031 842.277 818.316 777.8 769.297C706.517 715.1 649.938 663.805 604.811 612.496C550.926 551.22 511.524 488.33 484.354 420.21C454.008 344.151 439.447 263.305 439.838 173.05C440.501 18.9028 568.128 -307.335 750.187 -620.299C824.671 -748.317 902.772 -864.467 979.156 -961.072ZM1440.74 940.621C1459.31 917.133 1471.8 888.154 1477.65 854.4C1495.57 751.184 1533.83 616.153 1579.98 493.184C1619.62 387.574 1685.09 236.954 1771.83 119.125C1834.22 34.3748 1883.92 -92.0291 1908.19 -227.672C1930.67 -353.36 1926.29 -460.883 1896.72 -508.274C1878.56 -537.41 1859.62 -579.401 1835.64 -632.583C1782.54 -750.347 1702.29 -928.307 1539.7 -1173.57C1487.07 -1252.94 1417.09 -1280.26 1331.7 -1254.73C1247.24 -1229.47 1149.66 -1154.11 1041.67 -1030.73C946.963 -922.529 847.248 -779.99 753.297 -618.504C571.512 -306.033 444.093 19.4624 443.429 173.036C443.039 262.81 457.522 343.215 487.685 418.844C514.712 486.574 553.893 549.125 607.505 610.089C708.066 724.456 847.339 817.353 982.006 907.191C1123.88 1001.83 1273.82 1034.12 1373.32 991.422C1400.8 979.658 1423.42 962.521 1440.74 940.621Z" fill="url(#paint18_linear_1409_2474)"/>
<path d="M1014.34 -907.695C1030.23 -927.786 1046.01 -946.914 1061.67 -965.028C1160.39 -1079.25 1249.76 -1149.25 1327.29 -1173.05C1405.67 -1197.11 1469.99 -1172.83 1518.46 -1100.87C1666.48 -884.597 1746.32 -717.842 1799.15 -607.482C1823.96 -555.679 1843.55 -514.768 1861.94 -485.633C1891.64 -438.527 1897.87 -336.366 1878.23 -218.992C1857.19 -93.3173 1811.53 25.4222 1752.95 106.79C1673.69 215.575 1612.84 353.455 1575.77 449.969C1532.2 563.348 1496.7 683.22 1478.37 778.836C1466.79 839.175 1432.28 882.962 1378.56 905.461C1285.33 944.511 1146.19 914.661 1015.45 827.555C892.011 745.484 764.371 660.617 670.303 553.354C620.751 496.854 584.446 438.857 559.293 376.032C531.238 305.947 517.614 231.515 517.64 148.469C517.21 5.90344 632.801 -295.493 798.737 -584.463C868.757 -706.391 942.421 -816.75 1014.34 -907.695ZM1441.45 854.387C1457.99 833.462 1469.35 807.867 1475.05 778.185C1493.42 682.374 1528.98 562.294 1572.61 448.733C1609.76 352.037 1670.73 213.857 1750.2 104.786C1808.48 23.8347 1853.92 -94.3973 1874.89 -219.565C1894.41 -336.144 1888.34 -437.408 1859.08 -483.837C1840.59 -513.141 1820.95 -554.131 1796.11 -606.025C1743.32 -716.28 1663.54 -882.893 1515.66 -1098.97C1468.12 -1169.56 1405.07 -1193.39 1328.28 -1169.81C1251.38 -1146.19 1162.53 -1076.55 1064.23 -962.803C977.842 -862.853 887.053 -731.44 801.691 -582.771C636.015 -294.27 520.607 6.42395 521.036 148.469C521.01 231.073 534.556 305.101 562.442 374.77C587.439 437.23 623.549 494.915 672.854 551.116C766.635 658.04 894.08 742.778 1017.33 824.718C1147.15 911.212 1285.07 940.946 1377.26 902.325C1403.47 891.329 1425.02 875.155 1441.45 854.387Z" fill="url(#paint19_linear_1409_2474)"/>
<path d="M1049.28 -854.239C1061.04 -869.112 1072.74 -883.387 1084.36 -897.05C1173.37 -1001.62 1253.96 -1065.86 1323.88 -1088.02C1393.55 -1110.09 1450.86 -1089.3 1494.19 -1026.23C1628.4 -837.778 1704.66 -688.121 1760.34 -578.841C1785.61 -529.251 1805.57 -490.083 1824.06 -461.13C1853.89 -414.324 1861.6 -320.829 1844.69 -211.003C1826.94 -95.8027 1785.56 14.739 1731.14 92.2678C1600.57 273.65 1506.72 556.646 1475.51 702.608C1463.89 756.805 1431.67 796.051 1382.32 816.117C1296.45 851.042 1169.44 823.729 1050.86 744.821C944.061 674.085 823.018 593.914 735.769 494.16C690.551 442.448 657.33 389.344 634.219 331.816C608.468 267.716 595.78 199.686 595.429 123.849C594.674 58.1227 619.164 -42.4903 666.282 -167.085C711.54 -286.775 775.822 -422.314 847.274 -548.704C912.766 -664.503 981.928 -769.033 1049.28 -854.239ZM1442.25 768.126C1456.74 749.792 1466.93 727.579 1472.42 701.958C1503.7 555.736 1597.72 272.205 1728.57 90.446C1782.71 13.3206 1823.9 -96.7266 1841.58 -211.471C1858.37 -320.555 1850.84 -413.244 1821.41 -459.412C1802.82 -488.495 1782.84 -527.728 1757.53 -577.384C1701.9 -686.572 1625.7 -836.113 1491.6 -1024.39C1449.13 -1086.2 1393.03 -1106.59 1324.85 -1084.99C1255.49 -1063.03 1175.4 -999.095 1086.78 -894.994C1008.72 -803.282 926.859 -682.994 850.059 -547.13C778.685 -420.869 714.481 -285.5 669.275 -165.953C622.3 -41.7225 597.862 58.487 598.63 123.836C598.968 199.27 611.591 266.909 637.186 330.644C660.166 387.835 693.205 440.639 738.19 492.091C825.153 591.533 946.013 671.586 1052.64 742.205C1170.36 820.528 1296.25 847.737 1381.15 813.202C1406.16 803.026 1426.68 787.801 1442.25 768.126Z" fill="url(#paint20_linear_1409_2474)"/>
<path d="M1083.95 -800.666C1091.69 -810.465 1099.39 -819.951 1107.07 -829.125C1186.36 -924.025 1258.17 -982.543 1320.5 -1003.04C1381.48 -1023.09 1431.76 -1005.76 1469.96 -951.547C1591.68 -789.228 1667.83 -649.109 1723.44 -546.805C1747.39 -502.718 1768.08 -464.643 1786.23 -436.588C1815.76 -390.771 1825.09 -303.444 1811.19 -202.974C1796.7 -98.2101 1759.58 4.12067 1709.37 77.7717C1658.1 150.03 1606.65 247.95 1560.56 360.938C1523.56 451.635 1491.53 548.397 1472.68 626.42C1461.04 674.488 1431.08 709.219 1386.08 726.851C1307.58 757.612 1192.71 732.81 1086.31 662.152C974.355 588.345 875.616 520.315 801.301 435.018C760.403 388.082 730.278 339.883 709.198 287.651C685.736 229.524 673.986 167.909 673.27 99.2944C671.969 38.9942 693.323 -52.8483 735.041 -166.279C774.951 -274.803 832.063 -397.915 895.85 -512.946C956.658 -622.655 1021.23 -721.342 1083.95 -800.666ZM1443.16 681.853C1455.6 666.121 1464.58 647.305 1469.81 625.73C1488.69 547.564 1520.76 450.646 1557.82 359.832C1604.01 246.636 1655.57 148.521 1706.95 76.106C1756.9 2.8454 1793.83 -99.0298 1808.28 -203.365C1822.08 -303.158 1812.92 -389.743 1783.76 -434.975C1765.56 -463.121 1744.84 -501.248 1720.86 -545.386C1665.29 -647.613 1589.21 -787.615 1467.58 -949.803C1430.2 -1002.88 1381.02 -1019.84 1321.43 -1000.23C1259.63 -979.901 1188.27 -921.696 1109.33 -827.225C1039.6 -743.75 966.664 -634.587 898.427 -511.528C834.717 -396.627 777.67 -273.658 737.813 -165.277C696.225 -52.1847 674.923 39.2935 676.224 99.2294C676.94 167.493 688.612 228.756 711.931 286.532C732.894 338.452 762.849 386.39 803.526 433.066C877.593 518.077 976.151 585.99 1087.94 659.68C1193.55 729.817 1307.39 754.502 1385 724.092C1408.88 714.749 1428.44 700.461 1443.16 681.853Z" fill="url(#paint21_linear_1409_2474)"/>
<path d="M1118.22 -746.964C1122.07 -751.83 1125.91 -756.619 1129.75 -761.316C1199.32 -846.562 1262.35 -899.341 1317.08 -918.183C1369.38 -936.192 1412.64 -922.295 1445.71 -876.881C1556.74 -738.727 1633.71 -606.207 1689.91 -509.446C1712.21 -471.072 1731.45 -437.942 1748.38 -412.06C1778.06 -366.529 1788.74 -287.399 1777.67 -194.958C1766.38 -100.578 1733.53 -6.4585 1687.57 63.2758C1593.11 198.814 1508.48 410.698 1469.82 550.218C1458.14 592.197 1430.44 622.412 1389.74 637.598C1318.6 664.143 1215.89 641.853 1121.72 579.457C1026.07 516.763 934.588 454.03 866.767 375.837C830.202 333.689 803.175 290.384 784.124 243.434C762.966 191.293 752.152 136.094 751.059 74.6747C749.198 19.8008 767.416 -63.2973 803.734 -165.589C838.308 -262.962 888.251 -373.686 944.348 -477.344C1000.39 -580.858 1060.25 -673.651 1118.22 -746.964ZM1444.24 595.541C1454.58 582.45 1462.31 567.017 1467.19 549.49C1505.92 409.748 1590.69 197.513 1685.32 61.7402C1731.03 -7.6167 1763.72 -101.307 1774.96 -195.284C1785.95 -287.1 1775.43 -365.566 1746.09 -410.576C1729.12 -436.51 1709.86 -469.679 1687.55 -508.079C1631.4 -604.763 1554.48 -737.178 1443.54 -875.228C1411.22 -919.601 1368.99 -933.173 1317.96 -915.606C1263.71 -896.933 1201.1 -844.441 1131.86 -759.599C1070.47 -684.334 1006.44 -586.298 946.768 -476.029C890.723 -372.489 840.846 -261.908 806.323 -164.665C770.123 -62.6988 751.957 20.048 753.805 74.6096C754.885 135.703 765.633 190.59 786.675 242.419C805.608 289.069 832.492 332.128 868.849 374.054C936.436 451.974 1027.75 514.59 1123.23 577.18C1216.69 639.107 1318.45 661.28 1388.79 635.047C1411.65 626.524 1430.31 613.147 1444.24 595.541Z" fill="url(#paint22_linear_1409_2474)"/>
<path d="M1151.95 -693.105C1152.09 -693.287 1152.24 -693.469 1152.38 -693.638C1212.22 -769.228 1266.47 -816.281 1313.6 -833.471C1357.24 -849.385 1393.53 -838.871 1421.45 -802.215C1524.28 -686.286 1604.08 -557.644 1662.35 -463.72C1680.6 -434.311 1696.36 -408.911 1710.53 -387.518C1739.95 -342.911 1752.21 -269.794 1744.16 -186.93C1736 -102.869 1707.44 -16.9466 1665.79 48.7928C1625.55 107.831 1585.03 182.9 1545.35 271.945C1515.48 338.934 1486.92 412.598 1466.98 474.056C1455.26 509.983 1429.79 535.696 1393.32 548.423C1329.54 570.687 1239.06 550.895 1157.15 496.789C1076.98 444.635 993.574 387.77 932.272 316.708C900.04 279.336 876.097 240.936 859.076 199.283C840.208 153.127 830.332 104.33 828.874 50.1201C824.099 -47.9425 890.007 -245.629 992.858 -441.754C1043.91 -539.127 1098.91 -626.012 1151.95 -693.105ZM1445.56 509.19C1453.79 498.793 1460.18 486.769 1464.58 473.262C1484.54 411.726 1513.14 337.971 1543.03 270.904C1582.78 181.716 1623.38 106.529 1663.67 47.4005C1705.09 -17.9876 1733.52 -103.506 1741.64 -187.19C1749.63 -269.494 1737.51 -342.026 1708.41 -386.152C1694.23 -407.57 1678.46 -432.984 1660.19 -462.418C1601.96 -556.265 1522.22 -684.803 1419.49 -800.64C1392.25 -836.386 1356.92 -846.627 1314.45 -831.129C1267.76 -814.095 1213.89 -767.315 1154.33 -692.09C1154.19 -691.908 1154.04 -691.725 1153.9 -691.556C1100.95 -624.594 1046.04 -537.839 995.057 -440.622C892.401 -244.861 826.61 -47.6953 831.359 49.9899C832.804 103.914 842.628 152.425 861.379 198.294C878.296 239.687 902.096 277.866 934.146 315.029C995.226 385.844 1078.47 442.592 1158.49 494.655H1158.51C1239.76 548.345 1329.41 568.019 1392.46 546.015C1414.48 538.364 1432.38 525.872 1445.56 509.19Z" fill="url(#paint23_linear_1409_2474)"/>
<path d="M1185.14 -639.337C1231.23 -697.646 1273.21 -734.498 1310.04 -749.007C1345.06 -762.787 1374.35 -755.604 1397.14 -727.627C1495.05 -632.765 1581.64 -501.144 1644.86 -405.033C1654.78 -389.951 1664.16 -375.703 1672.67 -362.989C1702.29 -318.59 1715.77 -253.228 1710.64 -178.914C1705.46 -103.988 1681.79 -28.2675 1644.01 34.2968C1616.22 76.2362 1543.16 195.548 1464.12 397.867C1452.36 427.796 1429.05 449.046 1396.73 459.287C1340.35 477.166 1262.13 459.846 1192.6 414.094C1127.04 371.868 1052.51 321.458 997.777 257.527C939.936 189.966 910.137 114.077 906.702 25.5133C903.735 -18.5992 915.642 -84.2475 941.12 -164.288C965.389 -240.528 1000.03 -324.238 1041.3 -406.373C1083.92 -491.189 1130.13 -567.195 1174.94 -626.155C1178.36 -630.657 1181.76 -635.056 1185.14 -639.337ZM1447.27 422.786C1453.31 415.148 1458.24 406.534 1461.97 397.035C1474.62 364.672 1501 299.466 1535.65 226.466C1572.02 149.835 1607.82 84.7595 1642.05 33.0736C1679.63 -29.1394 1703.19 -104.495 1708.34 -179.07C1713.44 -252.877 1700.09 -317.745 1670.76 -361.714C1662.24 -374.427 1652.87 -388.676 1642.94 -403.771C1579.76 -499.803 1493.24 -631.321 1395.49 -726.013L1395.4 -726.117C1373.31 -753.262 1344.87 -760.249 1310.87 -746.859C1272.29 -731.674 1225.91 -689.448 1176.74 -624.763C1132 -565.907 1085.87 -490.031 1043.32 -405.332C1002.11 -323.301 967.51 -239.708 943.28 -163.585C917.88 -83.8181 906.025 -18.4691 908.966 25.3962C912.388 113.452 942.005 188.886 999.495 256.044C1054.03 319.74 1128.4 370.034 1193.82 412.168H1193.84C1262.8 457.556 1340.28 474.772 1396.03 457.101C1417.39 450.321 1434.73 438.662 1447.27 422.786Z" fill="url(#paint24_linear_1409_2474)"/>
<path d="M1216.36 -584.268C1249.09 -625.661 1279.85 -653.312 1306.27 -664.88C1332.77 -676.501 1355.18 -672.493 1372.85 -653C1470.8 -580.507 1585.74 -410.902 1634.82 -338.461C1696 -247.841 1690.81 -100.526 1622.2 19.8008C1563.39 112.086 1505.86 230.149 1471.49 300.69C1467.83 308.185 1464.41 315.212 1461.23 321.692C1449.39 345.713 1428.14 362.512 1399.8 370.242C1350.87 383.606 1285.04 368.719 1227.99 331.399C1169.48 294.209 1109.01 252.348 1063.24 198.359C1014.41 140.752 988.642 76.1712 984.478 0.919617C977.542 -75.2819 1018.79 -221.335 1089.57 -371.122C1123.6 -443.147 1160.85 -508.079 1197.27 -558.906C1203.71 -567.846 1210.08 -576.304 1216.36 -584.268ZM1449.6 336.292C1453.36 331.529 1456.63 326.364 1459.38 320.781C1462.56 314.301 1465.98 307.274 1469.62 299.779C1504.02 229.199 1561.58 111.058 1620.43 18.7208C1688.64 -100.891 1693.86 -247.321 1633.1 -337.302C1584.06 -409.665 1469.22 -579.154 1371.54 -651.399L1371.46 -651.464L1371.39 -651.543C1354.37 -670.372 1332.75 -674.223 1307.11 -662.994C1275.97 -649.356 1238.59 -612.934 1199 -557.709C1162.65 -506.986 1125.47 -442.158 1091.48 -370.25C1020.85 -220.775 979.676 -75.1517 986.586 0.750488C995.825 167.858 1111.48 254.846 1229.15 329.63L1229.17 329.643C1285.73 366.65 1350.92 381.433 1399.29 368.225C1420.42 362.473 1437.54 351.556 1449.6 336.292Z" fill="url(#paint25_linear_1409_2474)"/>
<path d="M1245.91 -529.316C1265.93 -554.625 1284.98 -572.531 1301.92 -581.314C1320.18 -590.774 1335.84 -589.798 1348.49 -578.412C1380.93 -565.998 1424.08 -529.433 1476.73 -469.705C1515.09 -426.204 1558.92 -369.418 1596.97 -313.919C1657.89 -224.77 1659.18 -105.432 1600.41 5.30469C1577.9 42.5986 1555.14 81.9747 1533.15 120.036C1504.69 169.276 1477.82 215.77 1458.37 245.529C1441.91 270.513 1411.97 284.177 1374.1 284.034C1338.2 283.903 1297.87 271.021 1263.45 248.717C1183.62 198.971 1149.54 164.058 1128.76 139.204C1088.94 91.5779 1067.21 38.3044 1062.32 -23.6613C1054.26 -89.3096 1083.1 -208.986 1137.58 -335.949C1172.38 -417.044 1210.62 -484.683 1245.91 -529.316ZM1453.06 249.706C1454.37 248.041 1455.62 246.31 1456.81 244.527C1476.24 214.82 1503.09 168.339 1531.54 119.125C1553.54 81.0507 1576.3 41.6747 1598.8 4.4068C1657.21 -105.666 1655.96 -224.289 1595.44 -312.852C1557.43 -368.299 1513.66 -425.02 1475.35 -468.456C1422.81 -528.041 1379.85 -564.463 1347.67 -576.708L1347.5 -576.773L1347.37 -576.89C1335.34 -587.807 1320.33 -588.731 1302.78 -579.635C1256.3 -555.549 1193.65 -461.872 1139.28 -335.169C1084.92 -208.491 1056.12 -89.1794 1064.15 -23.8044C1069.02 37.797 1090.62 90.7321 1130.18 138.046C1169.57 185.164 1222.62 221.118 1264.43 247.169L1264.44 247.182C1298.57 269.303 1338.54 282.069 1374.1 282.212C1408.6 282.316 1436.35 270.826 1453.06 249.706Z" fill="url(#paint26_linear_1409_2474)"/>
<path d="M1272.09 -474.455C1280.37 -484.917 1288.31 -493.011 1295.69 -498.307C1306.47 -506.075 1315.99 -507.936 1323.95 -503.85C1353.54 -511.254 1402.12 -470.824 1437.73 -435.521C1477.89 -395.716 1523.26 -341.089 1559.11 -289.377C1589.93 -244.835 1606.6 -200.84 1610.07 -154.867C1613.62 -107.917 1603.33 -60.2654 1578.62 -9.17813C1537.3 65.1235 1488.96 135.209 1455.43 169.393C1439.02 185.971 1413.24 194.364 1382.84 193.024C1354.41 191.762 1323.79 181.937 1298.87 166.036C1231.86 125.567 1153.26 64.6422 1140.12 -48.2287C1130.99 -102.881 1147.59 -196.949 1184.53 -299.8C1211.53 -374.961 1243.78 -438.631 1272.09 -474.455ZM1481.32 137.005C1511.02 99.4376 1546.09 45.9431 1577.16 -9.94583C1601.73 -60.7208 1611.97 -108.1 1608.44 -154.75C1604.98 -200.424 1588.42 -244.159 1557.77 -288.453C1490.76 -385.098 1373.94 -515.301 1324.05 -502.198L1323.74 -502.119L1323.46 -502.276C1316.02 -506.231 1307.01 -504.449 1296.64 -496.993C1264.25 -473.7 1220.85 -396.08 1186.07 -299.254C1149.22 -196.65 1132.64 -102.895 1141.73 -48.463C1154.8 63.7442 1233.03 124.357 1299.72 164.631L1299.73 164.644C1324.43 180.389 1354.75 190.135 1382.91 191.371C1412.84 192.699 1438.17 184.475 1454.26 168.235C1462.49 159.842 1471.63 149.276 1481.32 137.005Z" fill="url(#paint27_linear_1409_2474)"/>
<path d="M1289.22 -419.945C1292.78 -424.461 1296.14 -427.519 1299.2 -428.924C1304.07 -437.317 1311.38 -441.793 1320.92 -442.236C1348.84 -443.524 1389.92 -410.628 1419.47 -382.807C1454.63 -349.704 1492.7 -305.604 1521.27 -264.849C1553.58 -218.719 1570.63 -182.336 1576.55 -146.864C1582.86 -109.036 1576.59 -69.8817 1556.82 -23.6741C1532.12 27.4132 1491.16 73.2955 1452.45 93.2437C1417.61 111.006 1365.03 102.17 1334.31 83.3541C1269.36 46.3594 1230.21 -6.18527 1217.94 -72.7835C1211.87 -98.7175 1210.84 -132.472 1214.88 -173.045C1218.38 -208.179 1225.65 -247.464 1235.95 -286.645C1252.06 -347.999 1272.84 -399.216 1289.22 -419.945ZM1300.2 -427.818L1299.98 -427.727C1297.01 -426.426 1293.73 -423.459 1290.26 -419.06C1254.2 -373.464 1195.85 -173.514 1219.32 -73.0828C1231.51 -6.87491 1270.44 45.3445 1335.01 82.1179L1335.04 82.1309C1365.42 100.739 1417.39 109.509 1451.78 91.9683C1490.24 72.1503 1530.95 26.5283 1555.52 -24.2727C1575.17 -70.194 1581.4 -109.088 1575.13 -146.643C1569.25 -181.881 1552.28 -218.095 1520.09 -264.042C1491.55 -304.719 1453.57 -348.741 1418.47 -381.779C1389.13 -409.418 1348.39 -442.093 1320.96 -440.817C1311.86 -440.401 1304.9 -436.094 1300.29 -428.026L1300.2 -427.818Z" fill="url(#paint28_linear_1409_2474)"/>
<path d="M1284.04 -379.997C1287.61 -384.512 1292.15 -387.492 1297.64 -388.91C1311.41 -392.463 1338.28 -387.752 1388.09 -345.149C1421.48 -316.587 1457.12 -277.393 1483.43 -240.307C1514.52 -196.468 1534.05 -167.775 1543.02 -138.874C1552.29 -108.971 1549.98 -79.7973 1535.03 -38.1701C1526.79 -15.229 1511.75 0.802429 1490.3 9.46878C1443.95 28.2068 1382.49 6.95737 1369.77 0.685303C1345.99 -11.026 1326.04 -32.2494 1310.49 -62.4125C1297.11 -88.3726 1286.9 -121.008 1280.18 -159.408C1268.01 -228.817 1269.51 -305.344 1274.96 -353.816C1276.23 -365.228 1279.28 -373.972 1284.04 -379.997ZM1520.8 -14.5524C1526.24 -21.4361 1530.62 -29.4518 1533.89 -38.5865C1548.74 -79.9404 1551.06 -108.893 1541.86 -138.523C1532.94 -167.255 1513.46 -195.882 1482.44 -239.617C1434.48 -307.244 1341.17 -398.904 1297.94 -387.752C1285.67 -384.59 1278.33 -373.126 1276.15 -353.698C1270.72 -305.305 1269.22 -228.908 1281.37 -159.629C1288.07 -121.346 1298.24 -88.828 1311.57 -62.972C1327.01 -33.0432 1346.77 -11.9889 1370.31 -0.407715C1382.95 5.81229 1443.93 26.9186 1489.87 8.3367C1502.43 3.26181 1512.79 -4.40262 1520.8 -14.5524Z" fill="url(#paint29_linear_1409_2474)"/>
</g>
</g>
</g>
<defs>
<linearGradient id="paint0_linear_1409_2474" x1="720" y1="0" x2="720" y2="887" gradientUnits="userSpaceOnUse">
<stop stop-color="#D9D9D9"/>
<stop offset="1" stop-color="#D9D9D9" stop-opacity="0"/>
</linearGradient>
<linearGradient id="paint1_linear_1409_2474" x1="290.54" y1="-875.381" x2="290.54" y2="737.46" gradientUnits="userSpaceOnUse">
<stop stop-color="#E9CBA3"/>
<stop offset="0.1507" stop-color="#EEDEBC"/>
<stop offset="0.3859" stop-color="#C9A885"/>
<stop offset="0.6326" stop-color="#9A7A5F"/>
<stop offset="0.8567" stop-color="#C9A885"/>
<stop offset="0.9987" stop-color="#C9A885"/>
</linearGradient>
<linearGradient id="paint2_linear_1409_2474" x1="289.892" y1="-813.994" x2="289.892" y2="655.008" gradientUnits="userSpaceOnUse">
<stop stop-color="#E9CBA3"/>
<stop offset="0.1507" stop-color="#EEDEBC"/>
<stop offset="0.3859" stop-color="#C9A885"/>
<stop offset="0.6326" stop-color="#9A7A5F"/>
<stop offset="0.8567" stop-color="#C9A885"/>
<stop offset="0.9987" stop-color="#C9A885"/>
</linearGradient>
<linearGradient id="paint3_linear_1409_2474" x1="288.897" y1="-752.67" x2="288.897" y2="572.777" gradientUnits="userSpaceOnUse">
<stop stop-color="#E9CBA3"/>
<stop offset="0.1507" stop-color="#EEDEBC"/>
<stop offset="0.3859" stop-color="#C9A885"/>
<stop offset="0.6326" stop-color="#9A7A5F"/>
<stop offset="0.8567" stop-color="#C9A885"/>
<stop offset="0.9987" stop-color="#C9A885"/>
</linearGradient>
<linearGradient id="paint4_linear_1409_2474" x1="287.416" y1="-691.48" x2="287.416" y2="490.867" gradientUnits="userSpaceOnUse">
<stop stop-color="#E9CBA3"/>
<stop offset="0.1507" stop-color="#EEDEBC"/>
<stop offset="0.3859" stop-color="#C9A885"/>
<stop offset="0.6326" stop-color="#9A7A5F"/>
<stop offset="0.8567" stop-color="#C9A885"/>
<stop offset="0.9987" stop-color="#C9A885"/>
</linearGradient>
<linearGradient id="paint5_linear_1409_2474" x1="284.774" y1="-630.429" x2="284.774" y2="409.361" gradientUnits="userSpaceOnUse">
<stop stop-color="#E9CBA3"/>
<stop offset="0.1507" stop-color="#EEDEBC"/>
<stop offset="0.3859" stop-color="#C9A885"/>
<stop offset="0.6326" stop-color="#9A7A5F"/>
<stop offset="0.8567" stop-color="#C9A885"/>
<stop offset="0.9987" stop-color="#C9A885"/>
</linearGradient>
<linearGradient id="paint6_linear_1409_2474" x1="280.185" y1="-569.61" x2="280.185" y2="328.842" gradientUnits="userSpaceOnUse">
<stop stop-color="#E9CBA3"/>
<stop offset="0.1507" stop-color="#EEDEBC"/>
<stop offset="0.3859" stop-color="#C9A885"/>
<stop offset="0.6326" stop-color="#9A7A5F"/>
<stop offset="0.8567" stop-color="#C9A885"/>
<stop offset="0.9987" stop-color="#C9A885"/>
</linearGradient>
<linearGradient id="paint7_linear_1409_2474" x1="273.089" y1="-508.997" x2="273.089" y2="254.048" gradientUnits="userSpaceOnUse">
<stop stop-color="#E9CBA3"/>
<stop offset="0.1507" stop-color="#EEDEBC"/>
<stop offset="0.3859" stop-color="#C9A885"/>
<stop offset="0.6326" stop-color="#9A7A5F"/>
<stop offset="0.8567" stop-color="#C9A885"/>
<stop offset="0.9987" stop-color="#C9A885"/>
</linearGradient>
<linearGradient id="paint8_linear_1409_2474" x1="264.009" y1="-448.849" x2="264.009" y2="223.266" gradientUnits="userSpaceOnUse">
<stop stop-color="#E9CBA3"/>
<stop offset="0.1507" stop-color="#EEDEBC"/>
<stop offset="0.3859" stop-color="#C9A885"/>
<stop offset="0.6326" stop-color="#9A7A5F"/>
<stop offset="0.8567" stop-color="#C9A885"/>
<stop offset="0.9987" stop-color="#C9A885"/>
</linearGradient>
<linearGradient id="paint9_linear_1409_2474" x1="248.608" y1="-389.401" x2="248.608" y2="192.352" gradientUnits="userSpaceOnUse">
<stop stop-color="#E9CBA3"/>
<stop offset="0.1507" stop-color="#EEDEBC"/>
<stop offset="0.3859" stop-color="#C9A885"/>
<stop offset="0.6326" stop-color="#9A7A5F"/>
<stop offset="0.8567" stop-color="#C9A885"/>
<stop offset="0.9987" stop-color="#C9A885"/>
</linearGradient>
<linearGradient id="paint10_linear_1409_2474" x1="230.527" y1="-331.136" x2="230.527" y2="161.612" gradientUnits="userSpaceOnUse">
<stop stop-color="#E9CBA3"/>
<stop offset="0.1507" stop-color="#EEDEBC"/>
<stop offset="0.3859" stop-color="#C9A885"/>
<stop offset="0.6326" stop-color="#9A7A5F"/>
<stop offset="0.8567" stop-color="#C9A885"/>
<stop offset="0.9987" stop-color="#C9A885"/>
</linearGradient>
<linearGradient id="paint11_linear_1409_2474" x1="216.461" y1="-276.203" x2="216.461" y2="130.769" gradientUnits="userSpaceOnUse">
<stop stop-color="#E9CBA3"/>
<stop offset="0.1507" stop-color="#EEDEBC"/>
<stop offset="0.3859" stop-color="#C9A885"/>
<stop offset="0.6326" stop-color="#9A7A5F"/>
<stop offset="0.8567" stop-color="#C9A885"/>
<stop offset="0.9987" stop-color="#C9A885"/>
</linearGradient>
<linearGradient id="paint12_linear_1409_2474" x1="224.183" y1="-252.027" x2="224.183" y2="100.139" gradientUnits="userSpaceOnUse">
<stop stop-color="#E9CBA3"/>
<stop offset="0.1507" stop-color="#EEDEBC"/>
<stop offset="0.3859" stop-color="#C9A885"/>
<stop offset="0.6326" stop-color="#9A7A5F"/>
<stop offset="0.8567" stop-color="#C9A885"/>
<stop offset="0.9987" stop-color="#C9A885"/>
</linearGradient>
<linearGradient id="paint13_linear_1409_2474" x1="-38.1966" y1="596.85" x2="-38.1966" y2="2878.03" gradientUnits="userSpaceOnUse">
<stop stop-color="#E9CBA3"/>
<stop offset="0.1507" stop-color="#EEDEBC"/>
<stop offset="0.3859" stop-color="#C9A885"/>
<stop offset="0.6326" stop-color="#9A7A5F"/>
<stop offset="0.8567" stop-color="#C9A885"/>
<stop offset="0.9987" stop-color="#C9A885"/>
</linearGradient>
<linearGradient id="paint14_linear_1409_2474" x1="-58.8792" y1="688.096" x2="-58.8792" y2="2792.46" gradientUnits="userSpaceOnUse">
<stop stop-color="#E9CBA3"/>
<stop offset="0.1507" stop-color="#EEDEBC"/>
<stop offset="0.3859" stop-color="#C9A885"/>
<stop offset="0.6326" stop-color="#9A7A5F"/>
<stop offset="0.8567" stop-color="#C9A885"/>
<stop offset="0.9987" stop-color="#C9A885"/>
</linearGradient>
<linearGradient id="paint15_linear_1409_2474" x1="-79.7682" y1="779.337" x2="-79.7682" y2="2706.95" gradientUnits="userSpaceOnUse">
<stop stop-color="#E9CBA3"/>
<stop offset="0.1507" stop-color="#EEDEBC"/>
<stop offset="0.3859" stop-color="#C9A885"/>
<stop offset="0.6326" stop-color="#9A7A5F"/>
<stop offset="0.8567" stop-color="#C9A885"/>
<stop offset="0.9987" stop-color="#C9A885"/>
</linearGradient>
<linearGradient id="paint16_linear_1409_2474" x1="-100.645" y1="870.572" x2="-100.645" y2="2621.53" gradientUnits="userSpaceOnUse">
<stop stop-color="#E9CBA3"/>
<stop offset="0.1507" stop-color="#EEDEBC"/>
<stop offset="0.3859" stop-color="#C9A885"/>
<stop offset="0.6326" stop-color="#9A7A5F"/>
<stop offset="0.8567" stop-color="#C9A885"/>
<stop offset="0.9987" stop-color="#C9A885"/>
</linearGradient>
<linearGradient id="paint17_linear_1409_2474" x1="854.172" y1="872.949" x2="854.172" y2="2485.79" gradientUnits="userSpaceOnUse">
<stop stop-color="#E9CBA3"/>
<stop offset="0.1507" stop-color="#EEDEBC"/>
<stop offset="0.3859" stop-color="#C9A885"/>
<stop offset="0.6326" stop-color="#9A7A5F"/>
<stop offset="0.8567" stop-color="#C9A885"/>
<stop offset="0.9987" stop-color="#C9A885"/>
</linearGradient>
<linearGradient id="paint18_linear_1409_2474" x1="1182.91" y1="-1267.62" x2="1182.91" y2="1013.56" gradientUnits="userSpaceOnUse">
<stop stop-color="#E9CBA3"/>
<stop offset="0.1507" stop-color="#EEDEBC"/>
<stop offset="0.3859" stop-color="#C9A885"/>
<stop offset="0.6326" stop-color="#9A7A5F"/>
<stop offset="0.8567" stop-color="#C9A885"/>
<stop offset="0.9987" stop-color="#C9A885"/>
</linearGradient>
<linearGradient id="paint19_linear_1409_2474" x1="1203.59" y1="-1182.05" x2="1203.59" y2="922.313" gradientUnits="userSpaceOnUse">
<stop stop-color="#E9CBA3"/>
<stop offset="0.1507" stop-color="#EEDEBC"/>
<stop offset="0.3859" stop-color="#C9A885"/>
<stop offset="0.6326" stop-color="#9A7A5F"/>
<stop offset="0.8567" stop-color="#C9A885"/>
<stop offset="0.9987" stop-color="#C9A885"/>
</linearGradient>
<linearGradient id="paint20_linear_1409_2474" x1="1224.48" y1="-1096.54" x2="1224.48" y2="831.072" gradientUnits="userSpaceOnUse">
<stop stop-color="#E9CBA3"/>
<stop offset="0.1507" stop-color="#EEDEBC"/>
<stop offset="0.3859" stop-color="#C9A885"/>
<stop offset="0.6326" stop-color="#9A7A5F"/>
<stop offset="0.8567" stop-color="#C9A885"/>
<stop offset="0.9987" stop-color="#C9A885"/>
</linearGradient>
<linearGradient id="paint21_linear_1409_2474" x1="1245.36" y1="-1011.12" x2="1245.36" y2="739.837" gradientUnits="userSpaceOnUse">
<stop stop-color="#E9CBA3"/>
<stop offset="0.1507" stop-color="#EEDEBC"/>
<stop offset="0.3859" stop-color="#C9A885"/>
<stop offset="0.6326" stop-color="#9A7A5F"/>
<stop offset="0.8567" stop-color="#C9A885"/>
<stop offset="0.9987" stop-color="#C9A885"/>
</linearGradient>
<linearGradient id="paint22_linear_1409_2474" x1="1266.44" y1="-925.812" x2="1266.44" y2="648.612" gradientUnits="userSpaceOnUse">
<stop stop-color="#E9CBA3"/>
<stop offset="0.1507" stop-color="#EEDEBC"/>
<stop offset="0.3859" stop-color="#C9A885"/>
<stop offset="0.6326" stop-color="#9A7A5F"/>
<stop offset="0.8567" stop-color="#C9A885"/>
<stop offset="0.9987" stop-color="#C9A885"/>
</linearGradient>
<linearGradient id="paint23_linear_1409_2474" x1="1287.6" y1="-840.673" x2="1287.6" y2="557.401" gradientUnits="userSpaceOnUse">
<stop stop-color="#E9CBA3"/>
<stop offset="0.1507" stop-color="#EEDEBC"/>
<stop offset="0.3859" stop-color="#C9A885"/>
<stop offset="0.6326" stop-color="#9A7A5F"/>
<stop offset="0.8567" stop-color="#C9A885"/>
<stop offset="0.9987" stop-color="#C9A885"/>
</linearGradient>
<linearGradient id="paint24_linear_1409_2474" x1="1308.98" y1="-755.798" x2="1308.98" y2="466.213" gradientUnits="userSpaceOnUse">
<stop stop-color="#E9CBA3"/>
<stop offset="0.1507" stop-color="#EEDEBC"/>
<stop offset="0.3859" stop-color="#C9A885"/>
<stop offset="0.6326" stop-color="#9A7A5F"/>
<stop offset="0.8567" stop-color="#C9A885"/>
<stop offset="0.9987" stop-color="#C9A885"/>
</linearGradient>
<linearGradient id="paint25_linear_1409_2474" x1="1330.58" y1="-671.363" x2="1330.58" y2="375.067" gradientUnits="userSpaceOnUse">
<stop stop-color="#E9CBA3"/>
<stop offset="0.1507" stop-color="#EEDEBC"/>
<stop offset="0.3859" stop-color="#C9A885"/>
<stop offset="0.6326" stop-color="#9A7A5F"/>
<stop offset="0.8567" stop-color="#C9A885"/>
<stop offset="0.9987" stop-color="#C9A885"/>
</linearGradient>
<linearGradient id="paint26_linear_1409_2474" x1="1352.28" y1="-587.75" x2="1352.28" y2="284.04" gradientUnits="userSpaceOnUse">
<stop stop-color="#E9CBA3"/>
<stop offset="0.1507" stop-color="#EEDEBC"/>
<stop offset="0.3859" stop-color="#C9A885"/>
<stop offset="0.6326" stop-color="#9A7A5F"/>
<stop offset="0.8567" stop-color="#C9A885"/>
<stop offset="0.9987" stop-color="#C9A885"/>
</linearGradient>
<linearGradient id="paint27_linear_1409_2474" x1="1374.21" y1="-505.963" x2="1374.21" y2="193.159" gradientUnits="userSpaceOnUse">
<stop stop-color="#E9CBA3"/>
<stop offset="0.1507" stop-color="#EEDEBC"/>
<stop offset="0.3859" stop-color="#C9A885"/>
<stop offset="0.6326" stop-color="#9A7A5F"/>
<stop offset="0.8567" stop-color="#C9A885"/>
<stop offset="0.9987" stop-color="#C9A885"/>
</linearGradient>
<linearGradient id="paint28_linear_1409_2474" x1="1395.69" y1="-442.271" x2="1395.69" y2="102.879" gradientUnits="userSpaceOnUse">
<stop stop-color="#E9CBA3"/>
<stop offset="0.1507" stop-color="#EEDEBC"/>
<stop offset="0.3859" stop-color="#C9A885"/>
<stop offset="0.6326" stop-color="#9A7A5F"/>
<stop offset="0.8567" stop-color="#C9A885"/>
<stop offset="0.9987" stop-color="#C9A885"/>
</linearGradient>
<linearGradient id="paint29_linear_1409_2474" x1="1409.7" y1="-389.858" x2="1409.7" y2="17.0218" gradientUnits="userSpaceOnUse">
<stop stop-color="#E9CBA3"/>
<stop offset="0.1507" stop-color="#EEDEBC"/>
<stop offset="0.3859" stop-color="#C9A885"/>
<stop offset="0.6326" stop-color="#9A7A5F"/>
<stop offset="0.8567" stop-color="#C9A885"/>
<stop offset="0.9987" stop-color="#C9A885"/>
</linearGradient>
</defs>
</svg>
