<?xml version="1.0" encoding="utf-8"?>
<!-- Generator: Adobe Illustrator 24.2.3, SVG Export Plug-In . SVG Version: 6.00 Build 0)  -->
<svg version="1.1" id="Layer_1" xmlns="http://www.w3.org/2000/svg" xmlns:xlink="http://www.w3.org/1999/xlink" x="0px" y="0px"
	 viewBox="0 0 24 25" style="enable-background:new 0 0 24 25;" xml:space="preserve">
<style type="text/css">
	.st0{fill:none;stroke:#ECA33A;}
</style>
<g>
	<path class="st0" d="M14.6,12.1c1.2,0,2-0.8,2.6-1.8c0.6-0.9,0.9-2.1,0.9-3c0-0.7-0.1-1.8-0.5-2.6C17.2,3.9,16.6,3,15.6,3
		C15,3,14.4,3.3,14,3.7c-0.4,0.4-0.8,0.9-1.1,1.5C12.3,6.3,12,7.7,12,8.6c0,0.8,0.2,1.6,0.6,2.3C13,11.6,13.6,12.1,14.6,12.1z
		 M9.2,12.1c0.9,0,1.6-0.6,2-1.2c0.4-0.7,0.6-1.5,0.6-2.3c0-0.9-0.1-2.3-0.5-3.4c-0.2-0.6-0.5-1.1-0.8-1.5C10.1,3.3,9.6,3,9,3
		C8.5,3,8.1,3.2,7.7,3.5C7.3,3.8,7,4.2,6.7,4.6C6.2,5.4,5.8,6.4,5.8,7.2c-0.1,1,0.2,2.2,0.7,3.1C7.1,11.3,8,12.1,9.2,12.1z
		 M19.7,8.7c-0.6,0-1.2,0.3-1.6,0.7c-0.4,0.4-0.8,1-1.1,1.5c-0.6,1.2-0.9,2.6-0.9,3.5c0,0.3,0,0.6,0.1,0.8c-0.5-0.6-1.1-1.2-1.7-1.6
		c-0.8-0.6-1.7-1-2.5-1c-0.9,0-1.7,0.4-2.5,1c-0.5,0.4-1,0.9-1.5,1.4c0-0.2,0-0.4,0-0.6c0-1-0.6-2.5-1.3-3.6
		c-0.4-0.6-0.8-1.1-1.3-1.5C4.9,9,4.3,8.7,3.7,8.7c-1,0-1.5,0.8-1.8,1.6c-0.3,0.8-0.4,1.7-0.4,2.4c0,1.1,0.6,2.2,1.3,3.1
		c0.7,0.9,1.8,1.7,2.8,1.7c0.2,0,0.5,0,0.6-0.1c-0.3,0.5-0.5,1-0.8,1.5c-0.4,1-0.7,1.9-0.7,2.8c0,0.8,0.3,1.4,0.8,1.8
		C6.2,23.9,6.8,24,7.4,24c0.9,0,1.7-0.1,2.4-0.2l0,0c0.7-0.1,1.4-0.2,2.1-0.2c0.6,0,1.3,0.1,1.9,0.2l0,0c0.7,0.1,1.4,0.2,2.2,0.2
		c0.6,0,1.3-0.1,1.9-0.4c0.3-0.2,0.6-0.4,0.7-0.7c0.2-0.3,0.3-0.7,0.3-1.2c0-0.9-0.3-1.8-0.7-2.8c-0.2-0.5-0.5-1-0.8-1.6
		c0.2,0.1,0.5,0.2,0.8,0.2c1.1,0,2.2-0.8,2.9-1.7c0.7-0.9,1.3-2.1,1.3-3.1c0-0.7-0.4-1.7-0.8-2.5c-0.2-0.4-0.5-0.7-0.9-1
		C20.5,9,20.1,8.7,19.7,8.7z"/>
	<path class="st0" d="M14.6,12.1c1.2,0,2-0.8,2.6-1.8c0.6-0.9,0.9-2.1,0.9-3c0-0.7-0.1-1.8-0.5-2.6C17.2,3.9,16.6,3,15.6,3
		C15,3,14.4,3.3,14,3.7c-0.4,0.4-0.8,0.9-1.1,1.5C12.3,6.3,12,7.7,12,8.6c0,0.8,0.2,1.6,0.6,2.3C13,11.6,13.6,12.1,14.6,12.1z
		 M9.2,12.1c0.9,0,1.6-0.6,2-1.2c0.4-0.7,0.6-1.5,0.6-2.3c0-0.9-0.1-2.3-0.5-3.4c-0.2-0.6-0.5-1.1-0.8-1.5C10.1,3.3,9.6,3,9,3
		C8.5,3,8.1,3.2,7.7,3.5C7.3,3.8,7,4.2,6.7,4.6C6.2,5.4,5.8,6.4,5.8,7.2c-0.1,1,0.2,2.2,0.7,3.1C7.1,11.3,8,12.1,9.2,12.1z
		 M19.7,8.7c-0.6,0-1.2,0.3-1.6,0.7c-0.4,0.4-0.8,1-1.1,1.5c-0.6,1.2-0.9,2.6-0.9,3.5c0,0.3,0,0.6,0.1,0.8c-0.5-0.6-1.1-1.2-1.7-1.6
		c-0.8-0.6-1.7-1-2.5-1c-0.9,0-1.7,0.4-2.5,1c-0.5,0.4-1,0.9-1.5,1.4c0-0.2,0-0.4,0-0.6c0-1-0.6-2.5-1.3-3.6
		c-0.4-0.6-0.8-1.1-1.3-1.5C4.9,9,4.3,8.7,3.7,8.7c-1,0-1.5,0.8-1.8,1.6c-0.3,0.8-0.4,1.7-0.4,2.4c0,1.1,0.6,2.2,1.3,3.1
		c0.7,0.9,1.8,1.7,2.8,1.7c0.2,0,0.5,0,0.6-0.1c-0.3,0.5-0.5,1-0.8,1.5c-0.4,1-0.7,1.9-0.7,2.8c0,0.8,0.3,1.4,0.8,1.8
		C6.2,23.9,6.8,24,7.4,24c0.9,0,1.7-0.1,2.4-0.2l0,0c0.7-0.1,1.4-0.2,2.1-0.2c0.6,0,1.3,0.1,1.9,0.2l0,0c0.7,0.1,1.4,0.2,2.2,0.2
		c0.6,0,1.3-0.1,1.9-0.4c0.3-0.2,0.6-0.4,0.7-0.7c0.2-0.3,0.3-0.7,0.3-1.2c0-0.9-0.3-1.8-0.7-2.8c-0.2-0.5-0.5-1-0.8-1.6
		c0.2,0.1,0.5,0.2,0.8,0.2c1.1,0,2.2-0.8,2.9-1.7c0.7-0.9,1.3-2.1,1.3-3.1c0-0.7-0.4-1.7-0.8-2.5c-0.2-0.4-0.5-0.7-0.9-1
		C20.5,9,20.1,8.7,19.7,8.7z"/>
</g>
</svg>
