<svg width="49" height="60" viewBox="0 0 49 60" fill="none" xmlns="http://www.w3.org/2000/svg">
<path d="M30.3242 3.25037C27.741 6.11385 24.1494 9.58964 23.927 13.6503C23.6194 19.3072 27.9451 24.3031 31.0766 28.5679C34.6712 33.4632 38.4059 38.2672 41.8726 43.2539C43.4444 45.5112 45.3118 47.9147 45.5372 50.7507C45.6195 51.8017 45.4641 52.8709 45.1321 53.8671C44.9219 54.4976 44.6173 55.0368 44.337 55.6369C44.2243 55.8289 44.1085 56.0208 43.9958 56.2096C42.9083 57.6536 42.4392 58.3238 41.3029 59.4996C43.8344 56.8768 47.0756 53.5594 48.2362 50.0318C50.0762 44.4389 44.8731 39.1963 41.8177 35.0564C38.0983 30.0179 34.2265 25.0647 30.6989 19.886C29.1514 17.6135 27.7745 15.1217 27.2414 12.3983C26.9824 11.0701 26.9215 9.68103 27.2231 8.34981C27.3815 7.64917 27.6648 7.08866 27.9359 6.43371C28.7828 5.20302 29.5444 4.1155 30.3242 3.25037Z" fill="white"/>
<path d="M35.0703 0C33.3461 1.7516 30.8421 4.22212 30.3943 6.71701C29.6906 10.6406 32.4262 14.945 34.3727 18.1161C38.6558 25.0982 47.624 32.5828 42.5611 41.5541C43.5968 40.2746 44.6325 38.9983 45.6652 37.7188C45.2783 38.0295 44.9707 38.0478 44.6935 37.6092C44.9555 38.0234 41.2877 40.9692 41.5893 41.4444C42.3753 42.6842 45.5464 38.0509 46.0064 37.1157C48.1418 32.7747 47.0147 27.8032 44.4163 23.9863C41.7812 20.1175 38.7472 16.6235 36.4411 12.5171C34.5525 9.15707 31.8139 4.16119 34.5646 0.536142C33.5472 1.7912 32.5267 3.04322 31.5092 4.29828C31.6616 4.14292 31.8139 3.9906 31.9662 3.83524C33.1177 2.66853 33.9249 1.16367 35.0703 0Z" fill="white"/>
<path d="M42.6921 40.7407C42.3935 41.2738 42.095 41.8069 41.766 42.3217C40.8948 43.5646 40.9374 43.5402 41.8939 42.2486C42.82 41.1519 42.9236 40.957 42.2047 41.6668C41.1994 42.2973 40.3586 43.0498 39.265 43.5615C36.4198 44.8958 33.2365 45.3436 30.1262 45.5111C25.7487 45.7457 19.7324 45.1456 16.9816 41.2738C15.4737 39.1505 15.2574 36.5186 16.1591 34.1029C16.2718 33.7678 16.415 33.4449 16.5795 33.1342C14.6421 35.2696 14.112 35.8636 14.9954 34.9162C15.5712 34.3375 16.1012 33.7099 16.7013 33.1525C17.6609 32.2599 18.7119 31.4252 19.9883 31.0505C25.8097 29.3385 29.3982 36.6953 26.489 41.1611C27.5034 39.903 28.5178 38.6479 29.5352 37.3898C26.2544 41.1702 22.276 36.9085 21.2586 33.5454C20.5244 31.1145 21.2281 27.4133 18.9403 25.7561C18.8398 25.683 15.8758 29.6218 15.8362 29.5914C18.1209 31.2455 17.4203 34.9558 18.1544 37.3807C19.1018 40.5092 22.6812 44.7861 26.0838 41.6333C27.6679 40.165 29.8003 37.7401 30.44 35.626C31.558 31.9248 29.3403 27.6083 25.3588 27.0599C21.8191 26.5725 19.1597 29.762 17.1126 32.202C15.2513 34.4197 13.0672 36.6557 12.598 39.6319C11.2059 48.463 22.4496 49.8003 28.6701 49.2215C32.8283 48.8346 37.0656 47.7258 40.0205 44.6034C42.1955 42.3065 44.2578 39.6654 45.7992 36.8994C45.0133 38.3159 43.4841 39.3211 42.6921 40.7407Z" fill="white"/>
<path d="M4.34571 36.3693C2.32299 39.1901 0.123588 42.2364 0.00478347 45.8432C-0.117067 49.4926 2.09757 52.3713 5.67083 53.1268C12.1015 54.4884 17.7614 49.1057 21.7368 44.8135C22.8792 43.5798 24.2256 41.5753 25.1243 40.6066C21.1915 44.8531 15.5407 50.1171 9.19536 48.7737C5.93281 48.0822 3.66335 45.5599 3.52931 42.1907C3.377 38.3798 5.63428 35.1355 7.75448 32.1807C6.98073 33.2682 5.33574 34.9924 4.34571 36.3693Z" fill="white"/>
<path d="M5.56421 41.4535C6.93198 41.7764 8.06519 42.6324 8.75365 43.857C8.69881 43.7595 10.1884 42.1237 10.3255 41.9561C10.6911 41.5053 11.0566 41.0514 11.4191 40.5945C11.4709 40.5274 11.8883 40.0705 11.8608 40.0218C11.1724 38.7972 10.0392 37.9442 8.6714 37.6183C8.6318 37.6091 8.14744 38.2367 8.20227 38.1696C7.83063 38.6174 7.46508 39.0683 7.09953 39.5222C6.73397 39.973 6.36842 40.4269 6.00592 40.8839C5.95718 40.9448 5.59772 41.4626 5.56421 41.4535Z" fill="white"/>
<path d="M20.0248 24.6839C21.1184 24.9428 22.0262 25.6251 22.5776 26.606C22.5319 26.5268 23.726 25.22 23.8357 25.0829C24.1282 24.7204 24.4206 24.3579 24.71 23.9954C24.7526 23.9406 25.0847 23.575 25.0634 23.5385C24.512 22.5576 23.6042 21.8752 22.5106 21.6163C22.4801 21.6102 22.0902 22.1098 22.1359 22.058C21.8404 22.4174 21.5449 22.7769 21.2525 23.1394C20.96 23.5019 20.6676 23.8644 20.3782 24.2269C20.3356 24.2787 20.0492 24.693 20.0248 24.6839Z" fill="white"/>
</svg>
