<svg width="101" height="122" viewBox="0 0 101 122" fill="none" xmlns="http://www.w3.org/2000/svg">
<g filter="url(#filter0_d_1388_393)">
<path d="M59.7297 6.3457C54.6864 11.9362 47.6745 18.7221 47.2403 26.6499C46.6396 37.6942 55.0849 47.4478 61.1987 55.7741C68.2166 65.3315 75.5081 74.7105 82.2761 84.4463C85.345 88.8533 88.9907 93.5457 89.4308 99.0827C89.5914 101.135 89.2881 103.222 88.6398 105.167C88.2294 106.398 87.6347 107.451 87.0875 108.622C86.8675 108.997 86.6415 109.372 86.4214 109.74C84.2982 112.559 83.3823 113.868 81.164 116.163C86.1062 111.043 92.4342 104.566 94.7001 97.6791C98.2923 86.7598 88.1343 76.5244 82.1691 68.442C74.9074 58.605 67.3483 48.9347 60.4613 38.8242C57.44 34.3874 54.7518 29.5225 53.711 24.2056C53.2055 21.6125 53.0866 18.9006 53.6753 16.3016C53.9846 14.9337 54.5377 13.8394 55.067 12.5607C56.7204 10.158 58.2072 8.03475 59.7297 6.3457Z" fill="#ECA33A"/>
<path d="M68.9953 0C65.6291 3.41972 60.7404 8.24302 59.8661 13.1139C58.4923 20.7741 63.833 29.1777 67.6334 35.3689C75.9953 49.0002 93.5043 63.6128 83.6198 81.1278C85.6419 78.6299 87.664 76.1379 89.6802 73.6401C88.9249 74.2467 88.3242 74.2824 87.783 73.426C88.2944 74.2348 81.1338 79.9859 81.7226 80.9137C83.257 83.3342 89.4482 74.2883 90.3463 72.4625C94.5154 63.9875 92.3148 54.2814 87.2418 46.8294C82.0973 39.2763 76.1738 32.4547 71.6716 24.4377C67.9843 17.8777 62.6376 8.12408 68.008 1.04673C66.0216 3.49704 64.0293 5.9414 62.0429 8.39171C62.3402 8.08839 62.6376 7.79103 62.935 7.48771C65.1771 5.20988 66.7591 2.27189 68.9953 0Z" fill="#ECA33A"/>
<path d="M83.8757 79.5397C83.2928 80.5805 82.71 81.6212 82.0677 82.6264C80.3667 85.0529 80.45 85.0053 82.3175 82.4836C84.1255 80.3426 84.3277 79.9619 82.9241 81.3477C80.9615 82.5788 79.32 84.0478 77.1849 85.0469C71.6301 87.6519 65.4151 88.5261 59.3429 88.8532C50.7965 89.3112 39.0505 88.1395 33.6801 80.5805C30.7361 76.4352 30.3139 71.2967 32.0743 66.5804C32.2943 65.9262 32.5739 65.2958 32.895 64.6891C29.1125 68.8582 28.0777 70.018 29.8024 68.1684C30.9264 67.0384 31.9613 65.8132 33.1329 64.7248C35.0063 62.9823 37.0582 61.3527 39.5501 60.6212C50.9155 57.2788 57.9214 71.6416 52.2417 80.3604C54.2222 77.9042 56.2027 75.4538 58.1891 72.9976C51.7838 80.3783 44.0166 72.0579 42.0301 65.492C40.5968 60.7461 41.9707 53.52 37.5042 50.2847C37.3079 50.1419 31.5212 57.8319 31.4439 57.7724C35.9044 61.0018 34.5365 68.2457 35.9698 72.9798C37.8194 79.0877 44.8075 87.4378 51.4507 81.2823C54.5434 78.4156 58.7065 73.6815 59.9554 69.5541C62.1381 62.3281 57.8084 53.9007 50.0353 52.8301C43.1244 51.8786 37.9324 58.1054 33.9358 62.8693C30.302 67.1989 26.0377 71.5643 25.1218 77.3748C22.4039 94.6162 44.3555 97.2271 56.5 96.0971C64.6182 95.3418 72.8909 93.1769 78.6598 87.0809C82.9063 82.5966 86.9326 77.4403 89.942 72.0401C88.4076 74.8056 85.422 76.7682 83.8757 79.5397Z" fill="#ECA33A"/>
<path d="M9.01068 71.0052C5.06164 76.5125 0.767653 82.4598 0.535706 89.5015C0.297812 96.6264 4.62153 102.247 11.5978 103.722C24.1526 106.38 35.2028 95.8711 42.9641 87.4913C45.1943 85.0826 47.8231 81.1693 49.5775 79.278C41.8995 87.5686 30.8672 97.8456 18.4789 95.2228C12.1092 93.8728 7.67847 88.9484 7.41679 82.3706C7.11942 74.9305 11.5264 68.5966 15.6658 62.8276C14.1551 64.9508 10.9436 68.317 9.01068 71.0052Z" fill="#ECA33A"/>
<path d="M11.3896 80.9313C14.06 81.5617 16.2724 83.2329 17.6165 85.6237C17.5095 85.4334 20.4177 82.2397 20.6854 81.9126C21.399 81.0324 22.1127 80.1462 22.8205 79.2541C22.9216 79.1233 23.7363 78.2312 23.6828 78.136C22.3387 75.7452 20.1263 74.0799 17.4559 73.4436C17.3786 73.4257 16.433 74.6509 16.5401 74.52C15.8145 75.3943 15.1008 76.2745 14.3871 77.1606C13.6734 78.0409 12.9597 78.927 12.252 79.8191C12.1569 79.9381 11.4551 80.9491 11.3896 80.9313Z" fill="#ECA33A"/>
<path d="M39.6157 48.1912C41.7508 48.6968 43.5231 50.029 44.5996 51.944C44.5104 51.7894 46.8417 49.238 47.0559 48.9703C47.6268 48.2626 48.1977 47.5549 48.7627 46.8471C48.846 46.7401 49.4943 46.0264 49.4526 45.955C48.3762 44.04 46.6038 42.7078 44.4688 42.2023C44.4093 42.1904 43.648 43.1657 43.7372 43.0646C43.1603 43.7664 42.5834 44.4682 42.0125 45.1759C41.4416 45.8837 40.8706 46.5914 40.3056 47.2991C40.2283 47.4002 39.6692 48.2091 39.6157 48.1912Z" fill="#ECA33A"/>
</g>
<defs>
<filter id="filter0_d_1388_393" x="0.526367" y="0" width="99.9238" height="121.164" filterUnits="userSpaceOnUse" color-interpolation-filters="sRGB">
<feFlood flood-opacity="0" result="BackgroundImageFix"/>
<feColorMatrix in="SourceAlpha" type="matrix" values="0 0 0 0 0 0 0 0 0 0 0 0 0 0 0 0 0 0 127 0" result="hardAlpha"/>
<feOffset dx="4" dy="4"/>
<feGaussianBlur stdDeviation="0.5"/>
<feComposite in2="hardAlpha" operator="out"/>
<feColorMatrix type="matrix" values="0 0 0 0 0 0 0 0 0 0 0 0 0 0 0 0 0 0 0.5 0"/>
<feBlend mode="normal" in2="BackgroundImageFix" result="effect1_dropShadow_1388_393"/>
<feBlend mode="normal" in="SourceGraphic" in2="effect1_dropShadow_1388_393" result="shape"/>
</filter>
</defs>
</svg>
