<svg width="24" height="25" viewBox="0 0 24 25" fill="none" xmlns="http://www.w3.org/2000/svg">
<path fill-rule="evenodd" clip-rule="evenodd" d="M11.9859 2.00354L11.9859 2.00349L11.9882 2.00241C11.9914 2.00114 11.9962 2 12.002 2C12.0078 2 12.0126 2.00114 12.0158 2.00241L12.0181 2.00349C14.6613 4.54419 17.6501 5.83487 21 5.83487V11.5448C21 14.4445 20.2324 16.8083 18.7707 18.6796C17.3034 20.558 15.0732 22.0212 12.012 22.9981L12.0113 22.9983C12.0083 22.9993 12.0044 23 12 23C11.9956 23 11.9917 22.9993 11.9887 22.9983L11.9881 22.9982C8.92786 22.0212 6.69758 20.5581 5.23003 18.6796C3.76806 16.8082 3 14.4444 3 11.5448V5.83487C6.34891 5.83487 9.33743 4.54153 11.9859 2.00354ZM12.3853 1.07318C12.5068 1.12149 12.6171 1.19229 12.71 1.28153C15.19 3.66575 17.938 4.83486 21 4.83486C21.2652 4.83486 21.5196 4.93583 21.7071 5.11554C21.8946 5.29526 22 5.539 22 5.79315V11.5448C22 17.7143 18.718 21.9077 12.316 23.9508C12.1109 24.0164 11.8891 24.0164 11.684 23.9508C5.284 21.9077 2 17.7143 2 11.5448V5.79315C2 5.539 2.10536 5.29526 2.29289 5.11554C2.48043 4.93583 2.73478 4.83486 3 4.83486C6.06 4.83486 8.808 3.66384 11.294 1.28153C11.3869 1.19229 11.4972 1.12149 11.6187 1.07318C11.7402 1.02487 11.8705 1 12.002 1C12.1335 1 12.2638 1.02487 12.3853 1.07318ZM10.995 16.2121L16.8536 10.3536L16.1464 9.64645L10.5 15.2929L8.85355 13.6464L8.14645 14.3536L10.005 16.2121C10.2784 16.4855 10.7216 16.4855 10.995 16.2121Z" fill="white"/>
<path fill-rule="evenodd" clip-rule="evenodd" d="M11.9859 2.00354L11.9859 2.00349L11.9882 2.00241C11.9914 2.00114 11.9962 2 12.002 2C12.0078 2 12.0126 2.00114 12.0158 2.00241L12.0181 2.00349C14.6613 4.54419 17.6501 5.83487 21 5.83487V11.5448C21 14.4445 20.2324 16.8083 18.7707 18.6796C17.3034 20.558 15.0732 22.0212 12.012 22.9981L12.0113 22.9983C12.0083 22.9993 12.0044 23 12 23C11.9956 23 11.9917 22.9993 11.9887 22.9983L11.9881 22.9982C8.92786 22.0212 6.69758 20.5581 5.23003 18.6796C3.76806 16.8082 3 14.4444 3 11.5448V5.83487C6.34891 5.83487 9.33743 4.54153 11.9859 2.00354ZM12.3853 1.07318C12.5068 1.12149 12.6171 1.19229 12.71 1.28153C15.19 3.66575 17.938 4.83486 21 4.83486C21.2652 4.83486 21.5196 4.93583 21.7071 5.11554C21.8946 5.29526 22 5.539 22 5.79315V11.5448C22 17.7143 18.718 21.9077 12.316 23.9508C12.1109 24.0164 11.8891 24.0164 11.684 23.9508C5.284 21.9077 2 17.7143 2 11.5448V5.79315C2 5.539 2.10536 5.29526 2.29289 5.11554C2.48043 4.93583 2.73478 4.83486 3 4.83486C6.06 4.83486 8.808 3.66384 11.294 1.28153C11.3869 1.19229 11.4972 1.12149 11.6187 1.07318C11.7402 1.02487 11.8705 1 12.002 1C12.1335 1 12.2638 1.02487 12.3853 1.07318ZM10.995 16.2121L16.8536 10.3536L16.1464 9.64645L10.5 15.2929L8.85355 13.6464L8.14645 14.3536L10.005 16.2121C10.2784 16.4855 10.7216 16.4855 10.995 16.2121Z" fill="url(#paint0_linear_590_3324)"/>
<defs>
<linearGradient id="paint0_linear_590_3324" x1="2.44348" y1="12.7779" x2="21.5938" y2="12.7779" gradientUnits="userSpaceOnUse">
<stop offset="0.0798496" stop-color="#AF6F57"/>
<stop offset="0.213542" stop-color="#FDB491"/>
<stop offset="0.364521" stop-color="#C18369"/>
<stop offset="0.527463" stop-color="#A15C40"/>
<stop offset="0.793094" stop-color="#E28F68"/>
<stop offset="0.836637" stop-color="#B66D50"/>
<stop offset="1" stop-color="#A15C40"/>
</linearGradient>
</defs>
</svg>
