<svg width="61" height="61" viewBox="0 0 61 61" fill="none" xmlns="http://www.w3.org/2000/svg">
<path d="M31.1667 44.9346V47.8105H29.0058V44.9459V44.0505L28.1159 43.9519C25.5617 43.6689 23.1384 42.8482 21.3817 41.5778C19.9379 40.5338 18.9765 39.217 18.6917 37.6398H20.8912C21.221 38.9018 22.1553 39.8533 23.224 40.5238C24.5604 41.3622 26.2638 41.874 27.8516 42.1217L29.0058 42.3017V41.1336V31.8277V30.9425L28.1271 30.8351C25.8106 30.552 23.3754 29.7845 21.549 28.5329C19.7398 27.2931 18.6035 25.6428 18.6035 23.533C18.6035 21.3021 19.7841 19.6471 21.6064 18.4368C23.4529 17.2104 25.8887 16.5001 28.1244 16.233L29.0058 16.1277V15.2401V12.3623H31.1667V15.2401V16.1277L32.0481 16.233C34.2838 16.5001 36.7196 17.2104 38.5661 18.4368C40.1048 19.4588 41.1861 20.7979 41.4853 22.533H39.2848C38.9444 21.1981 37.9431 20.2317 36.8381 19.5711C35.4736 18.7554 33.776 18.2865 32.3264 18.052L31.1667 17.8645V19.0392V28.3469V29.2346L32.0481 29.3399C34.2838 29.607 36.7196 30.3172 38.5661 31.5436C40.3884 32.754 41.569 34.409 41.569 36.6398C41.569 38.8707 40.3883 40.5263 38.5659 41.7371C36.7194 42.9639 34.2836 43.6746 32.0481 43.9417L31.1667 44.047V44.9346ZM29.0058 19.0392V17.8645L27.8461 18.052C26.3965 18.2865 24.6989 18.7554 23.3344 19.5711C21.9705 20.3865 20.7644 21.6679 20.7644 23.533C20.7644 25.3402 21.9498 26.6127 23.2935 27.4351C24.6448 28.2622 26.3416 28.7622 27.842 29.0114L29.0058 29.2047V28.0249V19.0392ZM31.1667 41.1336V42.3083L32.3264 42.1208C33.776 41.8863 35.4736 41.4174 36.8381 40.6017C38.202 39.7863 39.4081 38.5049 39.4081 36.6398C39.4081 34.7748 38.202 33.4933 36.8381 32.678C35.4736 31.8622 33.776 31.3933 32.3264 31.1589L31.1667 30.9713V32.1461V41.1336Z" stroke="url(#paint0_linear_2555_209)" stroke-width="2"/>
<path d="M1 30.0861C1 33.9058 1.75234 37.688 3.21405 41.2169C4.67577 44.7458 6.81824 47.9523 9.51914 50.6532C12.22 53.3541 15.4265 55.4965 18.9554 56.9582C22.4843 58.42 26.2665 59.1723 30.0861 59.1723C33.9058 59.1723 37.688 58.42 41.2169 56.9582C44.7458 55.4965 47.9523 53.3541 50.6532 50.6532C53.3541 47.9523 55.4965 44.7458 56.9582 41.2169C58.42 37.688 59.1723 33.9058 59.1723 30.0861C59.1723 22.372 56.1079 14.9738 50.6532 9.51914C45.1984 4.06443 37.8003 1 30.0861 1C22.372 1 14.9738 4.06443 9.51914 9.51914C4.06442 14.9738 1 22.372 1 30.0861Z" stroke="url(#paint1_linear_2555_209)" stroke-width="2"/>
<defs>
<linearGradient id="paint0_linear_2555_209" x1="23.1341" y1="-18.3693" x2="44.6618" y2="-17.6544" gradientUnits="userSpaceOnUse">
<stop stop-color="#F99E14"/>
<stop offset="0.411458" stop-color="#FEEFD8"/>
<stop offset="0.703125" stop-color="#F99E14"/>
<stop offset="0.703125" stop-color="#F99E14"/>
<stop offset="1" stop-color="#EEC78C"/>
</linearGradient>
<linearGradient id="paint1_linear_2555_209" x1="14.4437" y1="-42.5974" x2="62.8145" y2="-40.188" gradientUnits="userSpaceOnUse">
<stop stop-color="#F99E14"/>
<stop offset="0.411458" stop-color="#FEEFD8"/>
<stop offset="0.703125" stop-color="#F99E14"/>
<stop offset="0.703125" stop-color="#F99E14"/>
<stop offset="1" stop-color="#EEC78C"/>
</linearGradient>
</defs>
</svg>
