<svg width="61" height="61" viewBox="0 0 61 61" fill="none" xmlns="http://www.w3.org/2000/svg">
<path d="M1 30.0861C1 33.9058 1.75234 37.688 3.21405 41.2169C4.67577 44.7458 6.81824 47.9523 9.51914 50.6532C12.22 53.3541 15.4265 55.4965 18.9554 56.9582C22.4843 58.42 26.2665 59.1723 30.0861 59.1723C33.9058 59.1723 37.688 58.42 41.2169 56.9582C44.7458 55.4965 47.9523 53.3541 50.6532 50.6532C53.3541 47.9523 55.4965 44.7458 56.9582 41.2169C58.42 37.688 59.1723 33.9058 59.1723 30.0861C59.1723 22.372 56.1079 14.9738 50.6532 9.51914C45.1984 4.06443 37.8003 1 30.0861 1C22.372 1 14.9738 4.06443 9.51914 9.51914C4.06442 14.9738 1 22.372 1 30.0861Z" stroke="url(#paint0_linear_2555_196)" stroke-width="2"/>
<path d="M29.0861 31.9139V32.3281L29.379 32.621L37.827 41.069C38.6552 41.8972 38.6552 43.2399 37.827 44.0681C36.9988 44.8963 35.6561 44.8963 34.8279 44.0681L25.4659 34.7061C25.0682 34.3084 24.8447 33.769 24.8447 33.2065V17.6031C24.8447 16.4319 25.7942 15.4824 26.9654 15.4824C28.1366 15.4824 29.0861 16.4319 29.0861 17.6031V31.9139Z" stroke="url(#paint1_linear_2555_196)" stroke-width="2"/>
<defs>
<linearGradient id="paint0_linear_2555_196" x1="14.4437" y1="-42.5974" x2="62.8145" y2="-40.188" gradientUnits="userSpaceOnUse">
<stop stop-color="#F99E14"/>
<stop offset="0.411458" stop-color="#FEEFD8"/>
<stop offset="0.703125" stop-color="#F99E14"/>
<stop offset="0.703125" stop-color="#F99E14"/>
<stop offset="1" stop-color="#EEC78C"/>
</linearGradient>
<linearGradient id="paint1_linear_2555_196" x1="27.3013" y1="-10.2939" x2="40.7626" y2="-9.95864" gradientUnits="userSpaceOnUse">
<stop stop-color="#F99E14"/>
<stop offset="0.411458" stop-color="#FEEFD8"/>
<stop offset="0.703125" stop-color="#F99E14"/>
<stop offset="0.703125" stop-color="#F99E14"/>
<stop offset="1" stop-color="#EEC78C"/>
</linearGradient>
</defs>
</svg>
