<?xml version="1.0" encoding="utf-8"?>
<!-- Generator: Adobe Illustrator 24.2.3, SVG Export Plug-In . SVG Version: 6.00 Build 0)  -->
<svg version="1.1" id="Layer_1" xmlns="http://www.w3.org/2000/svg" xmlns:xlink="http://www.w3.org/1999/xlink" x="0px" y="0px"
	 viewBox="0 0 24 25" style="enable-background:new 0 0 24 25;" xml:space="preserve">
<style type="text/css">
	.st0{fill:#FFFFFF;filter:url(#Adobe_OpacityMaskFilter);}
	.st1{fill-rule:evenodd;clip-rule:evenodd;}
	.st2{mask:url(#path-1-outside-1_590_3330_1_);fill:#ECA33A;}
	.st3{fill:#FFFFFF;filter:url(#Adobe_OpacityMaskFilter_1_);}
	.st4{mask:url(#path-1-outside-1_590_3330_2_);fill:#ECA33A;}
	.st5{fill:#FFFFFF;filter:url(#Adobe_OpacityMaskFilter_2_);}
	.st6{mask:url(#path-3-outside-2_590_3330_1_);fill:#ECA33A;}
	.st7{fill:#FFFFFF;filter:url(#Adobe_OpacityMaskFilter_3_);}
	.st8{mask:url(#path-3-outside-2_590_3330_2_);fill:#ECA33A;}
</style>
<defs>
	<filter id="Adobe_OpacityMaskFilter" filterUnits="userSpaceOnUse" x="0" y="4" width="10" height="17.3">
		<feColorMatrix  type="matrix" values="1 0 0 0 0  0 1 0 0 0  0 0 1 0 0  0 0 0 1 0"/>
	</filter>
</defs>
<mask maskUnits="userSpaceOnUse" x="0" y="4" width="10" height="17.3" id="path-1-outside-1_590_3330_1_">
	<rect x="0" y="4" class="st0" width="10" height="18"/>
	<path class="st1" d="M9,7v1.3H1V7h1.8V5h4.4v2H9z M9,18.3V17H1v1.3h1.8v2h4.4v-2H9z M6,16V9H4v7H6z"/>
</mask>
<path class="st2" d="M9,8.3v1h1v-1H9z M9,7h1V6H9V7z M1,8.3H0l0,1h1V8.3z M1,7V6H0l0,1H1z M2.8,7v1h1V7H2.8z M2.8,5V4h-1v1H2.8z
	 M7.2,5h1V4h-1V5z M7.2,7h-1v1h1V7z M9,17h1v-1H9V17z M9,18.3v1h1v-1H9z M1,17v-1H0l0,1H1z M1,18.3H0l0,1h1V18.3z M2.8,18.3h1v-1h-1
	V18.3z M2.8,20.3h-1v1h1V20.3z M7.2,20.3v1h1v-1H7.2z M7.2,18.3v-1h-1v1H7.2z M6,9h1V8H6V9z M6,16v1h1v-1H6z M4,9V8H3v1H4z M4,16H3
	v1h1V16z M10,8.3V7H8v1.3H10z M1,9.3h8v-2H1V9.3z M0,7l0,1.3h2V7H0z M2.8,6H1v2h1.8V6z M1.8,5v2h2V5H1.8z M7.2,4H2.8v2h4.4V4z
	 M8.2,7V5h-2v2H8.2z M9,6H7.2v2H9V6z M8,17v1.3h2V17H8z M1,18h8v-2H1V18z M2,18.3V17H0l0,1.3H2z M2.8,17.3H1v2h1.8V17.3z M3.8,20.3
	v-2h-2v2H3.8z M7.2,19.3H2.8v2h4.4V19.3z M6.2,18.3v2h2v-2H6.2z M9,17.3H7.2v2H9V17.3z M5,9v7h2V9H5z M4,10h2V8H4V10z M5,16V9H3v7H5
	z M6,15H4v2h2V15z"/>
<defs>
	<filter id="Adobe_OpacityMaskFilter_1_" filterUnits="userSpaceOnUse" x="0" y="4" width="10" height="17.3">
		<feColorMatrix  type="matrix" values="1 0 0 0 0  0 1 0 0 0  0 0 1 0 0  0 0 0 1 0"/>
	</filter>
</defs>
<mask maskUnits="userSpaceOnUse" x="0" y="4" width="10" height="17.3" id="path-1-outside-1_590_3330_2_">
	<rect x="0" y="4" class="st3" width="10" height="18"/>
	<path class="st1" d="M9,7v1.3H1V7h1.8V5h4.4v2H9z M9,18.3V17H1v1.3h1.8v2h4.4v-2H9z M6,16V9H4v7H6z"/>
</mask>
<path class="st4" d="M9,8.3v1h1v-1H9z M9,7h1V6H9V7z M1,8.3H0l0,1h1V8.3z M1,7V6H0l0,1H1z M2.8,7v1h1V7H2.8z M2.8,5V4h-1v1H2.8z
	 M7.2,5h1V4h-1V5z M7.2,7h-1v1h1V7z M9,17h1v-1H9V17z M9,18.3v1h1v-1H9z M1,17v-1H0l0,1H1z M1,18.3H0l0,1h1V18.3z M2.8,18.3h1v-1h-1
	V18.3z M2.8,20.3h-1v1h1V20.3z M7.2,20.3v1h1v-1H7.2z M7.2,18.3v-1h-1v1H7.2z M6,9h1V8H6V9z M6,16v1h1v-1H6z M4,9V8H3v1H4z M4,16H3
	v1h1V16z M10,8.3V7H8v1.3H10z M1,9.3h8v-2H1V9.3z M0,7l0,1.3h2V7H0z M2.8,6H1v2h1.8V6z M1.8,5v2h2V5H1.8z M7.2,4H2.8v2h4.4V4z
	 M8.2,7V5h-2v2H8.2z M9,6H7.2v2H9V6z M8,17v1.3h2V17H8z M1,18h8v-2H1V18z M2,18.3V17H0l0,1.3H2z M2.8,17.3H1v2h1.8V17.3z M3.8,20.3
	v-2h-2v2H3.8z M7.2,19.3H2.8v2h4.4V19.3z M6.2,18.3v2h2v-2H6.2z M9,17.3H7.2v2H9V17.3z M5,9v7h2V9H5z M4,10h2V8H4V10z M5,16V9H3v7H5
	z M6,15H4v2h2V15z"/>
<defs>
	<filter id="Adobe_OpacityMaskFilter_2_" filterUnits="userSpaceOnUse" x="14" y="4" width="10" height="17.3">
		<feColorMatrix  type="matrix" values="1 0 0 0 0  0 1 0 0 0  0 0 1 0 0  0 0 0 1 0"/>
	</filter>
</defs>
<mask maskUnits="userSpaceOnUse" x="14" y="4" width="10" height="17.3" id="path-3-outside-2_590_3330_1_">
	<rect x="14" y="4" class="st5" width="10" height="18"/>
	<path class="st1" d="M23,7v1.3h-8V7h1.8V5h4.4v2H23z M23,18.3V17h-8v1.3h1.8v2h4.4v-2H23z M20,16V9h-2v7H20z"/>
</mask>
<path class="st6" d="M23,8.3v1h1v-1H23z M23,7h1V6h-1V7z M15,8.3h-1v1h1V8.3z M15,7V6h-1v1H15z M16.8,7v1h1V7H16.8z M16.8,5V4h-1v1
	H16.8z M21.2,5h1V4h-1V5z M21.2,7h-1v1h1V7z M23,17h1v-1h-1V17z M23,18.3v1h1v-1H23z M15,17v-1h-1v1H15z M15,18.3h-1v1h1V18.3z
	 M16.8,18.3h1v-1h-1V18.3z M16.8,20.3h-1v1h1V20.3z M21.2,20.3v1h1v-1H21.2z M21.2,18.3v-1h-1v1H21.2z M20,9h1V8h-1V9z M20,16v1h1
	v-1H20z M18,9V8h-1v1H18z M18,16h-1v1h1V16z M24,8.3V7h-2v1.3H24z M15,9.3h8v-2h-8V9.3z M14,7v1.3h2V7H14z M16.8,6H15v2h1.8V6z
	 M15.8,5v2h2V5H15.8z M21.2,4h-4.4v2h4.4V4z M22.2,7V5h-2v2H22.2z M23,6h-1.8v2H23V6z M22,17v1.3h2V17H22z M15,18h8v-2h-8V18z
	 M16,18.3V17h-2v1.3H16z M16.8,17.3H15v2h1.8V17.3z M17.8,20.3v-2h-2v2H17.8z M21.2,19.3h-4.4v2h4.4V19.3z M20.2,18.3v2h2v-2H20.2z
	 M23,17.3h-1.8v2H23V17.3z M19,9v7h2V9H19z M18,10h2V8h-2V10z M19,16V9h-2v7H19z M20,15h-2v2h2V15z"/>
<defs>
	<filter id="Adobe_OpacityMaskFilter_3_" filterUnits="userSpaceOnUse" x="14" y="4" width="10" height="17.3">
		<feColorMatrix  type="matrix" values="1 0 0 0 0  0 1 0 0 0  0 0 1 0 0  0 0 0 1 0"/>
	</filter>
</defs>
<mask maskUnits="userSpaceOnUse" x="14" y="4" width="10" height="17.3" id="path-3-outside-2_590_3330_2_">
	<rect x="14" y="4" class="st7" width="10" height="18"/>
	<path class="st1" d="M23,7v1.3h-8V7h1.8V5h4.4v2H23z M23,18.3V17h-8v1.3h1.8v2h4.4v-2H23z M20,16V9h-2v7H20z"/>
</mask>
<path class="st8" d="M23,8.3v1h1v-1H23z M23,7h1V6h-1V7z M15,8.3h-1v1h1V8.3z M15,7V6h-1v1H15z M16.8,7v1h1V7H16.8z M16.8,5V4h-1v1
	H16.8z M21.2,5h1V4h-1V5z M21.2,7h-1v1h1V7z M23,17h1v-1h-1V17z M23,18.3v1h1v-1H23z M15,17v-1h-1v1H15z M15,18.3h-1v1h1V18.3z
	 M16.8,18.3h1v-1h-1V18.3z M16.8,20.3h-1v1h1V20.3z M21.2,20.3v1h1v-1H21.2z M21.2,18.3v-1h-1v1H21.2z M20,9h1V8h-1V9z M20,16v1h1
	v-1H20z M18,9V8h-1v1H18z M18,16h-1v1h1V16z M24,8.3V7h-2v1.3H24z M15,9.3h8v-2h-8V9.3z M14,7v1.3h2V7H14z M16.8,6H15v2h1.8V6z
	 M15.8,5v2h2V5H15.8z M21.2,4h-4.4v2h4.4V4z M22.2,7V5h-2v2H22.2z M23,6h-1.8v2H23V6z M22,17v1.3h2V17H22z M15,18h8v-2h-8V18z
	 M16,18.3V17h-2v1.3H16z M16.8,17.3H15v2h1.8V17.3z M17.8,20.3v-2h-2v2H17.8z M21.2,19.3h-4.4v2h4.4V19.3z M20.2,18.3v2h2v-2H20.2z
	 M23,17.3h-1.8v2H23V17.3z M19,9v7h2V9H19z M18,10h2V8h-2V10z M19,16V9h-2v7H19z M20,15h-2v2h2V15z"/>
</svg>
