<?xml version="1.0" encoding="utf-8"?>
<!-- Generator: Adobe Illustrator 24.2.3, SVG Export Plug-In . SVG Version: 6.00 Build 0)  -->
<svg version="1.1" id="Layer_1" xmlns="http://www.w3.org/2000/svg" xmlns:xlink="http://www.w3.org/1999/xlink" x="0px" y="0px"
	 viewBox="0 0 24 25" style="enable-background:new 0 0 24 25;" xml:space="preserve">
<style type="text/css">
	.st0{clip-path:url(#SVGID_2_);}
	.st1{fill-rule:evenodd;clip-rule:evenodd;fill:#E4A952;}
</style>
<g>
	<defs>
		<rect id="SVGID_1_" y="0.5" width="24" height="24"/>
	</defs>
	<clipPath id="SVGID_2_">
		<use xlink:href="#SVGID_1_"  style="overflow:visible;"/>
	</clipPath>
	<g class="st0">
		<path class="st1" d="M17.9,5.4c-0.8-1-1.9-1.8-3.1-2.3l0.6-1.9l-0.9-0.3l-0.6,1.9c-0.6-0.2-1.2-0.2-1.9-0.2
			c-0.7,0-1.4,0.1-2.1,0.3L9.2,0.9L8.3,1.2L9,3.1C7.8,3.6,6.8,4.4,6.1,5.4L4.4,4.3L3.8,5.1l1.7,1.1c-0.6,1-0.9,2.1-1,3.3h-2v1h2
			c0,0.5,0.1,1.1,0.3,1.6c-0.8,0.2-1.6,0.6-2.3,1l-5.2,3.4l0.5,0.8L3,13.9c2.9-1.9,6.7-1.5,9.2,0.9c2.8,2.7,7.1,3.1,10.4,1l5.2-3.4
			l-0.5-0.8L22,14.9c-1.7,1.1-3.6,1.4-5.5,1c0.5-0.4,1-0.9,1.4-1.4l1.7,1.1l0.6-0.8l-1.7-1.1c0.6-1,0.9-2.1,1-3.3h2v-1h-2
			c-0.1-1.2-0.4-2.3-1-3.3l1.7-1.1l-0.6-0.8L17.9,5.4z M12,3.5c-3.6,0-6.5,2.9-6.5,6.5c0,0.6,0.1,1.3,0.3,1.8
			c2.5-0.4,5.1,0.4,7.1,2.2c0.7,0.7,1.5,1.2,2.4,1.5c1.9-1.1,3.2-3.2,3.2-5.6C18.5,6.4,15.6,3.5,12,3.5z M27.3,17.5l-5.2,3.4
			c-3.3,2.1-7.6,1.7-10.4-1c-2.5-2.4-6.3-2.7-9.2-0.9l-5.2,3.4l-0.5-0.8L2,18.2c3.3-2.1,7.6-1.7,10.4,1c2.5,2.4,6.3,2.7,9.2,0.9
			l5.2-3.4L27.3,17.5z"/>
	</g>
</g>
</svg>
