<svg width="61" height="61" viewBox="0 0 61 61" fill="none" xmlns="http://www.w3.org/2000/svg">
<circle cx="30.5" cy="30.5" r="30.5" fill="#231F20"/>
<path d="M41.1975 39.1975L39.475 40.92L38.3213 39.7663L40.0438 38.0438L36.8913 34.8913L35.1687 36.6138L34.015 35.46L35.7375 33.7375L32.585 30.585L30.8625 32.3075L29.7087 31.1538L31.4312 29.4312L28.2625 26.2625L26.54 27.985L25.3862 26.8313L27.1087 25.1087L23.9563 21.9563L22.2337 23.6787L21.08 22.525L22.8025 20.8025L19 17V39.75C19 41.5375 20.4625 43 22.25 43H45L41.1975 39.1975ZM23.875 38.125V28.765L33.235 38.125H23.875Z" fill="white"/>
</svg>
