<svg width="62" height="88" viewBox="0 0 62 88" fill="none" xmlns="http://www.w3.org/2000/svg">
<circle cx="31.5" cy="30.5" r="30.5" fill="#2E3A3F"/>
<path d="M42.1975 39.1975L40.475 40.92L39.3213 39.7663L41.0438 38.0438L37.8913 34.8913L36.1687 36.6138L35.015 35.46L36.7375 33.7375L33.585 30.585L31.8625 32.3075L30.7087 31.1538L32.4312 29.4312L29.2625 26.2625L27.54 27.985L26.3862 26.8313L28.1087 25.1087L24.9563 21.9563L23.2337 23.6787L22.08 22.525L23.8025 20.8025L20 17V39.75C20 41.5375 21.4625 43 23.25 43H46L42.1975 39.1975ZM24.875 38.125V28.765L34.235 38.125H24.875Z" fill="white"/>
<path d="M2.88 72.848C2.944 72.816 3.01333 72.8 3.088 72.8H3.952C4.05867 72.8 4.112 72.8533 4.112 72.96V83.84C4.112 83.9467 4.05867 84 3.952 84H3.136C3.02933 84 2.976 83.9467 2.976 83.84V74.096C2.976 74.0747 2.96533 74.0587 2.944 74.048C2.93333 74.0373 2.91733 74.0373 2.896 74.048L1.2 74.736L1.136 74.752C1.072 74.752 1.02933 74.7093 1.008 74.624L0.928 74.016V73.984C0.928 73.9307 0.965333 73.8773 1.04 73.824L2.88 72.848ZM8.52063 72.848C8.58463 72.816 8.65396 72.8 8.72863 72.8H9.59263C9.69929 72.8 9.75262 72.8533 9.75262 72.96V83.84C9.75262 83.9467 9.69929 84 9.59263 84H8.77663C8.66996 84 8.61663 83.9467 8.61663 83.84V74.096C8.61663 74.0747 8.60596 74.0587 8.58463 74.048C8.57396 74.0373 8.55796 74.0373 8.53663 74.048L6.84063 74.736L6.77663 74.752C6.71263 74.752 6.66996 74.7093 6.64863 74.624L6.56863 74.016V73.984C6.56863 73.9307 6.60596 73.8773 6.68063 73.824L8.52063 72.848ZM18.9144 79.888C19.021 79.888 19.0744 79.9413 19.0744 80.048V80.752C19.0744 80.8587 19.021 80.912 18.9144 80.912H18.2264C18.1837 80.912 18.1624 80.9333 18.1624 80.976V83.84C18.1624 83.9467 18.109 84 18.0024 84H17.1864C17.0797 84 17.0264 83.9467 17.0264 83.84V80.976C17.0264 80.9333 17.005 80.912 16.9624 80.912H12.1784C12.0717 80.912 12.0184 80.8587 12.0184 80.752V80.16C12.0184 80.1067 12.0344 80.0427 12.0664 79.968L15.3464 72.912C15.3784 72.8373 15.437 72.8 15.5224 72.8H16.3704C16.4237 72.8 16.461 72.8213 16.4824 72.864C16.5144 72.896 16.5197 72.9387 16.4984 72.992L13.3144 79.808C13.3037 79.8293 13.3037 79.8507 13.3144 79.872C13.325 79.8827 13.341 79.888 13.3624 79.888H16.9624C17.005 79.888 17.0264 79.8667 17.0264 79.824V77.248C17.0264 77.1413 17.0797 77.088 17.1864 77.088H18.0024C18.109 77.088 18.1624 77.1413 18.1624 77.248V79.824C18.1624 79.8667 18.1837 79.888 18.2264 79.888H18.9144ZM26.9269 78.704C27.1402 79.2267 27.2469 79.8507 27.2469 80.576C27.2469 81.1627 27.1669 81.68 27.0069 82.128C26.7935 82.768 26.4309 83.264 25.9189 83.616C25.4175 83.9573 24.7935 84.128 24.0469 84.128C23.3002 84.128 22.6602 83.936 22.1269 83.552C21.5935 83.1573 21.2255 82.6293 21.0229 81.968C20.9269 81.6693 20.8682 81.264 20.8469 80.752C20.8469 80.6453 20.9002 80.592 21.0069 80.592H21.8229C21.9295 80.592 21.9829 80.6453 21.9829 80.752C22.0042 81.0613 22.0415 81.3493 22.0949 81.616C22.2122 82.0853 22.4362 82.4587 22.7669 82.736C23.1082 83.0027 23.5295 83.136 24.0309 83.136C24.9909 83.136 25.6149 82.7093 25.9029 81.856C26.0309 81.504 26.0949 81.0667 26.0949 80.544C26.0949 79.904 26.0095 79.3813 25.8389 78.976C25.4975 78.208 24.8949 77.824 24.0309 77.824C23.8709 77.824 23.6735 77.8827 23.4389 78C23.3962 78.0213 23.3642 78.032 23.3429 78.032C23.3002 78.032 23.2629 78.0053 23.2309 77.952L22.8149 77.392C22.7615 77.3067 22.7669 77.232 22.8309 77.168L25.6469 73.872C25.6789 73.8187 25.6682 73.792 25.6149 73.792H21.1029C20.9962 73.792 20.9429 73.7387 20.9429 73.632V72.96C20.9429 72.8533 20.9962 72.8 21.1029 72.8H27.0229C27.1295 72.8 27.1829 72.8533 27.1829 72.96V73.744C27.1829 73.7973 27.1562 73.8613 27.1029 73.936L24.5429 77.008C24.5215 77.0293 24.5162 77.0507 24.5269 77.072C24.5375 77.0827 24.5589 77.088 24.5909 77.088C25.7322 77.1627 26.5109 77.7013 26.9269 78.704ZM32.2173 84.08C31.6199 84.08 31.0866 83.984 30.6173 83.792C30.1586 83.6 29.8013 83.344 29.5453 83.024C29.2999 82.704 29.1773 82.3467 29.1773 81.952V81.76C29.1773 81.6533 29.2306 81.6 29.3372 81.6H30.1053C30.2119 81.6 30.2653 81.6533 30.2653 81.76V81.888C30.2653 82.24 30.4466 82.5493 30.8093 82.816C31.1826 83.072 31.6466 83.2 32.2013 83.2C32.7559 83.2 33.2039 83.0773 33.5453 82.832C33.8866 82.576 34.0573 82.256 34.0573 81.872C34.0573 81.6053 33.9666 81.3867 33.7853 81.216C33.6146 81.0453 33.4066 80.912 33.1613 80.816C32.9266 80.72 32.5586 80.5973 32.0573 80.448C31.4599 80.2773 30.9693 80.1067 30.5853 79.936C30.2013 79.7653 29.8759 79.5307 29.6093 79.232C29.3533 78.9227 29.2253 78.5333 29.2253 78.064C29.2253 77.3813 29.4919 76.8373 30.0253 76.432C30.5586 76.0267 31.2626 75.824 32.1373 75.824C32.7239 75.824 33.2413 75.92 33.6893 76.112C34.1479 76.304 34.4999 76.5707 34.7453 76.912C34.9906 77.2427 35.1133 77.616 35.1133 78.032V78.08C35.1133 78.1867 35.0599 78.24 34.9533 78.24H34.2013C34.0946 78.24 34.0413 78.1867 34.0413 78.08V78.032C34.0413 77.6693 33.8653 77.3653 33.5133 77.12C33.1719 76.8747 32.7079 76.752 32.1213 76.752C31.5773 76.752 31.1399 76.864 30.8093 77.088C30.4786 77.3013 30.3133 77.6 30.3133 77.984C30.3133 78.3467 30.4733 78.624 30.7933 78.816C31.1133 79.008 31.6093 79.2 32.2812 79.392C32.8999 79.5733 33.4013 79.744 33.7853 79.904C34.1693 80.064 34.4999 80.2987 34.7773 80.608C35.0546 80.9067 35.1933 81.3013 35.1933 81.792C35.1933 82.4853 34.9213 83.04 34.3773 83.456C33.8333 83.872 33.1133 84.08 32.2173 84.08ZM42.2884 76.064C42.2884 75.9573 42.3417 75.904 42.4484 75.904H43.2644C43.371 75.904 43.4244 75.9573 43.4244 76.064V86.944C43.4244 87.0507 43.371 87.104 43.2644 87.104H42.4484C42.3417 87.104 42.2884 87.0507 42.2884 86.944V83.184C42.2884 83.1627 42.2777 83.152 42.2564 83.152C42.2457 83.1413 42.2297 83.1467 42.2084 83.168C41.9737 83.4773 41.6804 83.7173 41.3284 83.888C40.9764 84.048 40.5924 84.128 40.1764 84.128C39.419 84.128 38.7844 83.936 38.2724 83.552C37.7604 83.1573 37.4084 82.6187 37.2164 81.936C37.0884 81.4987 37.0244 80.8373 37.0244 79.952C37.0244 79.0773 37.099 78.4 37.2484 77.92C37.4404 77.2587 37.787 76.736 38.2884 76.352C38.8004 75.968 39.4297 75.776 40.1764 75.776C40.603 75.776 40.987 75.8613 41.3284 76.032C41.6804 76.2027 41.9737 76.4427 42.2084 76.752C42.2297 76.7733 42.2457 76.784 42.2564 76.784C42.2777 76.7733 42.2884 76.7573 42.2884 76.736V76.064ZM41.9844 81.936C42.091 81.712 42.1657 81.456 42.2084 81.168C42.251 80.8693 42.2724 80.464 42.2724 79.952C42.2724 79.44 42.251 79.04 42.2084 78.752C42.1657 78.464 42.0964 78.2133 42.0004 78C41.8617 77.6267 41.6484 77.328 41.3604 77.104C41.0724 76.88 40.715 76.768 40.2884 76.768C39.8404 76.768 39.451 76.88 39.1204 77.104C38.8004 77.328 38.5764 77.632 38.4484 78.016C38.3417 78.24 38.267 78.496 38.2244 78.784C38.1817 79.0613 38.1604 79.4507 38.1604 79.952C38.1604 80.4747 38.187 80.8853 38.2404 81.184C38.3044 81.472 38.4004 81.7333 38.5284 81.968C38.667 82.32 38.891 82.6027 39.2004 82.816C39.5097 83.0293 39.8777 83.136 40.3044 83.136C40.7097 83.136 41.0564 83.0293 41.3444 82.816C41.643 82.592 41.8564 82.2987 41.9844 81.936ZM47.0205 83.968C46.7538 83.968 46.5352 83.8827 46.3645 83.712C46.2045 83.5413 46.1245 83.328 46.1245 83.072C46.1245 82.8053 46.2045 82.592 46.3645 82.432C46.5352 82.2613 46.7538 82.176 47.0205 82.176C47.2765 82.176 47.4898 82.2613 47.6605 82.432C47.8312 82.592 47.9165 82.8053 47.9165 83.072C47.9165 83.328 47.8312 83.5413 47.6605 83.712C47.4898 83.8827 47.2765 83.968 47.0205 83.968ZM53.5269 73.792C52.9402 73.792 52.5402 73.9253 52.3269 74.192C52.1135 74.448 52.0069 74.8907 52.0069 75.52V75.84C52.0069 75.8827 52.0282 75.904 52.0709 75.904H53.8629C53.9695 75.904 54.0229 75.9573 54.0229 76.064V76.784C54.0229 76.8907 53.9695 76.944 53.8629 76.944H52.0709C52.0282 76.944 52.0069 76.9653 52.0069 77.008V83.84C52.0069 83.9467 51.9535 84 51.8469 84H51.0469C50.9402 84 50.8869 83.9467 50.8869 83.84V77.008C50.8869 76.9653 50.8655 76.944 50.8229 76.944H49.7509C49.6442 76.944 49.5909 76.8907 49.5909 76.784V76.064C49.5909 75.9573 49.6442 75.904 49.7509 75.904H50.8229C50.8655 75.904 50.8869 75.8827 50.8869 75.84V75.456C50.8869 74.7947 50.9615 74.2773 51.1109 73.904C51.2602 73.52 51.5162 73.2427 51.8789 73.072C52.2522 72.8907 52.7695 72.8 53.4309 72.8H53.8949C54.0015 72.8 54.0549 72.8533 54.0549 72.96V73.632C54.0549 73.7387 54.0015 73.792 53.8949 73.792H53.5269ZM59.662 76.688C59.662 76.7947 59.6087 76.848 59.502 76.848H57.694C57.6513 76.848 57.63 76.8693 57.63 76.912V81.632C57.63 82.144 57.742 82.5067 57.966 82.72C58.2007 82.9227 58.5633 83.024 59.054 83.024H59.454C59.5607 83.024 59.614 83.0773 59.614 83.184V83.84C59.614 83.9467 59.5607 84 59.454 84C59.326 84.0107 59.1287 84.016 58.862 84.016C58.094 84.016 57.5127 83.872 57.118 83.584C56.7233 83.296 56.526 82.7627 56.526 81.984V76.912C56.526 76.8693 56.5047 76.848 56.462 76.848H55.486C55.3793 76.848 55.326 76.7947 55.326 76.688V76.064C55.326 75.9573 55.3793 75.904 55.486 75.904H56.462C56.5047 75.904 56.526 75.8827 56.526 75.84V73.984C56.526 73.8773 56.5793 73.824 56.686 73.824H57.47C57.5767 73.824 57.63 73.8773 57.63 73.984V75.84C57.63 75.8827 57.6513 75.904 57.694 75.904H59.502C59.6087 75.904 59.662 75.9573 59.662 76.064V76.688Z" fill="black"/>
</svg>
