<svg width="16" height="10" viewBox="0 0 16 10" fill="none" xmlns="http://www.w3.org/2000/svg">
<path d="M0 10V5.71429C0 5.39286 0.0733334 5.10119 0.22 4.83929C0.366667 4.57738 0.56 4.34524 0.8 4.14286V2.14286C0.8 1.54762 1.03333 1.04167 1.5 0.625C1.96667 0.208333 2.53333 0 3.2 0H6.4C6.70667 0 6.99333 0.0507142 7.26 0.152143C7.52667 0.253571 7.77333 0.393333 8 0.571429C8.22667 0.392857 8.47333 0.253095 8.74 0.152143C9.00667 0.0511904 9.29333 0.00047619 9.6 0H12.8C13.4667 0 14.0333 0.208333 14.5 0.625C14.9667 1.04167 15.2 1.54762 15.2 2.14286V4.14286C15.44 4.34524 15.6333 4.57738 15.78 4.83929C15.9267 5.10119 16 5.39286 16 5.71429V10H14.4V8.57143H1.6V10H0ZM8.8 3.57143H13.6V2.14286C13.6 1.94048 13.5232 1.77071 13.3696 1.63357C13.216 1.49643 13.0261 1.4281 12.8 1.42857H9.6C9.37333 1.42857 9.1832 1.49714 9.0296 1.63429C8.876 1.77143 8.79947 1.94095 8.8 2.14286V3.57143ZM2.4 3.57143H7.2V2.14286C7.2 1.94048 7.1232 1.77071 6.9696 1.63357C6.816 1.49643 6.62613 1.4281 6.4 1.42857H3.2C2.97333 1.42857 2.7832 1.49714 2.6296 1.63429C2.476 1.77143 2.39947 1.94095 2.4 2.14286V3.57143ZM1.6 7.14286H14.4V5.71429C14.4 5.5119 14.3232 5.34214 14.1696 5.205C14.016 5.06786 13.8261 4.99952 13.6 5H2.4C2.17333 5 1.9832 5.06857 1.8296 5.20571C1.676 5.34286 1.59947 5.51238 1.6 5.71429V7.14286Z" fill="white"/>
</svg>
