<svg width="15" height="15" viewBox="0 0 15 15" fill="none" xmlns="http://www.w3.org/2000/svg">
<path d="M3.16667 7.5V2.44444C3.16667 2.06135 3.31885 1.69395 3.58973 1.42307C3.86062 1.15218 4.22802 1 4.61111 1H6.77778V2.625M1.72222 14L2.44444 12.9167M13.2778 14L12.5556 12.9167M1.72222 7.5H13.2778C13.4693 7.5 13.653 7.57609 13.7885 7.71153C13.9239 7.84698 14 8.03068 14 8.22222V10.3889C14 11.1551 13.6956 11.8899 13.1539 12.4316C12.6121 12.9734 11.8773 13.2778 11.1111 13.2778H3.88889C3.12271 13.2778 2.38791 12.9734 1.84614 12.4316C1.30436 11.8899 1 11.1551 1 10.3889V8.22222C1 8.03068 1.07609 7.84698 1.21153 7.71153C1.34698 7.57609 1.53068 7.5 1.72222 7.5Z" stroke="white" stroke-width="1.5" stroke-linecap="round" stroke-linejoin="round"/>
</svg>
