<?xml version="1.0" encoding="utf-8"?>
<!-- Generator: Adobe Illustrator 24.2.3, SVG Export Plug-In . SVG Version: 6.00 Build 0)  -->
<svg version="1.1" id="Layer_1" xmlns="http://www.w3.org/2000/svg" xmlns:xlink="http://www.w3.org/1999/xlink" x="0px" y="0px"
	 viewBox="0 0 24 25" style="enable-background:new 0 0 24 25;" xml:space="preserve">
<style type="text/css">
	.st0{fill:none;stroke:#ECA33A;stroke-width:0.9557;}
</style>
<g>
	<path class="st0" d="M5.2,10.8l7.2,2.3c0,0,0.1,0,0.1,0s0.1,0,0.1,0l10.2-3.3c0.1,0,0.2-0.1,0.2-0.3s-0.1-0.2-0.2-0.3L12.6,6
		c0,0-0.1,0-0.1,0s-0.1,0-0.1,0L2.2,9.3C2,9.3,2,9.4,2,9.6S2,9.8,2.2,9.9L5.2,10.8z M5.2,10.8c-0.5,0.8-0.8,1.8-0.9,3.1
		c-0.4,0.2-0.6,0.6-0.6,1c0,0.4,0.2,0.8,0.5,1 M4.3,16l-0.5,4l-2.2-0.6L4.3,16z M18.2,13.3l0.2,2.9c0,0.4-0.2,0.8-0.7,1.2
		c-0.5,0.4-1.2,0.7-2.1,0.9c-0.9,0.2-1.9,0.3-2.9,0.3s-2-0.1-2.9-0.3c-0.9-0.2-1.6-0.5-2.1-0.9c-0.5-0.4-0.8-0.8-0.7-1.2l0.2-2.9
		L12,15c0.1,0,0.3,0.1,0.4,0.1c0.2,0,0.3,0,0.4-0.1L18.2,13.3z"/>
	<path class="st0" d="M5.2,10.8l7.2,2.3c0,0,0.1,0,0.1,0s0.1,0,0.1,0l10.2-3.3c0.1,0,0.2-0.1,0.2-0.3s-0.1-0.2-0.2-0.3L12.6,6
		c0,0-0.1,0-0.1,0s-0.1,0-0.1,0L2.2,9.3C2,9.3,2,9.4,2,9.6S2,9.8,2.2,9.9L5.2,10.8z M5.2,10.8c-0.5,0.8-0.8,1.8-0.9,3.1
		c-0.4,0.2-0.6,0.6-0.6,1c0,0.4,0.2,0.8,0.5,1 M4.3,16l-0.5,4l-2.2-0.6L4.3,16z M18.2,13.3l0.2,2.9c0,0.4-0.2,0.8-0.7,1.2
		c-0.5,0.4-1.2,0.7-2.1,0.9c-0.9,0.2-1.9,0.3-2.9,0.3s-2-0.1-2.9-0.3c-0.9-0.2-1.6-0.5-2.1-0.9c-0.5-0.4-0.8-0.8-0.7-1.2l0.2-2.9
		L12,15c0.1,0,0.3,0.1,0.4,0.1c0.2,0,0.3,0,0.4-0.1L18.2,13.3z"/>
</g>
</svg>
