<svg width="26" height="22" viewBox="0 0 26 22" fill="none" xmlns="http://www.w3.org/2000/svg">
<rect width="25.0345" height="22" fill="#ECA33A"/>
<path d="M13.3836 10.7687C12.3816 10.8698 11.4419 10.9617 10.5022 11.0592C9.17997 11.1973 7.85844 11.3397 6.53623 11.4785C5.97363 11.5376 5.49227 11.1959 5.34942 10.6413C5.20793 10.0902 5.46113 9.52917 5.9716 9.28924C9.78049 7.4965 13.5907 5.7059 17.3996 3.91459C17.8139 3.71951 18.2127 3.7544 18.5634 4.05342C18.9188 4.35744 19.0319 4.76468 18.9297 5.23885C18.0096 9.5071 17.0916 13.7754 16.1715 18.0429C16.0449 18.6288 15.5771 19.0005 15.0253 18.9628C14.4932 18.9264 14.0755 18.4843 14.0193 17.8941C13.802 15.598 13.5853 13.3019 13.3707 11.0058C13.3639 10.9303 13.3788 10.852 13.3836 10.7687Z" fill="white"/>
</svg>
