<svg width="21" height="21" viewBox="0 0 21 21" fill="none" xmlns="http://www.w3.org/2000/svg">
<path d="M3.78257 17.217C2.45395 15.8885 1.54914 14.1958 1.18256 12.353C0.815981 10.5102 1.00411 8.60007 1.72314 6.8642C2.44218 5.12832 3.65982 3.64466 5.2221 2.60084C6.78437 1.55702 8.6211 0.999919 10.5 1M17.2174 3.78216C18.5461 5.1107 19.4509 6.80341 19.8174 8.6462C20.184 10.489 19.9959 12.3991 19.2769 14.135C18.5578 15.8709 17.3402 17.3545 15.7779 18.3983C14.2156 19.4422 12.3789 19.9993 10.5 19.9992" stroke="#ECA33A" stroke-width="1.2" stroke-linecap="round" stroke-linejoin="round"/>
<path d="M15.7633 4.72276C16.614 4.72276 17.3037 4.0331 17.3037 3.18236C17.3037 2.33163 16.614 1.64197 15.7633 1.64197C14.9125 1.64197 14.2229 2.33163 14.2229 3.18236C14.2229 4.0331 14.9125 4.72276 15.7633 4.72276Z" stroke="#ECA33A" stroke-width="1.2" stroke-linecap="round" stroke-linejoin="round"/>
<path d="M5.23674 19.3569C6.08748 19.3569 6.77714 18.6673 6.77714 17.8165C6.77714 16.9658 6.08748 16.2761 5.23674 16.2761C4.38601 16.2761 3.69635 16.9658 3.69635 17.8165C3.69635 18.6673 4.38601 19.3569 5.23674 19.3569Z" stroke="#ECA33A" stroke-width="1.2" stroke-linecap="round" stroke-linejoin="round"/>
<path d="M8.48898 8.69655L10.0299 11.7778L15.1645 11.2644L12.0837 5.10181L8.48898 8.69655Z" stroke="#ECA33A" stroke-width="1.2" stroke-linecap="round" stroke-linejoin="round"/>
<path d="M8.48902 8.69641L6.43516 9.72334C5.81793 10.0317 5.87006 11.1605 6.17843 11.7777C6.4868 12.3949 7.35833 13.113 7.97604 12.8046L10.0299 11.7777M9.57587 12.0398L10.8595 14.6071L9.8326 15.1206L8.54894 12.5532" stroke="#ECA33A" stroke-width="1.2" stroke-linecap="round" stroke-linejoin="round"/>
</svg>
