<svg width="14" height="13" viewBox="0 0 14 13" fill="none" xmlns="http://www.w3.org/2000/svg">
<path fill-rule="evenodd" clip-rule="evenodd" d="M0.630859 6.5C0.630859 4.77609 1.31568 3.12279 2.53467 1.90381C3.75365 0.684819 5.40695 0 7.13086 0C8.85477 0 10.5081 0.684819 11.7271 1.90381C12.946 3.12279 13.6309 4.77609 13.6309 6.5C13.6309 8.22391 12.946 9.87721 11.7271 11.0962C10.5081 12.3152 8.85477 13 7.13086 13C5.40695 13 3.75365 12.3152 2.53467 11.0962C1.31568 9.87721 0.630859 8.22391 0.630859 6.5ZM6.75993 9.282L10.5022 4.60373L9.82619 4.06293L6.63513 8.05047L4.37486 6.1672L3.82019 6.8328L6.75993 9.28287V9.282Z" fill="#ECA33A"/>
</svg>
