<?xml version="1.0" encoding="utf-8"?>
<!-- Generator: Adobe Illustrator 24.2.3, SVG Export Plug-In . SVG Version: 6.00 Build 0)  -->
<svg version="1.1" id="Layer_1" xmlns="http://www.w3.org/2000/svg" xmlns:xlink="http://www.w3.org/1999/xlink" x="0px" y="0px"
	 viewBox="0 0 24 25" style="enable-background:new 0 0 24 25;" xml:space="preserve">
<style type="text/css">
	.st0{fill-rule:evenodd;clip-rule:evenodd;fill:#ECA33A;}
</style>
<path class="st0" d="M5,3.4L5.5,2L6,3.4l0,0C6.5,4.6,7.4,5.5,8.6,6l0,0L10,6.5L8.6,7l0,0C7.4,7.5,6.5,8.4,6,9.6l0,0L5.5,11L5,9.6
	l0,0C4.5,8.4,3.6,7.5,2.4,7l0,0L1,6.5L2.4,6l0,0C3.6,5.5,4.5,4.6,5,3.4L5,3.4z M3.6,6.5C4.4,6,5,5.4,5.5,4.6C6,5.4,6.6,6,7.4,6.5
	C6.6,7,6,7.6,5.5,8.4C5,7.6,4.4,7,3.6,6.5z M13.5,6.4L14,5l0.5,1.4L15,7.8c0.9,2.4,2.8,4.3,5.1,5.1l1.4,0.5L23,14l-1.4,0.5L20.2,15
	c-2.4,0.9-4.3,2.8-5.1,5.1l-0.5,1.4L14,23l-0.5-1.4L13,20.2c-0.9-2.4-2.8-4.3-5.1-5.1l-1.4-0.5L5,14l1.4-0.5L7.8,13
	c2.4-0.9,4.3-2.8,5.1-5.1L13.5,6.4z M13.9,8.2L14,7.9l0.1,0.3c1,2.7,3.1,4.7,5.7,5.7l0.3,0.1l-0.3,0.1c-2.7,1-4.7,3.1-5.7,5.7
	L14,20.1l-0.1-0.3c-1-2.7-3.1-4.7-5.7-5.7L7.9,14l0.3-0.1C10.8,12.9,12.9,10.8,13.9,8.2z"/>
<path class="st0" d="M5,3.4L5.5,2L6,3.4l0,0C6.5,4.6,7.4,5.5,8.6,6l0,0L10,6.5L8.6,7l0,0C7.4,7.5,6.5,8.4,6,9.6l0,0L5.5,11L5,9.6
	l0,0C4.5,8.4,3.6,7.5,2.4,7l0,0L1,6.5L2.4,6l0,0C3.6,5.5,4.5,4.6,5,3.4L5,3.4z M3.6,6.5C4.4,6,5,5.4,5.5,4.6C6,5.4,6.6,6,7.4,6.5
	C6.6,7,6,7.6,5.5,8.4C5,7.6,4.4,7,3.6,6.5z M13.5,6.4L14,5l0.5,1.4L15,7.8c0.9,2.4,2.8,4.3,5.1,5.1l1.4,0.5L23,14l-1.4,0.5L20.2,15
	c-2.4,0.9-4.3,2.8-5.1,5.1l-0.5,1.4L14,23l-0.5-1.4L13,20.2c-0.9-2.4-2.8-4.3-5.1-5.1l-1.4-0.5L5,14l1.4-0.5L7.8,13
	c2.4-0.9,4.3-2.8,5.1-5.1L13.5,6.4z M13.9,8.2L14,7.9l0.1,0.3c1,2.7,3.1,4.7,5.7,5.7l0.3,0.1l-0.3,0.1c-2.7,1-4.7,3.1-5.7,5.7
	L14,20.1l-0.1-0.3c-1-2.7-3.1-4.7-5.7-5.7L7.9,14l0.3-0.1C10.8,12.9,12.9,10.8,13.9,8.2z"/>
<path class="st0" d="M5,3.4L5.5,2L6,3.4l0,0C6.5,4.6,7.4,5.5,8.6,6l0,0L10,6.5L8.6,7l0,0C7.4,7.5,6.5,8.4,6,9.6l0,0L5.5,11L5,9.6
	l0,0C4.5,8.4,3.6,7.5,2.4,7l0,0L1,6.5L2.4,6l0,0C3.6,5.5,4.5,4.6,5,3.4L5,3.4z M3.6,6.5C4.4,6,5,5.4,5.5,4.6C6,5.4,6.6,6,7.4,6.5
	C6.6,7,6,7.6,5.5,8.4C5,7.6,4.4,7,3.6,6.5z M13.5,6.4L14,5l0.5,1.4L15,7.8c0.9,2.4,2.8,4.3,5.1,5.1l1.4,0.5L23,14l-1.4,0.5L20.2,15
	c-2.4,0.9-4.3,2.8-5.1,5.1l-0.5,1.4L14,23l-0.5-1.4L13,20.2c-0.9-2.4-2.8-4.3-5.1-5.1l-1.4-0.5L5,14l1.4-0.5L7.8,13
	c2.4-0.9,4.3-2.8,5.1-5.1L13.5,6.4z M13.9,8.2L14,7.9l0.1,0.3c1,2.7,3.1,4.7,5.7,5.7l0.3,0.1l-0.3,0.1c-2.7,1-4.7,3.1-5.7,5.7
	L14,20.1l-0.1-0.3c-1-2.7-3.1-4.7-5.7-5.7L7.9,14l0.3-0.1C10.8,12.9,12.9,10.8,13.9,8.2z"/>
</svg>
