<svg width="30" height="32" viewBox="0 0 30 32" fill="none" xmlns="http://www.w3.org/2000/svg">
<rect width="30" height="32" fill="#231F20"/>
<path d="M22.2312 8.76455C21.3558 7.88478 20.3132 7.18724 19.1641 6.7126C18.015 6.23797 16.7824 5.99574 15.5382 6.00006C10.3251 6.00006 6.07638 10.2275 6.07638 15.4145C6.07638 17.077 6.51558 18.692 7.33668 20.117L6 25L11.0126 23.689C12.397 24.4395 13.9533 24.8385 15.5382 24.8385C20.7513 24.8385 25 20.611 25 15.424C25 12.9065 24.0166 10.541 22.2312 8.76455ZM15.5382 23.2425C14.1251 23.2425 12.7407 22.8625 11.5281 22.15L11.2417 21.979L8.26281 22.758L9.05528 19.87L8.86432 19.5755C8.07925 18.3281 7.66239 16.8863 7.66131 15.4145C7.66131 11.1015 11.194 7.58655 15.5286 7.58655C17.6291 7.58655 19.6055 8.40355 21.0854 9.88555C21.8182 10.6113 22.3989 11.4746 22.7939 12.4253C23.1889 13.376 23.3903 14.3953 23.3864 15.424C23.4055 19.737 19.8729 23.2425 15.5382 23.2425ZM19.8538 17.3905C19.6151 17.2765 18.4502 16.7065 18.2402 16.621C18.0206 16.545 17.8678 16.507 17.7055 16.735C17.5432 16.9725 17.0945 17.5045 16.9608 17.6565C16.8271 17.818 16.6839 17.837 16.4452 17.7135C16.2065 17.5995 15.4427 17.343 14.5452 16.545C13.8387 15.918 13.3709 15.1485 13.2276 14.911C13.094 14.6735 13.2085 14.55 13.3327 14.4265C13.4377 14.322 13.5714 14.151 13.6859 14.018C13.8005 13.885 13.8482 13.7805 13.9246 13.6285C14.001 13.467 13.9628 13.334 13.9055 13.22C13.8482 13.106 13.3709 11.947 13.1799 11.472C12.9889 11.016 12.7884 11.073 12.6452 11.0635H12.1869C12.0246 11.0635 11.7764 11.1205 11.5568 11.358C11.3467 11.5955 10.7357 12.1655 10.7357 13.3245C10.7357 14.4835 11.5854 15.6045 11.7 15.7565C11.8146 15.918 13.3709 18.293 15.7387 19.3095C16.302 19.5565 16.7412 19.699 17.0849 19.8035C17.6482 19.984 18.1638 19.9555 18.5744 19.8985C19.0327 19.832 19.9779 19.3285 20.1688 18.7775C20.3693 18.2265 20.3693 17.761 20.3025 17.6565C20.2357 17.552 20.0925 17.5045 19.8538 17.3905Z" fill="#ECA33A"/>
</svg>
