<svg width="15" height="15" viewBox="0 0 15 15" fill="none" xmlns="http://www.w3.org/2000/svg">
<path d="M12.8141 2.18254C12.123 1.48798 11.2999 0.937293 10.3927 0.562581C9.4855 0.18787 8.5124 -0.00336008 7.53015 4.46771e-05C3.41457 4.46771e-05 0.0603016 3.33753 0.0603016 7.43252C0.0603016 8.74502 0.407035 10.02 1.05528 11.145L0 15L3.95729 13.965C5.05025 14.5575 6.27889 14.8725 7.53015 14.8725C11.6457 14.8725 15 11.535 15 7.44002C15 5.45253 14.2236 3.58503 12.8141 2.18254ZM7.53015 13.6125C6.41457 13.6125 5.32161 13.3125 4.36432 12.75L4.13819 12.615L1.78643 13.23L2.41206 10.95L2.26131 10.7175C1.64152 9.73274 1.31242 8.59445 1.31156 7.43252C1.31156 4.02753 4.1005 1.25254 7.52261 1.25254C9.1809 1.25254 10.7412 1.89754 11.9095 3.06754C12.4881 3.64051 12.9465 4.32203 13.2583 5.0726C13.5702 5.82317 13.7292 6.62786 13.7261 7.44002C13.7412 10.845 10.9523 13.6125 7.53015 13.6125ZM10.9372 8.99252C10.7487 8.90252 9.82914 8.45252 9.66332 8.38502C9.48995 8.32502 9.36935 8.29502 9.24121 8.47502C9.11306 8.66252 8.75879 9.08252 8.65327 9.20252C8.54774 9.33002 8.43467 9.34502 8.24623 9.24752C8.05779 9.15752 7.45477 8.95502 6.74623 8.32502C6.18844 7.83002 5.8191 7.22252 5.70603 7.03502C5.6005 6.84752 5.69095 6.75002 5.78894 6.65252C5.87186 6.57002 5.97739 6.43503 6.06784 6.33003C6.15829 6.22503 6.19598 6.14253 6.25628 6.02253C6.31658 5.89503 6.28643 5.79003 6.24121 5.70003C6.19598 5.61003 5.81909 4.69503 5.66834 4.32003C5.51759 3.96003 5.3593 4.00503 5.24623 3.99753H4.88442C4.75628 3.99753 4.5603 4.04253 4.38693 4.23003C4.22111 4.41753 3.73869 4.86753 3.73869 5.78253C3.73869 6.69753 4.40955 7.58252 4.5 7.70252C4.59045 7.83002 5.8191 9.70502 7.68844 10.5075C8.13317 10.7025 8.4799 10.815 8.75126 10.8975C9.19598 11.04 9.60301 11.0175 9.92714 10.9725C10.2889 10.92 11.0352 10.5225 11.1859 10.0875C11.3442 9.65252 11.3442 9.28502 11.2915 9.20252C11.2387 9.12002 11.1256 9.08252 10.9372 8.99252Z" fill="#ECA33A"/>
</svg>
