<svg width="17" height="14" viewBox="0 0 17 14" fill="none" xmlns="http://www.w3.org/2000/svg">
<path d="M16.4086 0.538591L16.9753 0.503053C16.9679 0.397343 16.9279 0.296043 16.8603 0.211837C16.7926 0.127631 16.7003 0.0642591 16.5949 0.0296561C16.4896 -0.0049469 16.3758 -0.00924369 16.2679 0.0173037C16.1599 0.0438511 16.0626 0.100063 15.9882 0.178902L16.4086 0.538591ZM15.8442 3.72518C15.8442 3.58237 15.7845 3.44541 15.6783 3.34443C15.572 3.24345 15.4279 3.18672 15.2776 3.18672C15.1273 3.18672 14.9832 3.24345 14.8769 3.34443C14.7706 3.44541 14.7109 3.58237 14.7109 3.72518H15.8442ZM0.567345 12.3846V11.8462C0.445673 11.846 0.327184 11.8831 0.229407 11.9519C0.13163 12.0207 0.0597571 12.1176 0.0244219 12.2283C-0.0109133 12.3389 -0.00783457 12.4574 0.0332027 12.5662C0.0742399 12.6751 0.151056 12.7685 0.252287 12.8326L0.567345 12.3846ZM1.69838 0.538591L2.2299 0.350131C2.19127 0.251817 2.12326 0.166371 2.03421 0.104298C1.94517 0.0422247 1.83897 0.00622953 1.72869 0.000737946C1.6184 -0.00475364 1.50883 0.0204977 1.41345 0.0733874C1.31806 0.126277 1.24102 0.2045 1.19179 0.298439L1.69838 0.538591ZM6.22478 10.2308L6.62597 10.611C6.69404 10.5461 6.74356 10.4658 6.76984 10.3776C6.79613 10.2895 6.79831 10.1964 6.77618 10.1072C6.75406 10.0181 6.70835 9.93574 6.6434 9.86804C6.57844 9.80033 6.49638 9.7495 6.40498 9.72035L6.22478 10.2308ZM14.4118 1.58643L13.9924 1.94827L14.1964 2.16257L14.4968 2.1195L14.4118 1.58643ZM15.8442 0.574129C15.902 1.41197 15.8476 1.92027 15.7049 2.30365C15.5666 2.67519 15.3241 2.98103 14.8855 3.38056L15.6697 4.15809C16.1661 3.70579 16.5492 3.2621 16.7736 2.66334C16.9923 2.07535 17.0376 1.39474 16.9753 0.503053L15.8442 0.574129ZM15.8442 4.50917V3.72518H14.7109V4.51024H15.8442V4.50917ZM7.92247 3.81348V4.84624H9.05577V3.81348H7.92247ZM7.92247 4.84624V5.3847H9.05577V4.84624H7.92247ZM11.9287 0.000134441C11.402 0.000417206 10.8805 0.0992766 10.394 0.291068C9.90752 0.48286 9.46555 0.763828 9.09332 1.11793C8.7211 1.47203 8.42592 1.89233 8.22464 2.35484C8.02335 2.81734 7.91991 3.31299 7.9202 3.81348H9.0535C9.05321 3.45432 9.12738 3.09862 9.27178 2.76671C9.41618 2.43479 9.62798 2.13316 9.89509 1.87904C10.1622 1.62493 10.4794 1.42331 10.8285 1.2857C11.1776 1.14809 11.5519 1.07719 11.9298 1.07705V0.000134441H11.9287ZM14.7098 4.50917C14.7109 9.15712 10.7523 12.9231 5.87119 12.9231V14C11.379 14 15.8442 9.7505 15.8442 4.50917H14.7098ZM1.16799 0.72705C1.78451 2.29073 4.09645 5.3847 8.48912 5.3847V4.30778C4.73109 4.30778 2.74442 1.65858 2.22876 0.350131L1.16799 0.72705ZM1.19179 0.298439C0.00522756 2.55565 -0.177234 4.74609 0.685208 6.6113C1.54538 8.47113 3.39606 9.90127 6.04572 10.7413L6.40498 9.72035C3.96272 8.94497 2.41803 7.68283 1.72218 6.1773C1.0286 4.67717 1.12946 2.82811 2.2061 0.778742L1.19179 0.298439ZM5.8236 9.85065C5.14135 10.5 3.09007 11.8462 0.567345 11.8462V12.9231C3.4754 12.9231 5.7998 11.3982 6.62597 10.611L5.8236 9.85065ZM14.8322 1.22566C14.4658 0.839537 14.0181 0.530905 13.5181 0.31978C13.0181 0.108656 12.477 -0.000247045 11.9298 0.000134441V1.07705C12.7469 1.07705 13.4824 1.41197 13.9924 1.94827L14.8322 1.22566ZM14.4968 2.1195C15.3995 1.97935 16.2239 1.54811 16.8314 0.898279L15.9882 0.178902C15.5561 0.64277 14.9697 0.951803 14.3268 1.05443L14.4968 2.1195ZM0.252287 12.8326C2.11203 14.0108 4.06131 14 5.87119 14V12.9231C4.02391 12.9231 2.41689 12.9112 0.882403 11.9366L0.252287 12.8326Z" fill="#ECA33A"/>
</svg>
